{
.appVersion = "1176";
classes = (
{
automatic = 1;
code = "zero
one
two
three
four
five
six
seven
eight
nine";
name = figures;
},
{
automatic = 1;
code = "zero.dnom
one.dnom
two.dnom
three.dnom
four.dnom
five.dnom
six.dnom
seven.dnom
eight.dnom
nine.dnom";
name = dnom;
},
{
automatic = 1;
code = "zero.numr
one.numr
two.numr
three.numr
four.numr
five.numr
six.numr
seven.numr
eight.numr
nine.numr";
name = numr;
},
{
automatic = 1;

glyphs = (
{
glyphname = A;
layers = (
{
anchors = (
{
name = bottom;
position = "{247, 0}";
},
{
name = ogonek;
position = "{475, -3}";
},
{
name = top;
position = "{256, 660}";
}
);
layerId = "67CA47D2-7D83-49C3-A4CA-636F78AAFD20";
paths = (
{
closed = 1;
nodes = (
"332 660 LINE",
"183 660 LINE",
"0 0 LINE",
"110 0 LINE",
"149 168 LINE",
"345 168 LINE",
"385 0 LINE",
"503 0 LINE"
);
},
{
closed = 1;
nodes = (
"167 242 LINE",
"247 585 LINE",
"328 242 LINE"
);
}
);
width = 503;
},
{
anchors = (
{
name = bottom;
position = "{269, 0}";
},
{
name = ogonek;
position = "{500, -10}";
},
{
name = top;
position = "{272, 660}";
}
);
layerId = "FE90535B-3AA3-425B-8C51-62A09B4DD251";
paths = (
{
closed = 1;
nodes = (
"377 660 LINE",
"178 660 LINE",
"-3 0 LINE",
"117 0 LINE",
"155 163 LINE",
"339 163 LINE",
"378 0 LINE",
"546 0 LINE"
);
},
{
closed = 1;
nodes = (
"173 242 LINE",
"246 562 LINE",
"321 242 LINE"
);
}
);
width = 547;
},
{
anchors = (
{
name = bottom;
position = "{296, 0}";
},
{
name = ogonek;
position = "{535, -16}";
},
{
name = top;
position = "{295, 660}";
}
);
layerId = "7F032AFA-3553-4546-BF24-20A331365DC8";
paths = (
{
closed = 1;
nodes = (
"422 660 LINE",
"173 660 LINE",
"-7 0 LINE",
"123 0 LINE",
"159 158 LINE",
"333 158 LINE",
"369 0 LINE",
"589 0 LINE"
);
},
{
closed = 1;
nodes = (
"178 242 LINE",
"245 538 LINE",
"313 242 LINE"
);
}
);
width = 590;
},
{
anchors = (
{
name = bottom;
position = "{315, 0}";
},
{
name = ogonek;
position = "{560, -23}";
},
{
name = top;
position = "{315, 660}";
}
);
layerId = "BF71592D-3612-466C-93C9-07DC553C6A84";
paths = (
{
closed = 1;
nodes = (
"468 660 LINE",
"168 660 LINE",
"-11 0 LINE",
"130 0 LINE",
"164 153 LINE",
"327 153 LINE",
"362 0 LINE",
"633 0 LINE"
);
},
{
closed = 1;
nodes = (
"184 242 LINE",
"244 514 LINE",
"306 242 LINE"
);
}
);
width = 635;
},
{
anchors = (
{
name = bottom;
position = "{241, 0}";
},
{
name = ogonek;
position = "{467, 0}";
},
{
name = top;
position = "{253, 660}";
}
);
layerId = "98CB3373-E4B4-4DFB-B394-21602E31464B";
paths = (
{
closed = 1;
nodes = (
"316 660 LINE",
"190 660 LINE",
"7 0 LINE",
"112 0 LINE",
"151 170 LINE",
"353 170 LINE",
"393 0 LINE",
"488 0 LINE"
);
},
{
closed = 1;
nodes = (
"169 242 LINE",
"252 596 LINE",
"336 242 LINE"
);
}
);
width = 493;
}
);
leftKerningGroup = A;
note = A;
unicode = 0041;
},
{
glyphname = Aacute;
layers = (
{
background = {
paths = (
{
closed = 1;
nodes = (
"175 753 LINE",
"186 711 LINE",
"305 720 LINE SMOOTH",
"358 724 OFFCURVE",
"416 733 OFFCURVE",
"416 786 CURVE SMOOTH",
"416 806 OFFCURVE",
"404 825 OFFCURVE",
"387 837 CURVE"
);
},
{
closed = 1;
nodes = (
"332 660 LINE",
"183 660 LINE",
"0 0 LINE",
"110 0 LINE",
"149 168 LINE",
"345 168 LINE",
"385 0 LINE",
"503 0 LINE"
);
},
{
closed = 1;
nodes = (
"167 242 LINE",
"247 585 LINE",
"328 242 LINE"
);
}
);
};
components = (
{
name = A;
},
{
name = acutecomb.case;
transform = "{1, 0, 0, 1, 435, 0}";
}
);
layerId = "67CA47D2-7D83-49C3-A4CA-636F78AAFD20";
width = 503;
},
{
background = {
paths = (
{
closed = 1;
nodes = (
"183 767 LINE",
"195 720 LINE",
"327 730 LINE SMOOTH",
"381 734 OFFCURVE",
"446 740 OFFCURVE",
"446 798 CURVE SMOOTH",
"446 821 OFFCURVE",
"432 845 OFFCURVE",
"413 860 CURVE"
);
},
{
closed = 1;
nodes = (
"377 660 LINE",
"178 660 LINE",
"-3 0 LINE",
"117 0 LINE",
"155 163 LINE",
"339 163 LINE",
"378 0 LINE",
"546 0 LINE"
);
},
{
closed = 1;
nodes = (
"173 242 LINE",
"246 562 LINE",
"321 242 LINE"
);
}
);
};
components = (
{
name = A;
},
{
name = acutecomb.case;
transform = "{1, 0, 0, 1, 457, 0}";
}
);
layerId = "FE90535B-3AA3-425B-8C51-62A09B4DD251";
width = 547;
},
{
background = {
paths = (
{
closed = 1;
nodes = (
"191 780 LINE",
"203 729 LINE",
"349 739 LINE SMOOTH",
"404 743 OFFCURVE",
"476 747 OFFCURVE",
"476 808 CURVE SMOOTH",
"476 835 OFFCURVE",
"459 864 OFFCURVE",
"438 882 CURVE"
);
},
{
closed = 1;
nodes = (
"422 660 LINE",
"173 660 LINE",
"-7 0 LINE",
"123 0 LINE",
"159 158 LINE",
"333 158 LINE",
"369 0 LINE",
"589 0 LINE"
);
},
{
closed = 1;
nodes = (
"178 242 LINE",
"245 538 LINE",
"313 242 LINE"
);
}
);
};
components = (
{
name = A;
},
{
name = acutecomb.case;
transform = "{1, 0, 0, 1, 486, 0}";
}
);
layerId = "7F032AFA-3553-4546-BF24-20A331365DC8";
width = 590;
},
{
background = {
paths = (
{
closed = 1;
nodes = (
"195 765 LINE",
"208 709 LINE",
"367 720 LINE SMOOTH",
"423 724 OFFCURVE",
"503 725 OFFCURVE",
"503 791 CURVE SMOOTH",
"503 821 OFFCURVE",
"483 856 OFFCURVE",
"459 876 CURVE"
);
},
{
closed = 1;
nodes = (
"468 660 LINE",
"168 660 LINE",
"-11 0 LINE",
"130 0 LINE",
"164 153 LINE",
"327 153 LINE",
"362 0 LINE",
"633 0 LINE"
);
},
{
closed = 1;
nodes = (
"184 242 LINE",
"244 514 LINE",
"306 242 LINE"
);
}
);
};
components = (
{
name = A;
},
{
name = acutecomb.case;
transform = "{1, 0, 0, 1, 516, 0}";
}
);
layerId = "BF71592D-3612-466C-93C9-07DC553C6A84";
width = 635;
},
{
components = (
{
name = A;
},
{
name = acutecomb.case;
transform = "{1, 0, 0, 1, 429, 0}";
}
);
layerId = "98CB3373-E4B4-4DFB-B394-21602E31464B";
width = 493;
}
);
leftKerningGroup = A;
note = Aacute;
unicode = 00C1;
},
{
glyphname = AE;
layers = (
{
anchors = (
{
name = top;
position = "{421, 660}";
}
);
layerId = "67CA47D2-7D83-49C3-A4CA-636F78AAFD20";
paths = (
{
closed = 1;
nodes = (
"676 660 LINE",
"301 660 LINE",
"0 0 LINE",
"110 0 LINE",
"180 168 LINE",
"356 168 LINE",
"356 0 LINE",
"683 0 LINE",
"690 74 LINE",
"473 74 LINE",
"473 302 LINE",
"646 302 LINE",
"646 376 LINE",
"473 376 LINE",
"473 586 LINE",
"676 586 LINE"
);
},
{
closed = 1;
nodes = (
"356 586 LINE",
"356 242 LINE",
"211 242 LINE"
);
}
);
width = 719;
},
{
anchors = (
{
name = top;
position = "{443, 660}";
}
);
layerId = "FE90535B-3AA3-425B-8C51-62A09B4DD251";
paths = (
{
closed = 1;
nodes = (
"702 660 LINE",
"292 660 LINE",
"-3 0 LINE",
"123 0 LINE",
"190 163 LINE",
"356 163 LINE",
"356 0 LINE",
"709 0 LINE",
"717 79 LINE",
"522 79 LINE",
"522 299 LINE",
"672 299 LINE",
"672 379 LINE",
"522 379 LINE",
"522 581 LINE",
"702 581 LINE"
);
},
{
closed = 1;
nodes = (
"357 572 LINE",
"357 242 LINE",
"223 242 LINE"
);
}
);
width = 731;
},
{
anchors = (
{
name = top;
position = "{453, 660}";
}
);
layerId = "7F032AFA-3553-4546-BF24-20A331365DC8";
paths = (
{
closed = 1;
nodes = (
"727 660 LINE",
"283 660 LINE",
"-7 0 LINE",
"134 0 LINE",
"198 158 LINE",
"356 158 LINE",
"356 0 LINE",
"734 0 LINE",
"742 84 LINE",
"570 84 LINE",
"570 297 LINE",
"697 297 LINE",
"697 381 LINE",
"570 381 LINE",
"570 576 LINE",
"727 576 LINE"
);
},
{
closed = 1;
nodes = (
"356 558 LINE",
"356 242 LINE",
"232 242 LINE"
);
}
);
width = 742;
},
{
anchors = (
{
name = top;
position = "{472, 660}";
}
);
layerId = "BF71592D-3612-466C-93C9-07DC553C6A84";
paths = (
{
closed = 1;
nodes = (
"752 660 LINE",
"273 660 LINE",
"-11 0 LINE",
"146 0 LINE",
"206 153 LINE",
"355 153 LINE",
"355 0 LINE",
"759 0 LINE",
"767 89 LINE",
"619 89 LINE",
"619 294 LINE",
"722 294 LINE",
"722 384 LINE",
"619 384 LINE",
"619 571 LINE",
"752 571 LINE"
);
},
{
closed = 1;
nodes = (
"355 544 LINE",
"355 242 LINE",
"242 242 LINE"
);
}
);
width = 753;
},
{
anchors = (
{
name = top;
position = "{418, 660}";
}
);
layerId = "98CB3373-E4B4-4DFB-B394-21602E31464B";
paths = (
{
closed = 1;
nodes = (
"669 660 LINE",
"311 660 LINE",
"7 0 LINE",
"110 0 LINE",
"181 170 LINE",
"361 170 LINE",
"361 0 LINE",
"676 0 LINE",
"683 72 LINE",
"456 72 LINE",
"456 303 LINE",
"639 303 LINE",
"639 375 LINE",
"456 375 LINE",
"456 588 LINE",
"669 588 LINE"
);
},
{
closed = 1;
nodes = (
"361 593 LINE",
"361 242 LINE",
"211 242 LINE"
);
}
);
width = 724;
}
);
leftMetricsKey = A;
note = AE;
rightMetricsKey = E;
unicode = 00C6;
},
{
glyphname = B;
layers = (
{
layerId = "67CA47D2-7D83-49C3-A4CA-636F78AAFD20";
paths = (
{
closed = 1;
nodes = (
"465 631 OFFCURVE",
"371 664 OFFCURVE",
"248 664 CURVE SMOOTH",
"189 664 OFFCURVE",
"119 660 OFFCURVE",
"60 656 CURVE",
"60 5 LINE",
"120 -4 OFFCURVE",
"183 -10 OFFCURVE",
"244 -10 CURVE SMOOTH",
"383 -10 OFFCURVE",
"513 54 OFFCURVE",
"513 193 CURVE SMOOTH",
"513 284 OFFCURVE",
"466 351 OFFCURVE",
"376 369 CURVE",
"427 397 OFFCURVE",
"465 450 OFFCURVE",
"465 508 CURVE SMOOTH"
);
},
{
closed = 1;
nodes = (
"177 589 LINE",
"197 592 OFFCURVE",
"221 594 OFFCURVE",
"241 594 CURVE SMOOTH",
"308 594 OFFCURVE",
"345 565 OFFCURVE",
"345 498 CURVE SMOOTH",
"345 420 OFFCURVE",
"306 386 OFFCURVE",
"228 386 CURVE SMOOTH",
"213 386 OFFCURVE",
"192 387 OFFCURVE",
"177 389 CURVE"
);
},
{
closed = 1;
nodes = (
"177 315 LINE",
"189 317 OFFCURVE",
"210 318 OFFCURVE",
"222 318 CURVE SMOOTH",
"328 318 OFFCURVE",
"389 296 OFFCURVE",
"389 190 CURVE SMOOTH",
"389 99 OFFCURVE",
"334 60 OFFCURVE",
"244 60 CURVE SMOOTH",
"220 60 OFFCURVE",
"201 62 OFFCURVE",
"177 66 CURVE"
);
}
);
width = 540;
},
{
layerId = "FE90535B-3AA3-425B-8C51-62A09B4DD251";
paths = (
{
closed = 1;
nodes = (
"511 636 OFFCURVE",
"404 665 OFFCURVE",
"277 665 CURVE SMOOTH",
"207 665 OFFCURVE",
"125 660 OFFCURVE",
"55 654 CURVE",
"55 4 LINE",
"129 -5 OFFCURVE",
"200 -10 OFFCURVE",
"273 -10 CURVE SMOOTH",
"418 -10 OFFCURVE",
"562 48 OFFCURVE",
"562 193 CURVE SMOOTH",
"562 290 OFFCURVE",
"507 353 OFFCURVE",
"411 371 CURVE",
"469 394 OFFCURVE",
"511 446 OFFCURVE",
"511 508 CURVE SMOOTH"
);
},
{
closed = 1;
nodes = (
"221 587 LINE",
"238 590 OFFCURVE",
"257 592 OFFCURVE",
"274 592 CURVE SMOOTH",
"335 592 OFFCURVE",
"365 560 OFFCURVE",
"365 498 CURVE SMOOTH",
"365 426 OFFCURVE",
"332 385 OFFCURVE",
"260 385 CURVE SMOOTH",
"248 385 OFFCURVE",
"233 386 OFFCURVE",
"221 388 CURVE"
);
},
{
closed = 1;
nodes = (
"221 316 LINE",
"231 317 OFFCURVE",
"247 318 OFFCURVE",
"257 318 CURVE SMOOTH",
"350 318 OFFCURVE",
"395 283 OFFCURVE",
"395 190 CURVE SMOOTH",
"395 109 OFFCURVE",
"356 62 OFFCURVE",
"275 62 CURVE SMOOTH",
"257 62 OFFCURVE",
"239 64 OFFCURVE",
"221 68 CURVE"
);
}
);
width = 582;
},
{
layerId = "7F032AFA-3553-4546-BF24-20A331365DC8";
paths = (
{
closed = 1;
nodes = (
"557 640 OFFCURVE",
"438 665 OFFCURVE",
"306 665 CURVE SMOOTH",
"225 665 OFFCURVE",
"130 660 OFFCURVE",
"50 653 CURVE",
"50 4 LINE",
"139 -5 OFFCURVE",
"218 -10 OFFCURVE",
"302 -10 CURVE SMOOTH",
"453 -10 OFFCURVE",
"610 42 OFFCURVE",
"610 193 CURVE SMOOTH",
"610 296 OFFCURVE",
"548 355 OFFCURVE",
"446 373 CURVE",
"510 392 OFFCURVE",
"557 442 OFFCURVE",
"557 508 CURVE SMOOTH"
);
},
{
closed = 1;
nodes = (
"264 585 LINE",
"278 589 OFFCURVE",
"292 591 OFFCURVE",
"305 591 CURVE SMOOTH",
"362 591 OFFCURVE",
"383 555 OFFCURVE",
"383 498 CURVE SMOOTH",
"383 432 OFFCURVE",
"357 385 OFFCURVE",
"291 385 CURVE SMOOTH",
"283 385 OFFCURVE",
"273 386 OFFCURVE",
"264 388 CURVE"
);
},
{
closed = 1;
nodes = (
"264 316 LINE",
"273 317 OFFCURVE",
"283 318 OFFCURVE",
"292 318 CURVE SMOOTH",
"372 318 OFFCURVE",
"400 270 OFFCURVE",
"400 190 CURVE SMOOTH",
"400 119 OFFCURVE",
"376 64 OFFCURVE",
"305 64 CURVE SMOOTH",
"293 64 OFFCURVE",
"277 66 OFFCURVE",
"264 70 CURVE"
);
}
);
width = 624;
},
{
layerId = "BF71592D-3612-466C-93C9-07DC553C6A84";
paths = (
{
closed = 1;
nodes = (
"604 645 OFFCURVE",
"472 666 OFFCURVE",
"335 666 CURVE SMOOTH",
"243 666 OFFCURVE",
"136 660 OFFCURVE",
"45 651 CURVE",
"45 3 LINE",
"148 -6 OFFCURVE",
"236 -10 OFFCURVE",
"331 -10 CURVE SMOOTH",
"488 -10 OFFCURVE",
"660 36 OFFCURVE",
"660 193 CURVE SMOOTH",
"660 302 OFFCURVE",
"590 357 OFFCURVE",
"481 375 CURVE",
"552 389 OFFCURVE",
"604 438 OFFCURVE",
"604 508 CURVE SMOOTH"
);
},
{
closed = 1;
nodes = (
"309 583 LINE",
"319 587 OFFCURVE",
"328 589 OFFCURVE",
"339 589 CURVE SMOOTH",
"390 589 OFFCURVE",
"402 550 OFFCURVE",
"402 498 CURVE SMOOTH",
"402 438 OFFCURVE",
"384 384 OFFCURVE",
"324 384 CURVE SMOOTH",
"318 384 OFFCURVE",
"314 385 OFFCURVE",
"309 387 CURVE"
);
},
{
closed = 1;
nodes = (
"309 317 LINE",
"316 317 OFFCURVE",
"320 318 OFFCURVE",
"327 318 CURVE SMOOTH",
"395 318 OFFCURVE",
"406 257 OFFCURVE",
"406 190 CURVE SMOOTH",
"406 130 OFFCURVE",
"397 66 OFFCURVE",
"337 66 CURVE SMOOTH",
"330 66 OFFCURVE",
"316 68 OFFCURVE",
"309 72 CURVE"
);
}
);
width = 667;
},
{
layerId = "98CB3373-E4B4-4DFB-B394-21602E31464B";
paths = (
{
closed = 1;
nodes = (
"449 629 OFFCURVE",
"361 664 OFFCURVE",
"240 664 CURVE SMOOTH",
"186 664 OFFCURVE",
"121 660 OFFCURVE",
"67 657 CURVE",
"67 5 LINE",
"121 -4 OFFCURVE",
"180 -10 OFFCURVE",
"236 -10 CURVE SMOOTH",
"372 -10 OFFCURVE",
"495 57 OFFCURVE",
"495 193 CURVE SMOOTH",
"495 281 OFFCURVE",
"452 350 OFFCURVE",
"365 368 CURVE",
"413 398 OFFCURVE",
"449 452 OFFCURVE",
"449 508 CURVE SMOOTH"
);
},
{
closed = 1;
nodes = (
"162 590 LINE",
"183 593 OFFCURVE",
"209 595 OFFCURVE",
"231 595 CURVE SMOOTH",
"300 595 OFFCURVE",
"341 567 OFFCURVE",
"341 498 CURVE SMOOTH",
"341 417 OFFCURVE",
"299 386 OFFCURVE",
"218 386 CURVE SMOOTH",
"202 386 OFFCURVE",
"178 387 OFFCURVE",
"162 389 CURVE"
);
},
{
closed = 1;
nodes = (
"162 315 LINE",
"174 317 OFFCURVE",
"198 318 OFFCURVE",
"211 318 CURVE SMOOTH",
"323 318 OFFCURVE",
"391 302 OFFCURVE",
"391 190 CURVE SMOOTH",
"391 94 OFFCURVE",
"329 59 OFFCURVE",
"235 59 CURVE SMOOTH",
"208 59 OFFCURVE",
"188 61 OFFCURVE",
"162 65 CURVE"
);
}
);
width = 530;
}
);
note = B;
unicode = 0042;
},
{
glyphname = C;
layers = (
{
anchors = (
{
name = bottom;
position = "{262, 0}";
},
{
name = top;
position = "{279, 660}";
}
);
background = {
paths = (
{
closed = 1;
nodes = (
"342 610 OFFCURVE",
"366 576 OFFCURVE",
"366 519 CURVE SMOOTH",
"366 505 OFFCURVE",
"363 483 OFFCURVE",
"358 469 CURVE",
"371 457 OFFCURVE",
"393 453 OFFCURVE",
"410 453 CURVE SMOOTH",
"457 453 OFFCURVE",
"487 487 OFFCURVE",
"487 534 CURVE SMOOTH",
"487 642 OFFCURVE",
"402 680 OFFCURVE",
"294 680 CURVE SMOOTH",
"99 680 OFFCURVE",
"34 521 OFFCURVE",
"34 327 CURVE SMOOTH",
"34 132 OFFCURVE",
"91 -22 OFFCURVE",
"285 -22 CURVE SMOOTH",
"379 -22 OFFCURVE",
"476 26 OFFCURVE",
"476 120 CURVE SMOOTH",
"476 150 OFFCURVE",
"466 170 OFFCURVE",
"437 179 CURVE",
"416 112 OFFCURVE",
"366 70 OFFCURVE",
"295 70 CURVE SMOOTH",
"172 70 OFFCURVE",
"160 209 OFFCURVE",
"160 332 CURVE SMOOTH",
"160 447 OFFCURVE",
"170 610 OFFCURVE",
"285 610 CURVE SMOOTH"
);
}
);
};
layerId = "67CA47D2-7D83-49C3-A4CA-636F78AAFD20";
paths = (
{
closed = 1;
nodes = (
"342 610 OFFCURVE",
"366 569 OFFCURVE",
"366 512 CURVE SMOOTH",
"366 498 OFFCURVE",
"363 476 OFFCURVE",
"358 462 CURVE",
"371 450 OFFCURVE",
"393 446 OFFCURVE",
"410 446 CURVE SMOOTH",
"457 446 OFFCURVE",
"487 488 OFFCURVE",
"487 537 CURVE SMOOTH",
"487 602 OFFCURVE",
"432 680 OFFCURVE",
"294 680 CURVE SMOOTH",
"104 680 OFFCURVE",
"34 516 OFFCURVE",
"34 327 CURVE SMOOTH",
"34 132 OFFCURVE",
"91 -22 OFFCURVE",
"285 -22 CURVE SMOOTH",
"379 -22 OFFCURVE",
"476 26 OFFCURVE",
"476 120 CURVE SMOOTH",
"476 150 OFFCURVE",
"466 170 OFFCURVE",
"437 179 CURVE",
"416 112 OFFCURVE",
"366 70 OFFCURVE",
"295 70 CURVE SMOOTH",
"172 70 OFFCURVE",
"160 209 OFFCURVE",
"160 332 CURVE SMOOTH",
"160 442 OFFCURVE",
"175 610 OFFCURVE",
"285 610 CURVE SMOOTH"
);
}
);
width = 512;
},
{
anchors = (
{
name = bottom;
position = "{289, 0}";
},
{
name = top;
position = "{309, 660}";
}
);
background = {
paths = (
{
closed = 1;
nodes = (
"367 608 OFFCURVE",
"384 563 OFFCURVE",
"384 506 CURVE SMOOTH",
"384 489 OFFCURVE",
"381 471 OFFCURVE",
"377 453 CURVE",
"391 445 OFFCURVE",
"413 442 OFFCURVE",
"429 442 CURVE SMOOTH",
"487 442 OFFCURVE",
"530 480 OFFCURVE",
"530 540 CURVE SMOOTH",
"530 647 OFFCURVE",
"429 680 OFFCURVE",
"322 680 CURVE SMOOTH",
"113 680 OFFCURVE",
"27 535 OFFCURVE",
"27 326 CURVE SMOOTH",
"27 132 OFFCURVE",
"103 -22 OFFCURVE",
"314 -22 CURVE SMOOTH",
"416 -22 OFFCURVE",
"526 27 OFFCURVE",
"526 128 CURVE SMOOTH",
"526 159 OFFCURVE",
"514 181 OFFCURVE",
"487 194 CURVE",
"461 133 OFFCURVE",
"414 97 OFFCURVE",
"348 97 CURVE SMOOTH",
"228 97 OFFCURVE",
"205 218 OFFCURVE",
"205 349 CURVE SMOOTH",
"205 447 OFFCURVE",
"212 608 OFFCURVE",
"310 608 CURVE SMOOTH"
);
}
);
};
layerId = "FE90535B-3AA3-425B-8C51-62A09B4DD251";
paths = (
{
closed = 1;
nodes = (
"367 608 OFFCURVE",
"384 553 OFFCURVE",
"384 496 CURVE SMOOTH",
"384 479 OFFCURVE",
"381 461 OFFCURVE",
"377 443 CURVE",
"391 435 OFFCURVE",
"413 432 OFFCURVE",
"429 432 CURVE SMOOTH",
"494 432 OFFCURVE",
"530 477 OFFCURVE",
"530 529 CURVE SMOOTH",
"530 599 OFFCURVE",
"466 680 OFFCURVE",
"322 680 CURVE SMOOTH",
"118 680 OFFCURVE",
"27 530 OFFCURVE",
"27 326 CURVE SMOOTH",
"27 132 OFFCURVE",
"103 -22 OFFCURVE",
"314 -22 CURVE SMOOTH",
"416 -22 OFFCURVE",
"526 27 OFFCURVE",
"526 128 CURVE SMOOTH",
"526 159 OFFCURVE",
"514 181 OFFCURVE",
"487 194 CURVE",
"461 133 OFFCURVE",
"414 97 OFFCURVE",
"348 97 CURVE SMOOTH",
"228 97 OFFCURVE",
"205 218 OFFCURVE",
"205 349 CURVE SMOOTH",
"205 442 OFFCURVE",
"217 608 OFFCURVE",
"310 608 CURVE SMOOTH"
);
}
);
width = 550;
},
{
anchors = (
{
name = bottom;
position = "{302, 0}";
},
{
name = top;
position = "{329, 660}";
}
);
background = {
paths = (
{
closed = 1;
nodes = (
"393 606 OFFCURVE",
"402 550 OFFCURVE",
"402 493 CURVE SMOOTH",
"402 473 OFFCURVE",
"400 458 OFFCURVE",
"396 438 CURVE",
"412 433 OFFCURVE",
"433 432 OFFCURVE",
"448 432 CURVE SMOOTH",
"517 432 OFFCURVE",
"573 473 OFFCURVE",
"573 545 CURVE SMOOTH",
"573 652 OFFCURVE",
"457 680 OFFCURVE",
"350 680 CURVE SMOOTH",
"127 680 OFFCURVE",
"20 549 OFFCURVE",
"20 326 CURVE SMOOTH",
"20 132 OFFCURVE",
"115 -22 OFFCURVE",
"344 -22 CURVE SMOOTH",
"452 -22 OFFCURVE",
"576 28 OFFCURVE",
"576 136 CURVE SMOOTH",
"576 167 OFFCURVE",
"563 193 OFFCURVE",
"537 209 CURVE",
"505 155 OFFCURVE",
"463 125 OFFCURVE",
"401 125 CURVE SMOOTH",
"284 125 OFFCURVE",
"250 227 OFFCURVE",
"250 365 CURVE SMOOTH",
"250 447 OFFCURVE",
"253 606 OFFCURVE",
"336 606 CURVE SMOOTH"
);
}
);
};
layerId = "7F032AFA-3553-4546-BF24-20A331365DC8";
paths = (
{
closed = 1;
nodes = (
"393 606 OFFCURVE",
"402 540 OFFCURVE",
"402 483 CURVE SMOOTH",
"402 463 OFFCURVE",
"400 448 OFFCURVE",
"396 428 CURVE",
"412 423 OFFCURVE",
"433 422 OFFCURVE",
"448 422 CURVE SMOOTH",
"529 422 OFFCURVE",
"573 473 OFFCURVE",
"573 529 CURVE SMOOTH",
"573 600 OFFCURVE",
"503 680 OFFCURVE",
"350 680 CURVE SMOOTH",
"132 680 OFFCURVE",
"20 544 OFFCURVE",
"20 326 CURVE SMOOTH",
"20 132 OFFCURVE",
"115 -22 OFFCURVE",
"344 -22 CURVE SMOOTH",
"452 -22 OFFCURVE",
"576 28 OFFCURVE",
"576 136 CURVE SMOOTH",
"576 167 OFFCURVE",
"563 193 OFFCURVE",
"537 209 CURVE",
"505 155 OFFCURVE",
"463 125 OFFCURVE",
"401 125 CURVE SMOOTH",
"284 125 OFFCURVE",
"250 227 OFFCURVE",
"250 365 CURVE SMOOTH",
"250 442 OFFCURVE",
"258 606 OFFCURVE",
"336 606 CURVE SMOOTH"
);
}
);
width = 589;
},
{
anchors = (
{
name = bottom;
position = "{322, 0}";
},
{
name = top;
position = "{346, 660}";
}
);
background = {
paths = (
{
closed = 1;
nodes = (
"418 604 OFFCURVE",
"420 537 OFFCURVE",
"420 480 CURVE SMOOTH",
"420 457 OFFCURVE",
"419 446 OFFCURVE",
"416 423 CURVE",
"433 422 OFFCURVE",
"454 421 OFFCURVE",
"468 421 CURVE SMOOTH",
"547 421 OFFCURVE",
"617 465 OFFCURVE",
"617 551 CURVE SMOOTH",
"617 657 OFFCURVE",
"484 680 OFFCURVE",
"378 680 CURVE SMOOTH",
"141 680 OFFCURVE",
"12 563 OFFCURVE",
"12 325 CURVE SMOOTH",
"12 132 OFFCURVE",
"126 -22 OFFCURVE",
"373 -22 CURVE SMOOTH",
"489 -22 OFFCURVE",
"626 29 OFFCURVE",
"626 145 CURVE SMOOTH",
"626 176 OFFCURVE",
"611 204 OFFCURVE",
"587 224 CURVE",
"551 177 OFFCURVE",
"511 154 OFFCURVE",
"454 154 CURVE SMOOTH",
"341 154 OFFCURVE",
"296 237 OFFCURVE",
"296 381 CURVE SMOOTH",
"296 447 OFFCURVE",
"295 604 OFFCURVE",
"361 604 CURVE SMOOTH"
);
}
);
};
layerId = "BF71592D-3612-466C-93C9-07DC553C6A84";
paths = (
{
closed = 1;
nodes = (
"408 604 OFFCURVE",
"420 563 OFFCURVE",
"420 498 CURVE SMOOTH",
"420 473 OFFCURVE",
"418 444 OFFCURVE",
"416 413 CURVE",
"433 409 OFFCURVE",
"451 407 OFFCURVE",
"469 407 CURVE SMOOTH",
"544 407 OFFCURVE",
"617 443 OFFCURVE",
"617 528 CURVE SMOOTH",
"617 600 OFFCURVE",
"542 680 OFFCURVE",
"378 680 CURVE SMOOTH",
"146 680 OFFCURVE",
"12 558 OFFCURVE",
"12 325 CURVE SMOOTH",
"12 132 OFFCURVE",
"126 -22 OFFCURVE",
"373 -22 CURVE SMOOTH",
"489 -22 OFFCURVE",
"626 29 OFFCURVE",
"626 145 CURVE SMOOTH",
"626 176 OFFCURVE",
"611 204 OFFCURVE",
"587 224 CURVE",
"551 177 OFFCURVE",
"511 154 OFFCURVE",
"454 154 CURVE SMOOTH",
"341 154 OFFCURVE",
"296 237 OFFCURVE",
"296 381 CURVE SMOOTH",
"296 442 OFFCURVE",
"298 604 OFFCURVE",
"366 604 CURVE SMOOTH"
);
}
);
width = 628;
},
{
anchors = (
{
name = bottom;
position = "{256, 0}";
},
{
name = top;
position = "{271, 660}";
}
);
layerId = "98CB3373-E4B4-4DFB-B394-21602E31464B";
paths = (
{
closed = 1;
nodes = (
"335 611 OFFCURVE",
"363 576 OFFCURVE",
"363 519 CURVE SMOOTH",
"363 506 OFFCURVE",
"360 483 OFFCURVE",
"354 470 CURVE",
"367 457 OFFCURVE",
"389 452 OFFCURVE",
"406 452 CURVE SMOOTH",
"445 452 OFFCURVE",
"472 492 OFFCURVE",
"472 540 CURVE SMOOTH",
"472 603 OFFCURVE",
"421 680 OFFCURVE",
"286 680 CURVE SMOOTH",
"102 680 OFFCURVE",
"42 509 OFFCURVE",
"42 327 CURVE SMOOTH",
"42 132 OFFCURVE",
"90 -22 OFFCURVE",
"276 -22 CURVE SMOOTH",
"367 -22 OFFCURVE",
"458 26 OFFCURVE",
"458 116 CURVE SMOOTH",
"458 146 OFFCURVE",
"449 165 OFFCURVE",
"419 172 CURVE",
"400 102 OFFCURVE",
"349 57 OFFCURVE",
"275 57 CURVE SMOOTH",
"151 57 OFFCURVE",
"144 205 OFFCURVE",
"144 324 CURVE SMOOTH",
"144 442 OFFCURVE",
"161 611 OFFCURVE",
"278 611 CURVE SMOOTH"
);
}
);
width = 504;
}
);
note = C;
unicode = 0043;
},
{
glyphname = D;
layers = (
{
anchors = (
{
name = center;
position = "{155, 330}";
},
{
name = top;
position = "{279, 660}";
}
);
layerId = "67CA47D2-7D83-49C3-A4CA-636F78AAFD20";
paths = (
{
closed = 1;
nodes = (
"60 5 LINE",
"120 -4 OFFCURVE",
"183 -10 OFFCURVE",
"244 -10 CURVE SMOOTH",
"455 -10 OFFCURVE",
"530 135 OFFCURVE",
"530 346 CURVE SMOOTH",
"530 537 OFFCURVE",
"459 664 OFFCURVE",
"268 664 CURVE SMOOTH",
"208 664 OFFCURVE",
"119 660 OFFCURVE",
"60 656 CURVE"
);
},
{
closed = 1;
nodes = (
"220 60 OFFCURVE",
"201 62 OFFCURVE",
"177 66 CURVE",
"177 589 LINE",
"205 592 OFFCURVE",
"233 594 OFFCURVE",
"261 594 CURVE SMOOTH",
"386 594 OFFCURVE",
"408 458 OFFCURVE",
"408 332 CURVE SMOOTH",
"408 183 OFFCURVE",
"392 60 OFFCURVE",
"244 60 CURVE SMOOTH"
);
}
);
width = 564;
},
{
anchors = (
{
name = center;
position = "{174, 330}";
},
{
name = top;
position = "{290, 660}";
}
);
layerId = "FE90535B-3AA3-425B-8C51-62A09B4DD251";
paths = (
{
closed = 1;
nodes = (
"55 4 LINE",
"129 -5 OFFCURVE",
"200 -10 OFFCURVE",
"273 -10 CURVE SMOOTH",
"491 -10 OFFCURVE",
"588 124 OFFCURVE",
"588 342 CURVE SMOOTH",
"588 549 OFFCURVE",
"499 665 OFFCURVE",
"292 665 CURVE SMOOTH",
"222 665 OFFCURVE",
"125 660 OFFCURVE",
"55 654 CURVE"
);
},
{
closed = 1;
nodes = (
"259 62 OFFCURVE",
"242 64 OFFCURVE",
"221 69 CURVE",
"221 586 LINE",
"245 590 OFFCURVE",
"264 592 OFFCURVE",
"288 592 CURVE SMOOTH",
"395 592 OFFCURVE",
"412 456 OFFCURVE",
"412 333 CURVE SMOOTH",
"412 198 OFFCURVE",
"398 62 OFFCURVE",
"280 62 CURVE SMOOTH"
);
}
);
width = 614;
},
{
anchors = (
{
name = center;
position = "{176, 330}";
},
{
name = top;
position = "{329, 660}";
}
);
layerId = "7F032AFA-3553-4546-BF24-20A331365DC8";
paths = (
{
closed = 1;
nodes = (
"50 4 LINE",
"139 -5 OFFCURVE",
"218 -10 OFFCURVE",
"302 -10 CURVE SMOOTH",
"528 -10 OFFCURVE",
"645 112 OFFCURVE",
"645 339 CURVE SMOOTH",
"645 562 OFFCURVE",
"538 665 OFFCURVE",
"315 665 CURVE SMOOTH",
"235 665 OFFCURVE",
"130 660 OFFCURVE",
"50 653 CURVE"
);
},
{
closed = 1;
nodes = (
"298 64 OFFCURVE",
"282 66 OFFCURVE",
"264 71 CURVE",
"264 583 LINE",
"285 589 OFFCURVE",
"294 591 OFFCURVE",
"315 591 CURVE SMOOTH",
"402 591 OFFCURVE",
"414 454 OFFCURVE",
"414 333 CURVE SMOOTH",
"414 213 OFFCURVE",
"402 64 OFFCURVE",
"316 64 CURVE SMOOTH"
);
}
);
width = 664;
},
{
anchors = (
{
name = center;
position = "{190, 330}";
},
{
name = top;
position = "{353, 660}";
}
);
layerId = "BF71592D-3612-466C-93C9-07DC553C6A84";
paths = (
{
closed = 1;
nodes = (
"45 3 LINE",
"148 -6 OFFCURVE",
"236 -10 OFFCURVE",
"331 -10 CURVE SMOOTH",
"565 -10 OFFCURVE",
"703 101 OFFCURVE",
"703 335 CURVE SMOOTH",
"703 574 OFFCURVE",
"578 666 OFFCURVE",
"339 666 CURVE SMOOTH",
"248 666 OFFCURVE",
"136 660 OFFCURVE",
"45 651 CURVE"
);
},
{
closed = 1;
nodes = (
"338 66 OFFCURVE",
"323 68 OFFCURVE",
"309 74 CURVE",
"309 580 LINE",
"326 587 OFFCURVE",
"326 589 OFFCURVE",
"343 589 CURVE SMOOTH",
"411 589 OFFCURVE",
"417 452 OFFCURVE",
"417 334 CURVE SMOOTH",
"417 228 OFFCURVE",
"407 66 OFFCURVE",
"352 66 CURVE SMOOTH"
);
}
);
width = 716;
},
{
anchors = (
{
name = center;
position = "{153, 330}";
},
{
name = top;
position = "{276, 660}";
}
);
layerId = "98CB3373-E4B4-4DFB-B394-21602E31464B";
paths = (
{
closed = 1;
nodes = (
"67 5 LINE",
"121 -4 OFFCURVE",
"180 -10 OFFCURVE",
"236 -10 CURVE SMOOTH",
"443 -10 OFFCURVE",
"508 140 OFFCURVE",
"508 348 CURVE SMOOTH",
"508 531 OFFCURVE",
"446 664 OFFCURVE",
"262 664 CURVE SMOOTH",
"207 664 OFFCURVE",
"121 660 OFFCURVE",
"67 657 CURVE"
);
},
{
closed = 1;
nodes = (
"207 59 OFFCURVE",
"187 61 OFFCURVE",
"162 65 CURVE",
"162 590 LINE",
"191 593 OFFCURVE",
"224 595 OFFCURVE",
"253 595 CURVE SMOOTH",
"387 595 OFFCURVE",
"411 459 OFFCURVE",
"411 332 CURVE SMOOTH",
"411 176 OFFCURVE",
"394 59 OFFCURVE",
"232 59 CURVE SMOOTH"
);
}
);
width = 551;
}
);
note = D;
unicode = 0044;
},
{
glyphname = E;
layers = (
{
anchors = (
{
name = bottom;
position = "{235, 0}";
},
{
name = ogonek;
position = "{374, -3}";
},
{
name = top;
position = "{238, 666}";
}
);
layerId = "67CA47D2-7D83-49C3-A4CA-636F78AAFD20";
paths = (
{
closed = 1;
nodes = (
"395 660 LINE",
"60 660 LINE",
"60 0 LINE",
"402 0 LINE",
"409 74 LINE",
"177 74 LINE",
"177 302 LINE",
"365 302 LINE",
"365 376 LINE",
"177 376 LINE",
"177 586 LINE",
"395 586 LINE"
);
}
);
width = 438;
},
{
anchors = (
{
name = bottom;
position = "{253, 0}";
},
{
name = ogonek;
position = "{379, -10}";
},
{
name = top;
position = "{241, 660}";
}
);
layerId = "FE90535B-3AA3-425B-8C51-62A09B4DD251";
paths = (
{
closed = 1;
nodes = (
"418 660 LINE",
"55 660 LINE",
"55 0 LINE",
"425 0 LINE",
"433 79 LINE",
"221 79 LINE",
"221 299 LINE",
"388 299 LINE",
"388 379 LINE",
"221 379 LINE",
"221 581 LINE",
"418 581 LINE"
);
}
);
width = 447;
},
{
anchors = (
{
name = bottom;
position = "{253, 0}";
},
{
name = ogonek;
position = "{394, -16}";
},
{
name = top;
position = "{247, 660}";
}
);
layerId = "7F032AFA-3553-4546-BF24-20A331365DC8";
paths = (
{
closed = 1;
nodes = (
"441 660 LINE",
"50 660 LINE",
"50 0 LINE",
"448 0 LINE",
"456 84 LINE",
"264 84 LINE",
"264 297 LINE",
"411 297 LINE",
"411 381 LINE",
"264 381 LINE",
"264 576 LINE",
"441 576 LINE"
);
}
);
width = 456;
},
{
anchors = (
{
name = bottom;
position = "{251, 0}";
},
{
name = ogonek;
position = "{399, -23}";
},
{
name = top;
position = "{253, 660}";
}
);
layerId = "BF71592D-3612-466C-93C9-07DC553C6A84";
paths = (
{
closed = 1;
nodes = (
"465 660 LINE",
"45 660 LINE",
"45 0 LINE",
"472 0 LINE",
"480 89 LINE",
"309 89 LINE",
"309 294 LINE",
"435 294 LINE",
"435 384 LINE",
"309 384 LINE",
"309 571 LINE",
"465 571 LINE"
);
}
);
width = 466;
},
{
anchors = (
{
name = bottom;
position = "{234, 0}";
},
{
name = ogonek;
position = "{376, 0}";
},
{
name = top;
position = "{241, 668}";
}
);
layerId = "98CB3373-E4B4-4DFB-B394-21602E31464B";
paths = (
{
closed = 1;
nodes = (
"389 660 LINE",
"67 660 LINE",
"67 0 LINE",
"396 0 LINE",
"403 72 LINE",
"162 72 LINE",
"162 303 LINE",
"359 303 LINE",
"359 375 LINE",
"162 375 LINE",
"162 588 LINE",
"389 588 LINE"
);
}
);
width = 444;
}
);
note = E;
unicode = 0045;
},
{
glyphname = F;
layers = (
{
layerId = "67CA47D2-7D83-49C3-A4CA-636F78AAFD20";
paths = (
{
closed = 1;
nodes = (
"395 660 LINE",
"60 660 LINE",
"60 0 LINE",
"177 0 LINE",
"177 288 LINE",
"365 288 LINE",
"365 362 LINE",
"177 362 LINE",
"177 586 LINE",
"395 586 LINE"
);
}
);
width = 417;
},
{
layerId = "FE90535B-3AA3-425B-8C51-62A09B4DD251";
paths = (
{
closed = 1;
nodes = (
"418 660 LINE",
"55 660 LINE",
"55 0 LINE",
"221 0 LINE",
"221 285 LINE",
"388 285 LINE",
"388 365 LINE",
"221 365 LINE",
"221 581 LINE",
"418 581 LINE"
);
}
);
width = 429;
},
{
layerId = "7F032AFA-3553-4546-BF24-20A331365DC8";
paths = (
{
closed = 1;
nodes = (
"441 660 LINE",
"50 660 LINE",
"50 0 LINE",
"264 0 LINE",
"264 283 LINE",
"411 283 LINE",
"411 367 LINE",
"264 367 LINE",
"264 576 LINE",
"441 576 LINE"
);
}
);
width = 442;
},
{
layerId = "BF71592D-3612-466C-93C9-07DC553C6A84";
paths = (
{
closed = 1;
nodes = (
"465 660 LINE",
"45 660 LINE",
"45 0 LINE",
"309 0 LINE",
"309 280 LINE",
"435 280 LINE",
"435 370 LINE",
"309 370 LINE",
"309 571 LINE",
"465 571 LINE"
);
}
);
width = 454;
},
{
layerId = "98CB3373-E4B4-4DFB-B394-21602E31464B";
paths = (
{
closed = 1;
nodes = (
"389 660 LINE",
"67 660 LINE",
"67 0 LINE",
"162 0 LINE",
"162 289 LINE",
"359 289 LINE",
"359 361 LINE",
"162 361 LINE",
"162 588 LINE",
"389 588 LINE"
);
}
);
width = 421;
}
);
note = F;
rightKerningGroup = F;
unicode = 0046;
},
{
glyphname = Fhook;
layers = (
{
layerId = "67CA47D2-7D83-49C3-A4CA-636F78AAFD20";
paths = (
{
closed = 1;
nodes = (
"-38 -147 OFFCURVE",
"2 -160 OFFCURVE",
"36 -160 CURVE SMOOTH",
"158 -160 OFFCURVE",
"177 -26 OFFCURVE",
"177 95 CURVE SMOOTH",
"177 288 LINE",
"365 288 LINE",
"365 362 LINE",
"177 362 LINE",
"177 586 LINE",
"395 586 LINE",
"395 660 LINE",
"60 660 LINE",
"60 59 LINE SMOOTH",
"60 -26 OFFCURVE",
"47 -113 OFFCURVE",
"-38 -113 CURVE"
);
}
);
width = 417;
},
{
layerId = "FE90535B-3AA3-425B-8C51-62A09B4DD251";
paths = (
{
closed = 1;
nodes = (
"-29 -163 OFFCURVE",
"20 -176 OFFCURVE",
"60 -176 CURVE SMOOTH",
"194 -176 OFFCURVE",
"220 -46 OFFCURVE",
"220 87 CURVE",
"221 285 LINE",
"388 285 LINE",
"388 365 LINE",
"221 365 LINE",
"221 581 LINE",
"418 581 LINE",
"418 660 LINE",
"55 660 LINE",
"55 55 LINE SMOOTH",
"55 -31 OFFCURVE",
"47 -119 OFFCURVE",
"-39 -124 CURVE"
);
}
);
width = 429;
},
{
layerId = "BF71592D-3612-466C-93C9-07DC553C6A84";
paths = (
{
closed = 1;
nodes = (
"-10 -195 OFFCURVE",
"56 -206 OFFCURVE",
"111 -206 CURVE SMOOTH",
"266 -206 OFFCURVE",
"309 -86 OFFCURVE",
"309 70 CURVE SMOOTH",
"309 280 LINE",
"435 280 LINE",
"435 370 LINE",
"309 370 LINE",
"309 571 LINE",
"465 571 LINE",
"465 660 LINE",
"45 660 LINE",
"45 48 LINE SMOOTH",
"45 -41 OFFCURVE",
"49 -131 OFFCURVE",
"-41 -147 CURVE"
);
}
);
width = 454;
},
{
layerId = "7F032AFA-3553-4546-BF24-20A331365DC8";
paths = (
{
closed = 1;
nodes = (
"-20 -179 OFFCURVE",
"38 -191 OFFCURVE",
"85 -191 CURVE SMOOTH",
"230 -191 OFFCURVE",
"264 -66 OFFCURVE",
"264 79 CURVE SMOOTH",
"264 283 LINE",
"411 283 LINE",
"411 367 LINE",
"264 367 LINE",
"264 576 LINE",
"441 576 LINE",
"441 660 LINE",
"50 660 LINE",
"50 52 LINE SMOOTH",
"50 -36 OFFCURVE",
"48 -125 OFFCURVE",
"-40 -136 CURVE"
);
}
);
width = 442;
},
{
layerId = "98CB3373-E4B4-4DFB-B394-21602E31464B";
paths = (
{
closed = 1;
nodes = (
"-37 -140 OFFCURVE",
"-1 -153 OFFCURVE",
"30 -153 CURVE SMOOTH",
"146 -153 OFFCURVE",
"162 -17 OFFCURVE",
"162 99 CURVE SMOOTH",
"162 289 LINE",
"359 289 LINE",
"359 361 LINE",
"162 361 LINE",
"162 588 LINE",
"389 588 LINE",
"389 660 LINE",
"67 660 LINE",
"67 61 LINE SMOOTH",
"67 -24 OFFCURVE",
"52 -110 OFFCURVE",
"-33 -108 CURVE"
);
}
);
width = 422;
}
);
unicode = 0191;
},
{
glyphname = G;
layers = (
{
anchors = (
{
name = bottom;
position = "{289, 0}";
},
{
name = top;
position = "{286, 660}";
}
);
layerId = "67CA47D2-7D83-49C3-A4CA-636F78AAFD20";
paths = (
{
closed = 1;
nodes = (
"353 610 OFFCURVE",
"383 576 OFFCURVE",
"383 519 CURVE SMOOTH",
"383 505 OFFCURVE",
"380 483 OFFCURVE",
"375 469 CURVE",
"388 457 OFFCURVE",
"410 453 OFFCURVE",
"427 453 CURVE SMOOTH",
"474 453 OFFCURVE",
"504 487 OFFCURVE",
"504 534 CURVE SMOOTH",
"504 642 OFFCURVE",
"413 680 OFFCURVE",
"305 680 CURVE SMOOTH",
"104 680 OFFCURVE",
"34 527 OFFCURVE",
"34 327 CURVE SMOOTH",
"34 125 OFFCURVE",
"97 -22 OFFCURVE",
"298 -22 CURVE SMOOTH",
"355 -22 OFFCURVE",
"441 -8 OFFCURVE",
"492 19 CURVE",
"492 317 LINE",
"384 303 LINE",
"388 69 LINE",
"360 60 OFFCURVE",
"331 56 OFFCURVE",
"301 56 CURVE SMOOTH",
"175 56 OFFCURVE",
"160 206 OFFCURVE",
"160 332 CURVE SMOOTH",
"160 453 OFFCURVE",
"176 610 OFFCURVE",
"296 610 CURVE SMOOTH"
);
}
);
width = 546;
},
{
anchors = (
{
name = bottom;
position = "{316, 0}";
},
{
name = top;
position = "{313, 660}";
}
);
layerId = "FE90535B-3AA3-425B-8C51-62A09B4DD251";
paths = (
{
closed = 1;
nodes = (
"379 608 OFFCURVE",
"402 564 OFFCURVE",
"402 506 CURVE SMOOTH",
"402 489 OFFCURVE",
"400 471 OFFCURVE",
"395 453 CURVE",
"410 445 OFFCURVE",
"432 442 OFFCURVE",
"447 442 CURVE SMOOTH",
"505 442 OFFCURVE",
"549 480 OFFCURVE",
"549 540 CURVE SMOOTH",
"549 650 OFFCURVE",
"442 680 OFFCURVE",
"332 680 CURVE SMOOTH",
"118 680 OFFCURVE",
"27 540 OFFCURVE",
"27 326 CURVE SMOOTH",
"27 129 OFFCURVE",
"106 -22 OFFCURVE",
"321 -22 CURVE SMOOTH",
"389 -22 OFFCURVE",
"472 -10 OFFCURVE",
"536 19 CURVE",
"536 317 LINE",
"403 303 LINE",
"409 91 LINE",
"388 83 OFFCURVE",
"363 80 OFFCURVE",
"340 80 CURVE SMOOTH",
"219 80 OFFCURVE",
"205 222 OFFCURVE",
"205 349 CURVE SMOOTH",
"205 452 OFFCURVE",
"217 608 OFFCURVE",
"321 608 CURVE SMOOTH"
);
}
);
width = 578;
},
{
anchors = (
{
name = bottom;
position = "{336, 0}";
},
{
name = top;
position = "{333, 660}";
}
);
layerId = "7F032AFA-3553-4546-BF24-20A331365DC8";
paths = (
{
closed = 1;
nodes = (
"405 606 OFFCURVE",
"422 552 OFFCURVE",
"422 493 CURVE SMOOTH",
"422 473 OFFCURVE",
"420 458 OFFCURVE",
"416 438 CURVE",
"432 433 OFFCURVE",
"453 432 OFFCURVE",
"468 432 CURVE SMOOTH",
"537 432 OFFCURVE",
"593 473 OFFCURVE",
"593 545 CURVE SMOOTH",
"593 657 OFFCURVE",
"472 680 OFFCURVE",
"360 680 CURVE SMOOTH",
"132 680 OFFCURVE",
"20 554 OFFCURVE",
"20 326 CURVE SMOOTH",
"20 132 OFFCURVE",
"115 -22 OFFCURVE",
"343 -22 CURVE SMOOTH",
"424 -22 OFFCURVE",
"504 -11 OFFCURVE",
"579 19 CURVE",
"579 317 LINE",
"423 303 LINE",
"430 112 LINE",
"416 107 OFFCURVE",
"396 104 OFFCURVE",
"379 104 CURVE SMOOTH",
"262 104 OFFCURVE",
"250 238 OFFCURVE",
"250 365 CURVE SMOOTH",
"250 452 OFFCURVE",
"258 606 OFFCURVE",
"346 606 CURVE SMOOTH"
);
}
);
width = 611;
},
{
anchors = (
{
name = bottom;
position = "{363, 0}";
},
{
name = top;
position = "{360, 660}";
}
);
layerId = "BF71592D-3612-466C-93C9-07DC553C6A84";
paths = (
{
closed = 1;
nodes = (
"431 604 OFFCURVE",
"442 541 OFFCURVE",
"442 480 CURVE SMOOTH",
"442 457 OFFCURVE",
"441 446 OFFCURVE",
"437 423 CURVE",
"455 422 OFFCURVE",
"475 421 OFFCURVE",
"489 421 CURVE SMOOTH",
"569 421 OFFCURVE",
"639 465 OFFCURVE",
"639 551 CURVE SMOOTH",
"639 665 OFFCURVE",
"501 680 OFFCURVE",
"387 680 CURVE SMOOTH",
"146 680 OFFCURVE",
"12 567 OFFCURVE",
"12 325 CURVE SMOOTH",
"12 136 OFFCURVE",
"123 -22 OFFCURVE",
"366 -22 CURVE SMOOTH",
"459 -22 OFFCURVE",
"536 -13 OFFCURVE",
"624 19 CURVE",
"624 317 LINE",
"443 303 LINE",
"452 134 LINE",
"444 131 OFFCURVE",
"429 129 OFFCURVE",
"419 129 CURVE SMOOTH",
"307 129 OFFCURVE",
"296 254 OFFCURVE",
"296 381 CURVE SMOOTH",
"296 451 OFFCURVE",
"300 604 OFFCURVE",
"371 604 CURVE SMOOTH"
);
}
);
width = 644;
},
{
anchors = (
{
name = bottom;
position = "{282, 0}";
},
{
name = top;
position = "{279, 660}";
}
);
layerId = "98CB3373-E4B4-4DFB-B394-21602E31464B";
paths = (
{
closed = 1;
nodes = (
"346 611 OFFCURVE",
"379 582 OFFCURVE",
"379 525 CURVE SMOOTH",
"379 512 OFFCURVE",
"376 489 OFFCURVE",
"371 476 CURVE",
"383 463 OFFCURVE",
"405 458 OFFCURVE",
"423 458 CURVE SMOOTH",
"464 458 OFFCURVE",
"488 490 OFFCURVE",
"488 531 CURVE SMOOTH",
"488 638 OFFCURVE",
"404 680 OFFCURVE",
"297 680 CURVE SMOOTH",
"102 680 OFFCURVE",
"42 521 OFFCURVE",
"42 327 CURVE SMOOTH",
"42 123 OFFCURVE",
"98 -22 OFFCURVE",
"292 -22 CURVE SMOOTH",
"344 -22 OFFCURVE",
"431 -7 OFFCURVE",
"477 19 CURVE",
"477 317 LINE",
"380 303 LINE",
"383 59 LINE",
"352 49 OFFCURVE",
"321 45 OFFCURVE",
"288 45 CURVE SMOOTH",
"160 45 OFFCURVE",
"144 199 OFFCURVE",
"144 324 CURVE SMOOTH",
"144 453 OFFCURVE",
"162 611 OFFCURVE",
"289 611 CURVE SMOOTH"
);
}
);
width = 541;
}
);
note = G;
unicode = 0047;
},
{
glyphname = H;
layers = (
{
anchors = (
{
name = bottom;
position = "{285, 0}";
},
{
name = center;
position = "{287, 528}";
},
{
name = top;
position = "{283, 660}";
}
);
layerId = "67CA47D2-7D83-49C3-A4CA-636F78AAFD20";
paths = (
{
closed = 1;
nodes = (
"518 660 LINE",
"401 660 LINE",
"401 371 LINE",
"177 371 LINE",
"177 660 LINE",
"60 660 LINE",
"60 0 LINE",
"177 0 LINE",
"177 297 LINE",
"401 297 LINE",
"401 0 LINE",
"518 0 LINE"
);
}
);
width = 578;
},
{
anchors = (
{
name = bottom;
position = "{311, 0}";
},
{
name = center;
position = "{313, 528}";
},
{
name = top;
position = "{309, 660}";
}
);
layerId = "FE90535B-3AA3-425B-8C51-62A09B4DD251";
paths = (
{
closed = 1;
nodes = (
"572 660 LINE",
"406 660 LINE",
"406 374 LINE",
"221 374 LINE",
"221 660 LINE",
"55 660 LINE",
"55 0 LINE",
"221 0 LINE",
"221 294 LINE",
"406 294 LINE",
"406 0 LINE",
"572 0 LINE"
);
}
);
width = 626;
},
{
anchors = (
{
name = bottom;
position = "{333, 0}";
},
{
name = center;
position = "{335, 528}";
},
{
name = top;
position = "{331, 660}";
}
);
layerId = "7F032AFA-3553-4546-BF24-20A331365DC8";
paths = (
{
closed = 1;
nodes = (
"625 660 LINE",
"410 660 LINE",
"410 376 LINE",
"264 376 LINE",
"264 660 LINE",
"50 660 LINE",
"50 0 LINE",
"264 0 LINE",
"264 292 LINE",
"410 292 LINE",
"410 0 LINE",
"625 0 LINE"
);
}
);
width = 674;
},
{
anchors = (
{
name = bottom;
position = "{360, 0}";
},
{
name = center;
position = "{362, 528}";
},
{
name = top;
position = "{358, 660}";
}
);
layerId = "BF71592D-3612-466C-93C9-07DC553C6A84";
paths = (
{
closed = 1;
nodes = (
"679 660 LINE",
"415 660 LINE",
"415 379 LINE",
"309 379 LINE",
"309 660 LINE",
"45 660 LINE",
"45 0 LINE",
"309 0 LINE",
"309 289 LINE",
"415 289 LINE",
"415 0 LINE",
"679 0 LINE"
);
}
);
width = 723;
},
{
anchors = (
{
name = bottom;
position = "{278, 0}";
},
{
name = center;
position = "{280, 528}";
},
{
name = top;
position = "{276, 660}";
}
);
layerId = "98CB3373-E4B4-4DFB-B394-21602E31464B";
paths = (
{
closed = 1;
nodes = (
"498 660 LINE",
"404 660 LINE",
"404 370 LINE",
"162 370 LINE",
"162 660 LINE",
"67 660 LINE",
"67 0 LINE",
"162 0 LINE",
"162 298 LINE",
"404 298 LINE",
"404 0 LINE",
"498 0 LINE"
);
}
);
width = 565;
}
);
note = H;
unicode = 0048;
},
{
glyphname = I;
layers = (
{
anchors = (
{
name = bottom;
position = "{118, 0}";
},
{
name = ogonek;
position = "{149, -3}";
},
{
name = top;
position = "{117, 660}";
}
);
layerId = "67CA47D2-7D83-49C3-A4CA-636F78AAFD20";
paths = (
{
closed = 1;
nodes = (
"177 660 LINE",
"60 660 LINE",
"60 0 LINE",
"177 0 LINE"
);
}
);
width = 237;
},
{
anchors = (
{
name = bottom;
position = "{138, 0}";
},
{
name = ogonek;
position = "{175, -10}";
},
{
name = top;
position = "{137, 660}";
}
);
layerId = "FE90535B-3AA3-425B-8C51-62A09B4DD251";
paths = (
{
closed = 1;
nodes = (
"221 660 LINE",
"55 660 LINE",
"55 0 LINE",
"221 0 LINE"
);
}
);
width = 275;
},
{
anchors = (
{
name = bottom;
position = "{156, 0}";
},
{
name = ogonek;
position = "{210, -16}";
},
{
name = top;
position = "{157, 660}";
}
);
layerId = "7F032AFA-3553-4546-BF24-20A331365DC8";
paths = (
{
closed = 1;
nodes = (
"264 660 LINE",
"50 660 LINE",
"50 0 LINE",
"264 0 LINE"
);
}
);
width = 314;
},
{
anchors = (
{
name = bottom;
position = "{179, 0}";
},
{
name = ogonek;
position = "{236, -23}";
},
{
name = top;
position = "{177, 660}";
}
);
layerId = "BF71592D-3612-466C-93C9-07DC553C6A84";
paths = (
{
closed = 1;
nodes = (
"309 660 LINE",
"45 660 LINE",
"45 0 LINE",
"309 0 LINE"
);
}
);
width = 353;
},
{
anchors = (
{
name = bottom;
position = "{114, 0}";
},
{
name = ogonek;
position = "{141, 0}";
},
{
name = top;
position = "{113, 660}";
}
);
layerId = "98CB3373-E4B4-4DFB-B394-21602E31464B";
paths = (
{
closed = 1;
nodes = (
"162 660 LINE",
"67 660 LINE",
"67 0 LINE",
"162 0 LINE"
);
}
);
width = 229;
}
);
note = I;
unicode = 0049;
},
{
glyphname = Ibreve;
layers = (
{
layerId = "67CA47D2-7D83-49C3-A4CA-636F78AAFD20";
paths = (
{
closed = 1;
nodes = (
"177 823 LINE",
"177 776 OFFCURVE",
"166 737 OFFCURVE",
"119 737 CURVE SMOOTH",
"71 737 OFFCURVE",
"60 776 OFFCURVE",
"60 823 CURVE",
"-32 823 LINE",
"-32 735 OFFCURVE",
"30 685 OFFCURVE",
"119 685 CURVE SMOOTH",
"207 685 OFFCURVE",
"269 735 OFFCURVE",
"269 823 CURVE"
);
},
{
closed = 1;
nodes = (
"177 660 LINE",
"60 660 LINE",
"60 0 LINE",
"177 0 LINE"
);
}
);
width = 237;
},
{
layerId = "FE90535B-3AA3-425B-8C51-62A09B4DD251";
paths = (
{
closed = 1;
nodes = (
"191 830 LINE",
"191 787 OFFCURVE",
"190 745 OFFCURVE",
"138 745 CURVE SMOOTH",
"86 745 OFFCURVE",
"85 787 OFFCURVE",
"85 830 CURVE",
"-34 830 LINE",
"-34 747 OFFCURVE",
"17 693 OFFCURVE",
"138 693 CURVE SMOOTH",
"258 693 OFFCURVE",
"310 747 OFFCURVE",
"310 830 CURVE"
);
},
{
closed = 1;
nodes = (
"221 660 LINE",
"55 660 LINE",
"55 0 LINE",
"221 0 LINE"
);
}
);
width = 275;
},
{
layerId = "7F032AFA-3553-4546-BF24-20A331365DC8";
paths = (
{
closed = 1;
nodes = (
"203 837 LINE",
"203 797 OFFCURVE",
"213 752 OFFCURVE",
"157 752 CURVE SMOOTH",
"101 752 OFFCURVE",
"110 797 OFFCURVE",
"110 837 CURVE",
"-37 837 LINE",
"-37 759 OFFCURVE",
"6 700 OFFCURVE",
"157 700 CURVE SMOOTH",
"308 700 OFFCURVE",
"350 759 OFFCURVE",
"350 837 CURVE"
);
},
{
closed = 1;
nodes = (
"264 660 LINE",
"50 660 LINE",
"50 0 LINE",
"264 0 LINE"
);
}
);
width = 314;
},
{
layerId = "BF71592D-3612-466C-93C9-07DC553C6A84";
paths = (
{
closed = 1;
nodes = (
"213 835 LINE",
"213 782 OFFCURVE",
"214 751 OFFCURVE",
"177 751 CURVE SMOOTH",
"140 751 OFFCURVE",
"141 782 OFFCURVE",
"141 835 CURVE",
"-28 835 LINE",
"-28 756 OFFCURVE",
"24 699 OFFCURVE",
"177 699 CURVE SMOOTH",
"329 699 OFFCURVE",
"381 756 OFFCURVE",
"381 835 CURVE"
);
},
{
closed = 1;
nodes = (
"309 660 LINE",
"45 660 LINE",
"45 0 LINE",
"309 0 LINE"
);
}
);
width = 353;
},
{
layerId = "98CB3373-E4B4-4DFB-B394-21602E31464B";
paths = (
{
closed = 1;
nodes = (
"171 820 LINE",
"171 771 OFFCURVE",
"155 733 OFFCURVE",
"110 733 CURVE SMOOTH",
"64 733 OFFCURVE",
"48 771 OFFCURVE",
"48 820 CURVE",
"-31 820 LINE",
"-31 729 OFFCURVE",
"36 681 OFFCURVE",
"110 681 CURVE SMOOTH",
"183 681 OFFCURVE",
"250 729 OFFCURVE",
"250 820 CURVE"
);
},
{
closed = 1;
nodes = (
"157 660 LINE",
"62 660 LINE",
"62 0 LINE",
"157 0 LINE"
);
}
);
width = 219;
}
);
note = Ibreve;
unicode = 012C;
},
{
glyphname = J;
layers = (
{
anchors = (
{
name = top;
position = "{115, 660}";
}
);
layerId = "67CA47D2-7D83-49C3-A4CA-636F78AAFD20";
paths = (
{
closed = 1;
nodes = (
"177 660 LINE",
"60 660 LINE",
"60 59 LINE SMOOTH",
"60 -26 OFFCURVE",
"47 -113 OFFCURVE",
"-38 -113 CURVE",
"-38 -147 OFFCURVE",
"2 -160 OFFCURVE",
"36 -160 CURVE SMOOTH",
"158 -160 OFFCURVE",
"177 -26 OFFCURVE",
"177 95 CURVE SMOOTH"
);
}
);
width = 237;
},
{
anchors = (
{
name = top;
position = "{135, 660}";
}
);
layerId = "FE90535B-3AA3-425B-8C51-62A09B4DD251";
paths = (
{
closed = 1;
nodes = (
"220 660 LINE",
"55 660 LINE",
"55 55 LINE SMOOTH",
"55 -31 OFFCURVE",
"47 -119 OFFCURVE",
"-39 -124 CURVE",
"-29 -163 OFFCURVE",
"20 -176 OFFCURVE",
"60 -176 CURVE SMOOTH",
"194 -176 OFFCURVE",
"220 -46 OFFCURVE",
"220 87 CURVE SMOOTH"
);
}
);
width = 275;
},
{
anchors = (
{
name = top;
position = "{155, 660}";
}
);
layerId = "7F032AFA-3553-4546-BF24-20A331365DC8";
paths = (
{
closed = 1;
nodes = (
"264 660 LINE",
"50 660 LINE",
"50 52 LINE SMOOTH",
"50 -36 OFFCURVE",
"48 -125 OFFCURVE",
"-40 -136 CURVE",
"-20 -179 OFFCURVE",
"38 -191 OFFCURVE",
"85 -191 CURVE SMOOTH",
"230 -191 OFFCURVE",
"264 -66 OFFCURVE",
"264 79 CURVE SMOOTH"
);
}
);
width = 314;
},
{
anchors = (
{
name = top;
position = "{175, 660}";
}
);
layerId = "BF71592D-3612-466C-93C9-07DC553C6A84";
paths = (
{
closed = 1;
nodes = (
"309 660 LINE",
"45 660 LINE",
"45 48 LINE SMOOTH",
"45 -41 OFFCURVE",
"49 -131 OFFCURVE",
"-41 -147 CURVE",
"-10 -195 OFFCURVE",
"56 -206 OFFCURVE",
"111 -206 CURVE SMOOTH",
"266 -206 OFFCURVE",
"309 -86 OFFCURVE",
"309 70 CURVE SMOOTH"
);
}
);
width = 353;
},
{
anchors = (
{
name = top;
position = "{111, 660}";
}
);
layerId = "98CB3373-E4B4-4DFB-B394-21602E31464B";
paths = (
{
closed = 1;
nodes = (
"162 660 LINE",
"67 660 LINE",
"67 61 LINE SMOOTH",
"67 -24 OFFCURVE",
"52 -110 OFFCURVE",
"-33 -108 CURVE",
"-37 -140 OFFCURVE",
"-1 -153 OFFCURVE",
"30 -153 CURVE SMOOTH",
"146 -153 OFFCURVE",
"162 -17 OFFCURVE",
"162 99 CURVE SMOOTH"
);
}
);
width = 229;
}
);
note = J;
unicode = 004A;
},
{
glyphname = K;
layers = (
{
anchors = (
{
name = bottom;
position = "{272, 0}";
}
);
layerId = "67CA47D2-7D83-49C3-A4CA-636F78AAFD20";
paths = (
{
closed = 1;
nodes = (
"177 0 LINE",
"177 660 LINE",
"60 660 LINE",
"60 0 LINE"
);
},
{
closed = 1;
nodes = (
"381 660 LINE",
"198 334 LINE",
"388 0 LINE",
"516 0 LINE",
"310 353 LINE",
"502 660 LINE"
);
}
);
width = 495;
},
{
anchors = (
{
name = bottom;
position = "{300, 0}";
}
);
layerId = "FE90535B-3AA3-425B-8C51-62A09B4DD251";
paths = (
{
closed = 1;
nodes = (
"221 0 LINE",
"221 660 LINE",
"55 660 LINE",
"55 0 LINE"
);
},
{
closed = 1;
nodes = (
"406 660 LINE",
"241 334 LINE",
"413 0 LINE",
"587 0 LINE",
"399 353 LINE",
"573 660 LINE"
);
}
);
width = 570;
},
{
anchors = (
{
name = bottom;
position = "{338, 0}";
}
);
layerId = "7F032AFA-3553-4546-BF24-20A331365DC8";
paths = (
{
closed = 1;
nodes = (
"264 0 LINE",
"264 660 LINE",
"50 660 LINE",
"50 0 LINE"
);
},
{
closed = 1;
nodes = (
"432 660 LINE",
"284 334 LINE",
"439 0 LINE",
"658 0 LINE",
"487 353 LINE",
"644 660 LINE"
);
}
);
width = 644;
},
{
anchors = (
{
name = bottom;
position = "{377, 0}";
}
);
layerId = "BF71592D-3612-466C-93C9-07DC553C6A84";
paths = (
{
closed = 1;
nodes = (
"309 0 LINE",
"309 660 LINE",
"45 660 LINE",
"45 0 LINE"
);
},
{
closed = 1;
nodes = (
"459 660 LINE",
"328 334 LINE",
"466 0 LINE",
"731 0 LINE",
"578 353 LINE",
"717 660 LINE"
);
}
);
width = 721;
},
{
anchors = (
{
name = bottom;
position = "{263, 0}";
}
);
layerId = "98CB3373-E4B4-4DFB-B394-21602E31464B";
paths = (
{
closed = 1;
nodes = (
"162 0 LINE",
"162 660 LINE",
"67 660 LINE",
"67 0 LINE"
);
},
{
closed = 1;
nodes = (
"374 660 LINE",
"183 334 LINE",
"381 0 LINE",
"488 0 LINE",
"274 353 LINE",
"474 660 LINE"
);
}
);
width = 470;
}
);
note = K;
unicode = 004B;
},
{
glyphname = L;
layers = (
{
anchors = (
{
name = bottom;
position = "{226, 0}";
},
{
name = center;
position = "{115, 335}";
},
{
name = top;
position = "{113, 660}";
},
{
name = topright;
position = "{100, 492}";
}
);
layerId = "67CA47D2-7D83-49C3-A4CA-636F78AAFD20";
paths = (
{
closed = 1;
nodes = (
"60 660 LINE",
"60 0 LINE",
"388 0 LINE",
"395 74 LINE",
"177 74 LINE",
"177 660 LINE"
);
}
);
width = 400;
},
{
anchors = (
{
name = bottom;
position = "{233, 0}";
},
{
name = center;
position = "{135, 305}";
},
{
name = top;
position = "{133, 660}";
},
{
name = topright;
position = "{121, 492}";
}
);
layerId = "FE90535B-3AA3-425B-8C51-62A09B4DD251";
paths = (
{
closed = 1;
nodes = (
"55 660 LINE",
"55 0 LINE",
"411 0 LINE",
"420 82 LINE",
"221 82 LINE",
"221 660 LINE"
);
}
);
width = 424;
},
{
anchors = (
{
name = bottom;
position = "{241, 0}";
},
{
name = center;
position = "{153, 315}";
},
{
name = top;
position = "{151, 660}";
},
{
name = topright;
position = "{110, 492}";
}
);
layerId = "7F032AFA-3553-4546-BF24-20A331365DC8";
paths = (
{
closed = 1;
nodes = (
"50 660 LINE",
"50 0 LINE",
"434 0 LINE",
"444 90 LINE",
"264 90 LINE",
"264 660 LINE"
);
}
);
width = 449;
},
{
anchors = (
{
name = bottom;
position = "{251, 0}";
},
{
name = center;
position = "{173, 335}";
},
{
name = top;
position = "{171, 660}";
},
{
name = topright;
position = "{116, 492}";
}
);
layerId = "BF71592D-3612-466C-93C9-07DC553C6A84";
paths = (
{
closed = 1;
nodes = (
"45 660 LINE",
"45 0 LINE",
"458 0 LINE",
"470 99 LINE",
"309 99 LINE",
"309 660 LINE"
);
}
);
width = 475;
},
{
anchors = (
{
name = bottom;
position = "{228, 0}";
},
{
name = center;
position = "{111, 344}";
},
{
name = top;
position = "{109, 660}";
},
{
name = topright;
position = "{99, 492}";
}
);
layerId = "98CB3373-E4B4-4DFB-B394-21602E31464B";
paths = (
{
closed = 1;
nodes = (
"67 660 LINE",
"67 0 LINE",
"382 0 LINE",
"388 70 LINE",
"162 70 LINE",
"162 660 LINE"
);
}
);
width = 399;
}
);
note = L;
rightKerningGroup = L;
unicode = 004C;
},
{
glyphname = Ldot;
layers = (
{
background = {
paths = (
{
closed = 1;
nodes = (
"60 660 LINE",
"60 0 LINE",
"388 0 LINE",
"395 74 LINE",
"177 74 LINE",
"177 660 LINE"
);
},
{
closed = 1;
nodes = (
"276 406 OFFCURVE",
"246 385 OFFCURVE",
"246 347 CURVE SMOOTH",
"246 311 OFFCURVE",
"273 290 OFFCURVE",
"304 290 CURVE SMOOTH",
"335 290 OFFCURVE",
"365 311 OFFCURVE",
"365 349 CURVE SMOOTH",
"365 385 OFFCURVE",
"338 406 OFFCURVE",
"307 406 CURVE SMOOTH"
);
}
);
};
components = (
{
name = L;
},
{
name = periodcentered.loclCAT.case;
transform = "{1, 0, 0, 1, 166, -13}";
}
);
layerId = "67CA47D2-7D83-49C3-A4CA-636F78AAFD20";
width = 400;
},
{
background = {
paths = (
{
closed = 1;
nodes = (
"55 660 LINE",
"55 0 LINE",
"411 0 LINE",
"420 82 LINE",
"221 82 LINE",
"221 660 LINE"
);
},
{
closed = 1;
nodes = (
"311 400 OFFCURVE",
"282 376 OFFCURVE",
"282 335 CURVE SMOOTH",
"282 297 OFFCURVE",
"307 272 OFFCURVE",
"344 272 CURVE SMOOTH",
"381 272 OFFCURVE",
"409 297 OFFCURVE",
"409 337 CURVE SMOOTH",
"409 376 OFFCURVE",
"383 400 OFFCURVE",
"348 400 CURVE SMOOTH"
);
}
);
};
components = (
{
name = L;
},
{
name = periodcentered.loclCAT.case;
transform = "{1, 0, 0, 1, 202, -57}";
}
);
layerId = "FE90535B-3AA3-425B-8C51-62A09B4DD251";
width = 424;
},
{
background = {
paths = (
{
closed = 1;
nodes = (
"50 660 LINE",
"50 0 LINE",
"434 0 LINE",
"444 90 LINE",
"264 90 LINE",
"264 660 LINE"
);
},
{
closed = 1;
nodes = (
"347 395 OFFCURVE",
"318 366 OFFCURVE",
"318 322 CURVE SMOOTH",
"318 283 OFFCURVE",
"342 255 OFFCURVE",
"384 255 CURVE SMOOTH",
"427 255 OFFCURVE",
"453 283 OFFCURVE",
"453 325 CURVE SMOOTH",
"453 367 OFFCURVE",
"429 395 OFFCURVE",
"388 395 CURVE SMOOTH"
);
}
);
};
components = (
{
name = L;
},
{
name = periodcentered.loclCAT.case;
transform = "{1, 0, 0, 1, 238, -60}";
}
);
layerId = "7F032AFA-3553-4546-BF24-20A331365DC8";
width = 449;
},
{
background = {
paths = (
{
closed = 1;
nodes = (
"45 660 LINE",
"45 0 LINE",
"458 0 LINE",
"470 99 LINE",
"309 99 LINE",
"309 660 LINE"
);
},
{
closed = 1;
nodes = (
"384 387 OFFCURVE",
"351 353 OFFCURVE",
"351 310 CURVE SMOOTH",
"351 272 OFFCURVE",
"379 240 OFFCURVE",
"425 240 CURVE SMOOTH",
"471 240 OFFCURVE",
"500 272 OFFCURVE",
"500 314 CURVE SMOOTH",
"500 354 OFFCURVE",
"473 387 OFFCURVE",
"429 387 CURVE SMOOTH"
);
}
);
};
components = (
{
name = L;
},
{
name = periodcentered.loclCAT.case;
transform = "{1, 0, 0, 1, 271, -51}";
}
);
layerId = "BF71592D-3612-466C-93C9-07DC553C6A84";
width = 475;
},
{
components = (
{
name = L;
},
{
name = periodcentered.loclCAT.case;
transform = "{1, 0, 0, 1, 154, 2}";
}
);
layerId = "98CB3373-E4B4-4DFB-B394-21602E31464B";
width = 399;
}
);
note = Ldot;
unicode = 013F;
},
{
glyphname = M;
layers = (
{
layerId = "67CA47D2-7D83-49C3-A4CA-636F78AAFD20";
paths = (
{
closed = 1;
nodes = (
"669 660 LINE",
"502 660 LINE",
"369 185 LINE",
"236 660 LINE",
"60 660 LINE",
"60 0 LINE",
"154 0 LINE",
"154 553 LINE",
"314 0 LINE",
"392 0 LINE",
"552 551 LINE",
"552 0 LINE",
"669 0 LINE"
);
}
);
width = 729;
},
{
layerId = "FE90535B-3AA3-425B-8C51-62A09B4DD251";
paths = (
{
closed = 1;
nodes = (
"743 660 LINE",
"522 660 LINE",
"402 239 LINE",
"281 660 LINE",
"55 660 LINE",
"55 0 LINE",
"159 0 LINE",
"159 532 LINE",
"320 0 LINE",
"417 0 LINE",
"578 531 LINE",
"578 0 LINE",
"743 0 LINE"
);
}
);
width = 798;
},
{
layerId = "7F032AFA-3553-4546-BF24-20A331365DC8";
paths = (
{
closed = 1;
nodes = (
"818 660 LINE",
"543 660 LINE",
"435 292 LINE",
"326 660 LINE",
"50 660 LINE",
"50 0 LINE",
"163 0 LINE",
"163 511 LINE",
"325 0 LINE",
"441 0 LINE",
"603 511 LINE",
"603 0 LINE",
"818 0 LINE"
);
}
);
width = 867;
},
{
layerId = "BF71592D-3612-466C-93C9-07DC553C6A84";
paths = (
{
closed = 1;
nodes = (
"894 660 LINE",
"564 660 LINE",
"468 347 LINE",
"372 660 LINE",
"45 660 LINE",
"45 0 LINE",
"168 0 LINE",
"168 490 LINE",
"331 0 LINE",
"467 0 LINE",
"630 491 LINE",
"630 0 LINE",
"894 0 LINE"
);
}
);
width = 938;
},
{
layerId = "98CB3373-E4B4-4DFB-B394-21602E31464B";
paths = (
{
closed = 1;
nodes = (
"639 660 LINE",
"498 660 LINE",
"359 160 LINE",
"220 660 LINE",
"67 660 LINE",
"67 0 LINE",
"157 0 LINE",
"157 563 LINE",
"316 0 LINE",
"385 0 LINE",
"545 560 LINE",
"545 0 LINE",
"639 0 LINE"
);
}
);
width = 706;
}
);
note = M;
unicode = 004D;
},
{
glyphname = N;
layers = (
{
anchors = (
{
name = bottom;
position = "{285, 0}";
},
{
name = top;
position = "{284, 660}";
}
);
layerId = "67CA47D2-7D83-49C3-A4CA-636F78AAFD20";
paths = (
{
closed = 1;
nodes = (
"420 0 LINE",
"508 0 LINE",
"508 660 LINE",
"414 660 LINE",
"414 208 LINE",
"149 660 LINE",
"60 660 LINE",
"60 0 LINE",
"154 0 LINE",
"154 452 LINE"
);
}
);
width = 568;
},
{
anchors = (
{
name = bottom;
position = "{299, 0}";
},
{
name = top;
position = "{298, 660}";
}
);
layerId = "FE90535B-3AA3-425B-8C51-62A09B4DD251";
paths = (
{
closed = 1;
nodes = (
"394 0 LINE",
"564 0 LINE",
"564 660 LINE",
"460 660 LINE",
"460 189 LINE",
"225 660 LINE",
"55 660 LINE",
"55 0 LINE",
"159 0 LINE",
"159 471 LINE"
);
}
);
width = 618;
},
{
anchors = (
{
name = bottom;
position = "{339, 0}";
},
{
name = top;
position = "{338, 660}";
}
);
layerId = "7F032AFA-3553-4546-BF24-20A331365DC8";
paths = (
{
closed = 1;
nodes = (
"368 0 LINE",
"619 0 LINE",
"619 660 LINE",
"505 660 LINE",
"505 171 LINE",
"301 660 LINE",
"50 660 LINE",
"50 0 LINE",
"163 0 LINE",
"163 489 LINE"
);
}
);
width = 668;
},
{
anchors = (
{
name = bottom;
position = "{359, 0}";
},
{
name = top;
position = "{358, 660}";
}
);
layerId = "BF71592D-3612-466C-93C9-07DC553C6A84";
paths = (
{
closed = 1;
nodes = (
"341 0 LINE",
"675 0 LINE",
"675 660 LINE",
"552 660 LINE",
"552 153 LINE",
"378 660 LINE",
"45 660 LINE",
"45 0 LINE",
"168 0 LINE",
"168 507 LINE"
);
}
);
width = 720;
},
{
anchors = (
{
name = bottom;
position = "{280, 0}";
},
{
name = top;
position = "{279, 660}";
}
);
layerId = "98CB3373-E4B4-4DFB-B394-21602E31464B";
paths = (
{
closed = 1;
nodes = (
"437 0 LINE",
"487 0 LINE",
"487 660 LINE",
"398 660 LINE",
"398 217 LINE",
"119 660 LINE",
"67 660 LINE",
"67 0 LINE",
"157 0 LINE",
"157 443 LINE"
);
}
);
width = 554;
}
);
note = N;
unicode = 004E;
},
{
glyphname = Eng;
layers = (
{
layerId = "67CA47D2-7D83-49C3-A4CA-636F78AAFD20";
paths = (
{
closed = 1;
nodes = (
"494 -160 OFFCURVE",
"508 -58 OFFCURVE",
"508 39 CURVE SMOOTH",
"508 660 LINE",
"414 660 LINE",
"414 166 LINE",
"149 660 LINE",
"60 660 LINE",
"60 0 LINE",
"154 0 LINE",
"154 433 LINE",
"388 0 LINE",
"421 0 LINE",
"419 -64 OFFCURVE",
"401 -123 OFFCURVE",
"337 -124 CURVE",
"337 -150 OFFCURVE",
"368 -160 OFFCURVE",
"395 -160 CURVE SMOOTH"
);
}
);
width = 568;
},
{
layerId = "FE90535B-3AA3-425B-8C51-62A09B4DD251";
paths = (
{
closed = 1;
nodes = (
"556 -181 OFFCURVE",
"564 -60 OFFCURVE",
"564 47 CURVE SMOOTH",
"564 660 LINE",
"460 660 LINE",
"460 194 LINE",
"225 660 LINE",
"55 660 LINE",
"55 0 LINE",
"159 0 LINE",
"159 466 LINE",
"394 0 LINE",
"463 0 LINE",
"461 -70 OFFCURVE",
"450 -140 OFFCURVE",
"380 -145 CURVE",
"387 -170 OFFCURVE",
"417 -181 OFFCURVE",
"449 -181 CURVE SMOOTH"
);
}
);
width = 618;
},
{
layerId = "7F032AFA-3553-4546-BF24-20A331365DC8";
paths = (
{
closed = 1;
nodes = (
"619 -201 OFFCURVE",
"619 -62 OFFCURVE",
"619 55 CURVE SMOOTH",
"619 660 LINE",
"505 660 LINE",
"505 171 LINE",
"301 660 LINE",
"50 660 LINE",
"50 0 LINE",
"163 0 LINE",
"163 489 LINE",
"368 0 LINE",
"505 0 LINE",
"504 -77 OFFCURVE",
"498 -157 OFFCURVE",
"423 -167 CURVE",
"438 -189 OFFCURVE",
"466 -201 OFFCURVE",
"502 -201 CURVE SMOOTH"
);
}
);
width = 668;
},
{
layerId = "BF71592D-3612-466C-93C9-07DC553C6A84";
paths = (
{
closed = 1;
nodes = (
"683 -222 OFFCURVE",
"675 -64 OFFCURVE",
"675 64 CURVE SMOOTH",
"675 660 LINE",
"552 660 LINE",
"552 147 LINE",
"378 660 LINE",
"45 660 LINE",
"45 0 LINE",
"168 0 LINE",
"168 513 LINE",
"341 0 LINE",
"548 0 LINE",
"549 -84 OFFCURVE",
"547 -174 OFFCURVE",
"467 -189 CURVE",
"489 -209 OFFCURVE",
"516 -222 OFFCURVE",
"556 -222 CURVE SMOOTH"
);
}
);
width = 720;
},
{
layerId = "98CB3373-E4B4-4DFB-B394-21602E31464B";
paths = (
{
closed = 1;
nodes = (
"470 -150 OFFCURVE",
"487 -57 OFFCURVE",
"487 35 CURVE SMOOTH",
"487 660 LINE",
"398 660 LINE",
"398 159 LINE",
"119 660 LINE",
"67 660 LINE",
"67 0 LINE",
"157 0 LINE",
"157 419 LINE",
"394 0 LINE",
"406 0 LINE",
"404 -61 OFFCURVE",
"383 -115 OFFCURVE",
"322 -114 CURVE",
"319 -141 OFFCURVE",
"350 -150 OFFCURVE",
"375 -150 CURVE SMOOTH"
);
}
);
width = 554;
}
);
note = Eng;
unicode = 014A;
},
{
glyphname = Nhookleft;
layers = (
{
layerId = "67CA47D2-7D83-49C3-A4CA-636F78AAFD20";
paths = (
{
closed = 1;
nodes = (
"-38 -147 OFFCURVE",
"2 -160 OFFCURVE",
"36 -160 CURVE SMOOTH",
"127 -160 OFFCURVE",
"154 -61 OFFCURVE",
"154 26 CURVE SMOOTH",
"154 452 LINE",
"420 0 LINE",
"508 0 LINE",
"508 660 LINE",
"414 660 LINE",
"414 208 LINE",
"148 660 LINE",
"60 660 LINE",
"60 59 LINE SMOOTH",
"60 -26 OFFCURVE",
"57 -113 OFFCURVE",
"-38 -113 CURVE"
);
}
);
width = 568;
},
{
layerId = "FE90535B-3AA3-425B-8C51-62A09B4DD251";
paths = (
{
closed = 1;
nodes = (
"-29 -163 OFFCURVE",
"11 -176 OFFCURVE",
"51 -176 CURVE SMOOTH",
"139 -176 OFFCURVE",
"159 -89 OFFCURVE",
"159 0 CURVE SMOOTH",
"159 471 LINE",
"394 0 LINE",
"564 0 LINE",
"564 660 LINE",
"460 660 LINE",
"460 189 LINE",
"225 660 LINE",
"55 660 LINE",
"55 38 LINE SMOOTH",
"55 -48 OFFCURVE",
"47 -119 OFFCURVE",
"-39 -124 CURVE"
);
}
);
width = 618;
},
{
layerId = "BF71592D-3612-466C-93C9-07DC553C6A84";
paths = (
{
closed = 1;
nodes = (
"-24 -180 OFFCURVE",
"13 -206 OFFCURVE",
"56 -206 CURVE SMOOTH",
"119 -206 OFFCURVE",
"168 -147 OFFCURVE",
"168 -26 CURVE SMOOTH",
"168 507 LINE",
"341 0 LINE",
"675 0 LINE",
"675 660 LINE",
"552 660 LINE",
"552 153 LINE",
"378 660 LINE",
"45 660 LINE",
"45 48 LINE SMOOTH",
"45 -41 OFFCURVE",
"49 -131 OFFCURVE",
"-41 -147 CURVE"
);
}
);
width = 720;
},
{
layerId = "7F032AFA-3553-4546-BF24-20A331365DC8";
paths = (
{
closed = 1;
nodes = (
"-20 -179 OFFCURVE",
"3 -191 OFFCURVE",
"50 -191 CURVE SMOOTH",
"145 -191 OFFCURVE",
"163 -103 OFFCURVE",
"163 0 CURVE SMOOTH",
"163 489 LINE",
"368 0 LINE",
"619 0 LINE",
"619 660 LINE",
"505 660 LINE",
"505 171 LINE",
"301 660 LINE",
"50 660 LINE",
"50 52 LINE SMOOTH",
"50 -36 OFFCURVE",
"48 -125 OFFCURVE",
"-40 -136 CURVE"
);
}
);
width = 668;
},
{
layerId = "98CB3373-E4B4-4DFB-B394-21602E31464B";
paths = (
{
closed = 1;
nodes = (
"-37 -140 OFFCURVE",
"5 -153 OFFCURVE",
"36 -153 CURVE SMOOTH",
"127 -153 OFFCURVE",
"157 -50 OFFCURVE",
"157 35 CURVE SMOOTH",
"157 443 LINE",
"437 0 LINE",
"487 0 LINE",
"487 660 LINE",
"398 660 LINE",
"398 217 LINE",
"117 660 LINE",
"67 660 LINE",
"67 65 LINE SMOOTH",
"67 -20 OFFCURVE",
"65 -110 OFFCURVE",
"-33 -108 CURVE"
);
}
);
width = 554;
}
);
unicode = 019D;
},
{
glyphname = O;
layers = (
{
anchors = (
{
name = bottom;
position = "{285, 0}";
},
{
name = center;
position = "{291, 363}";
},
{
name = ogonek;
position = "{380, 0}";
},
{
name = top;
position = "{291, 660}";
},
{
name = topright;
position = "{323, 660}";
}
);
layerId = "67CA47D2-7D83-49C3-A4CA-636F78AAFD20";
paths = (
{
closed = 1;
nodes = (
"97 680 OFFCURVE",
"34 520 OFFCURVE",
"34 327 CURVE SMOOTH",
"34 128 OFFCURVE",
"94 -22 OFFCURVE",
"291 -22 CURVE SMOOTH",
"490 -22 OFFCURVE",
"547 140 OFFCURVE",
"547 339 CURVE SMOOTH",
"547 533 OFFCURVE",
"485 680 OFFCURVE",
"291 680 CURVE SMOOTH"
);
},
{
closed = 1;
nodes = (
"169 48 OFFCURVE",
"160 210 OFFCURVE",
"160 332 CURVE SMOOTH",
"160 450 OFFCURVE",
"173 610 OFFCURVE",
"290 610 CURVE SMOOTH",
"408 610 OFFCURVE",
"421 450 OFFCURVE",
"421 332 CURVE SMOOTH",
"421 210 OFFCURVE",
"412 48 OFFCURVE",
"290 48 CURVE SMOOTH"
);
}
);
width = 581;
},
{
anchors = (
{
name = bottom;
position = "{309, 0}";
},
{
name = center;
position = "{313, 363}";
},
{
name = ogonek;
position = "{407, 0}";
},
{
name = top;
position = "{313, 660}";
},
{
name = topright;
position = "{345, 660}";
}
);
layerId = "FE90535B-3AA3-425B-8C51-62A09B4DD251";
paths = (
{
closed = 1;
nodes = (
"109 680 OFFCURVE",
"27 531 OFFCURVE",
"27 326 CURVE SMOOTH",
"27 124 OFFCURVE",
"112 -22 OFFCURVE",
"313 -22 CURVE SMOOTH",
"519 -22 OFFCURVE",
"599 133 OFFCURVE",
"599 339 CURVE SMOOTH",
"599 544 OFFCURVE",
"518 680 OFFCURVE",
"313 680 CURVE SMOOTH"
);
},
{
closed = 1;
nodes = (
"212 50 OFFCURVE",
"205 215 OFFCURVE",
"205 333 CURVE SMOOTH",
"205 448 OFFCURVE",
"214 608 OFFCURVE",
"313 608 CURVE SMOOTH",
"412 608 OFFCURVE",
"420 448 OFFCURVE",
"420 333 CURVE SMOOTH",
"420 215 OFFCURVE",
"413 50 OFFCURVE",
"313 50 CURVE SMOOTH"
);
}
);
width = 626;
},
{
anchors = (
{
name = bottom;
position = "{338, 0}";
},
{
name = center;
position = "{335, 363}";
},
{
name = ogonek;
position = "{442, 0}";
},
{
name = top;
position = "{335, 660}";
},
{
name = topright;
position = "{367, 660}";
}
);
layerId = "7F032AFA-3553-4546-BF24-20A331365DC8";
paths = (
{
closed = 1;
nodes = (
"120 680 OFFCURVE",
"20 541 OFFCURVE",
"20 326 CURVE SMOOTH",
"20 121 OFFCURVE",
"130 -22 OFFCURVE",
"335 -22 CURVE SMOOTH",
"548 -22 OFFCURVE",
"651 127 OFFCURVE",
"651 339 CURVE SMOOTH",
"651 554 OFFCURVE",
"551 680 OFFCURVE",
"335 680 CURVE SMOOTH"
);
},
{
closed = 1;
nodes = (
"255 52 OFFCURVE",
"250 219 OFFCURVE",
"250 333 CURVE SMOOTH",
"250 447 OFFCURVE",
"255 606 OFFCURVE",
"335 606 CURVE SMOOTH",
"415 606 OFFCURVE",
"420 447 OFFCURVE",
"420 333 CURVE SMOOTH",
"420 219 OFFCURVE",
"415 52 OFFCURVE",
"335 52 CURVE SMOOTH"
);
}
);
width = 670;
},
{
anchors = (
{
name = bottom;
position = "{358, 0}";
},
{
name = center;
position = "{358, 363}";
},
{
name = ogonek;
position = "{471, 0}";
},
{
name = top;
position = "{358, 660}";
},
{
name = topright;
position = "{390, 660}";
}
);
layerId = "BF71592D-3612-466C-93C9-07DC553C6A84";
paths = (
{
closed = 1;
nodes = (
"131 680 OFFCURVE",
"12 552 OFFCURVE",
"12 325 CURVE SMOOTH",
"12 117 OFFCURVE",
"148 -22 OFFCURVE",
"358 -22 CURVE SMOOTH",
"577 -22 OFFCURVE",
"703 120 OFFCURVE",
"703 339 CURVE SMOOTH",
"703 565 OFFCURVE",
"584 680 OFFCURVE",
"358 680 CURVE SMOOTH"
);
},
{
closed = 1;
nodes = (
"299 54 OFFCURVE",
"296 224 OFFCURVE",
"296 334 CURVE SMOOTH",
"296 445 OFFCURVE",
"297 604 OFFCURVE",
"358 604 CURVE SMOOTH",
"419 604 OFFCURVE",
"419 445 OFFCURVE",
"419 334 CURVE SMOOTH",
"419 224 OFFCURVE",
"417 54 OFFCURVE",
"358 54 CURVE SMOOTH"
);
}
);
width = 716;
},
{
anchors = (
{
name = bottom;
position = "{278, 0}";
},
{
name = center;
position = "{286, 363}";
},
{
name = ogonek;
position = "{372, 0}";
},
{
name = top;
position = "{286, 660}";
},
{
name = topright;
position = "{318, 660}";
}
);
layerId = "98CB3373-E4B4-4DFB-B394-21602E31464B";
paths = (
{
closed = 1;
nodes = (
"97 680 OFFCURVE",
"42 515 OFFCURVE",
"42 327 CURVE SMOOTH",
"42 130 OFFCURVE",
"91 -22 OFFCURVE",
"286 -22 CURVE SMOOTH",
"482 -22 OFFCURVE",
"528 143 OFFCURVE",
"528 339 CURVE SMOOTH",
"528 528 OFFCURVE",
"475 680 OFFCURVE",
"286 680 CURVE SMOOTH"
);
},
{
closed = 1;
nodes = (
"154 47 OFFCURVE",
"144 208 OFFCURVE",
"144 332 CURVE SMOOTH",
"144 451 OFFCURVE",
"159 611 OFFCURVE",
"284 611 CURVE SMOOTH",
"411 611 OFFCURVE",
"426 451 OFFCURVE",
"426 332 CURVE SMOOTH",
"426 208 OFFCURVE",
"416 47 OFFCURVE",
"284 47 CURVE SMOOTH"
);
}
);
width = 570;
}
);
note = O;
unicode = 004F;
},
{
glyphname = Ohorntilde;
layers = (
{
layerId = "67CA47D2-7D83-49C3-A4CA-636F78AAFD20";
paths = (
{
closed = 1;
nodes = (
"140 751 OFFCURVE",
"148 734 OFFCURVE",
"161 725 CURVE",
"176 737 OFFCURVE",
"199 740 OFFCURVE",
"216 740 CURVE SMOOTH",
"256 740 OFFCURVE",
"331 722 OFFCURVE",
"375 722 CURVE SMOOTH",
"412 722 OFFCURVE",
"443 739 OFFCURVE",
"443 779 CURVE SMOOTH",
"443 796 OFFCURVE",
"435 813 OFFCURVE",
"422 822 CURVE",
"407 810 OFFCURVE",
"384 807 OFFCURVE",
"367 807 CURVE SMOOTH",
"327 807 OFFCURVE",
"253 825 OFFCURVE",
"208 825 CURVE SMOOTH",
"171 825 OFFCURVE",
"140 808 OFFCURVE",
"140 768 CURVE SMOOTH"
);
},
{
closed = 1;
nodes = (
"34 128 OFFCURVE",
"94 -22 OFFCURVE",
"291 -22 CURVE SMOOTH",
"490 -22 OFFCURVE",
"547 140 OFFCURVE",
"547 339 CURVE SMOOTH",
"547 455 OFFCURVE",
"525 554 OFFCURVE",
"466 615 CURVE",
"539 624 OFFCURVE",
"577 682 OFFCURVE",
"577 731 CURVE SMOOTH",
"577 766 OFFCURVE",
"556 796 OFFCURVE",
"511 796 CURVE SMOOTH",
"485 796 OFFCURVE",
"469 783 OFFCURVE",
"464 769 CURVE",
"482 752 OFFCURVE",
"490 729 OFFCURVE",
"490 709 CURVE SMOOTH",
"490 674 OFFCURVE",
"460 659 OFFCURVE",
"426 659 CURVE SMOOTH",
"414 659 OFFCURVE",
"402 661 OFFCURVE",
"390 664 CURVE SMOOTH",
"362 674 OFFCURVE",
"329 680 OFFCURVE",
"291 680 CURVE SMOOTH",
"97 680 OFFCURVE",
"34 520 OFFCURVE",
"34 327 CURVE SMOOTH"
);
},
{
closed = 1;
nodes = (
"160 450 OFFCURVE",
"173 610 OFFCURVE",
"290 610 CURVE SMOOTH",
"408 610 OFFCURVE",
"421 450 OFFCURVE",
"421 332 CURVE SMOOTH",
"421 210 OFFCURVE",
"412 48 OFFCURVE",
"290 48 CURVE SMOOTH",
"169 48 OFFCURVE",
"160 210 OFFCURVE",
"160 332 CURVE SMOOTH"
);
}
);
width = 581;
},
{
layerId = "FE90535B-3AA3-425B-8C51-62A09B4DD251";
paths = (
{
closed = 1;
nodes = (
"152 749 OFFCURVE",
"159 731 OFFCURVE",
"170 719 CURVE",
"187 734 OFFCURVE",
"212 737 OFFCURVE",
"232 737 CURVE SMOOTH",
"280 737 OFFCURVE",
"345 715 OFFCURVE",
"395 715 CURVE SMOOTH",
"444 715 OFFCURVE",
"483 732 OFFCURVE",
"483 780 CURVE SMOOTH",
"483 798 OFFCURVE",
"476 816 OFFCURVE",
"465 828 CURVE",
"448 813 OFFCURVE",
"423 810 OFFCURVE",
"403 810 CURVE SMOOTH",
"355 810 OFFCURVE",
"289 832 OFFCURVE",
"240 832 CURVE SMOOTH",
"191 832 OFFCURVE",
"152 815 OFFCURVE",
"152 767 CURVE SMOOTH"
);
},
{
closed = 1;
nodes = (
"27 124 OFFCURVE",
"112 -22 OFFCURVE",
"313 -22 CURVE SMOOTH",
"519 -22 OFFCURVE",
"599 133 OFFCURVE",
"599 339 CURVE SMOOTH",
"599 457 OFFCURVE",
"572 552 OFFCURVE",
"511 611 CURVE",
"587 623 OFFCURVE",
"625 682 OFFCURVE",
"625 731 CURVE SMOOTH",
"625 770 OFFCURVE",
"602 803 OFFCURVE",
"553 803 CURVE SMOOTH",
"527 803 OFFCURVE",
"509 789 OFFCURVE",
"501 772 CURVE",
"519 759 OFFCURVE",
"528 737 OFFCURVE",
"528 716 CURVE SMOOTH",
"528 675 OFFCURVE",
"497 658 OFFCURVE",
"460 658 CURVE SMOOTH",
"444 658 OFFCURVE",
"426 662 OFFCURVE",
"409 668 CURVE SMOOTH",
"381 676 OFFCURVE",
"349 680 OFFCURVE",
"313 680 CURVE SMOOTH",
"109 680 OFFCURVE",
"27 531 OFFCURVE",
"27 326 CURVE SMOOTH"
);
},
{
closed = 1;
nodes = (
"205 448 OFFCURVE",
"214 608 OFFCURVE",
"313 608 CURVE SMOOTH",
"412 608 OFFCURVE",
"420 448 OFFCURVE",
"420 333 CURVE SMOOTH",
"420 215 OFFCURVE",
"413 50 OFFCURVE",
"313 50 CURVE SMOOTH",
"212 50 OFFCURVE",
"205 215 OFFCURVE",
"205 333 CURVE SMOOTH"
);
}
);
width = 626;
},
{
layerId = "7F032AFA-3553-4546-BF24-20A331365DC8";
paths = (
{
closed = 1;
nodes = (
"171 746 OFFCURVE",
"178 726 OFFCURVE",
"187 713 CURVE",
"206 730 OFFCURVE",
"237 733 OFFCURVE",
"260 733 CURVE SMOOTH",
"327 733 OFFCURVE",
"355 709 OFFCURVE",
"407 709 CURVE SMOOTH",
"464 709 OFFCURVE",
"511 726 OFFCURVE",
"511 783 CURVE SMOOTH",
"511 800 OFFCURVE",
"504 820 OFFCURVE",
"495 834 CURVE",
"475 816 OFFCURVE",
"446 813 OFFCURVE",
"423 813 CURVE SMOOTH",
"357 813 OFFCURVE",
"327 837 OFFCURVE",
"275 837 CURVE SMOOTH",
"218 837 OFFCURVE",
"171 820 OFFCURVE",
"171 763 CURVE SMOOTH"
);
},
{
closed = 1;
nodes = (
"20 121 OFFCURVE",
"130 -22 OFFCURVE",
"335 -22 CURVE SMOOTH",
"548 -22 OFFCURVE",
"651 127 OFFCURVE",
"651 339 CURVE SMOOTH",
"651 455 OFFCURVE",
"622 545 OFFCURVE",
"562 603 CURVE",
"635 618 OFFCURVE",
"674 675 OFFCURVE",
"674 727 CURVE SMOOTH",
"674 780 OFFCURVE",
"642 805 OFFCURVE",
"598 805 CURVE SMOOTH",
"572 805 OFFCURVE",
"546 794 OFFCURVE",
"531 772 CURVE",
"547 759 OFFCURVE",
"555 738 OFFCURVE",
"555 717 CURVE SMOOTH",
"555 676 OFFCURVE",
"528 660 OFFCURVE",
"491 660 CURVE SMOOTH",
"478 660 OFFCURVE",
"464 662 OFFCURVE",
"450 665 CURVE SMOOTH",
"416 675 OFFCURVE",
"378 680 OFFCURVE",
"335 680 CURVE SMOOTH",
"120 680 OFFCURVE",
"20 541 OFFCURVE",
"20 326 CURVE SMOOTH"
);
},
{
closed = 1;
nodes = (
"250 447 OFFCURVE",
"255 606 OFFCURVE",
"335 606 CURVE SMOOTH",
"415 606 OFFCURVE",
"420 447 OFFCURVE",
"420 333 CURVE SMOOTH",
"420 219 OFFCURVE",
"415 52 OFFCURVE",
"335 52 CURVE SMOOTH",
"255 52 OFFCURVE",
"250 219 OFFCURVE",
"250 333 CURVE SMOOTH"
);
}
);
width = 670;
},
{
layerId = "BF71592D-3612-466C-93C9-07DC553C6A84";
paths = (
{
closed = 1;
nodes = (
"171 743 OFFCURVE",
"177 721 OFFCURVE",
"184 704 CURVE",
"206 722 OFFCURVE",
"230 727 OFFCURVE",
"257 727 CURVE SMOOTH",
"351 727 OFFCURVE",
"360 705 OFFCURVE",
"421 705 CURVE SMOOTH",
"490 705 OFFCURVE",
"541 729 OFFCURVE",
"541 787 CURVE SMOOTH",
"541 805 OFFCURVE",
"535 827 OFFCURVE",
"527 842 CURVE",
"505 825 OFFCURVE",
"480 820 OFFCURVE",
"454 820 CURVE SMOOTH",
"359 820 OFFCURVE",
"350 841 OFFCURVE",
"289 841 CURVE SMOOTH",
"224 841 OFFCURVE",
"171 822 OFFCURVE",
"171 762 CURVE SMOOTH"
);
},
{
closed = 1;
nodes = (
"12 117 OFFCURVE",
"148 -22 OFFCURVE",
"358 -22 CURVE SMOOTH",
"577 -22 OFFCURVE",
"703 120 OFFCURVE",
"703 339 CURVE SMOOTH",
"703 456 OFFCURVE",
"671 543 OFFCURVE",
"609 600 CURVE",
"676 618 OFFCURVE",
"712 676 OFFCURVE",
"712 727 CURVE SMOOTH",
"712 770 OFFCURVE",
"685 808 OFFCURVE",
"627 808 CURVE SMOOTH",
"601 808 OFFCURVE",
"573 797 OFFCURVE",
"558 778 CURVE",
"570 765 OFFCURVE",
"576 745 OFFCURVE",
"576 725 CURVE SMOOTH",
"576 682 OFFCURVE",
"556 661 OFFCURVE",
"518 661 CURVE SMOOTH",
"508 661 OFFCURVE",
"498 662 OFFCURVE",
"486 665 CURVE SMOOTH",
"440 676 OFFCURVE",
"404 680 OFFCURVE",
"358 680 CURVE SMOOTH",
"131 680 OFFCURVE",
"12 552 OFFCURVE",
"12 325 CURVE SMOOTH"
);
},
{
closed = 1;
nodes = (
"296 445 OFFCURVE",
"297 604 OFFCURVE",
"358 604 CURVE SMOOTH",
"419 604 OFFCURVE",
"419 445 OFFCURVE",
"419 334 CURVE SMOOTH",
"419 224 OFFCURVE",
"417 54 OFFCURVE",
"358 54 CURVE SMOOTH",
"299 54 OFFCURVE",
"296 224 OFFCURVE",
"296 334 CURVE SMOOTH"
);
}
);
width = 716;
},
{
layerId = "98CB3373-E4B4-4DFB-B394-21602E31464B";
paths = (
{
closed = 1;
nodes = (
"134 752 OFFCURVE",
"142 736 OFFCURVE",
"156 728 CURVE",
"170 739 OFFCURVE",
"192 742 OFFCURVE",
"207 742 CURVE SMOOTH",
"242 742 OFFCURVE",
"325 725 OFFCURVE",
"367 725 CURVE SMOOTH",
"399 725 OFFCURVE",
"426 742 OFFCURVE",
"426 778 CURVE SMOOTH",
"426 795 OFFCURVE",
"417 811 OFFCURVE",
"404 819 CURVE",
"390 809 OFFCURVE",
"368 806 OFFCURVE",
"352 806 CURVE SMOOTH",
"317 806 OFFCURVE",
"236 822 OFFCURVE",
"193 822 CURVE SMOOTH",
"161 822 OFFCURVE",
"134 805 OFFCURVE",
"134 769 CURVE SMOOTH"
);
},
{
closed = 1;
nodes = (
"37 130 OFFCURVE",
"86 -22 OFFCURVE",
"281 -22 CURVE SMOOTH",
"477 -22 OFFCURVE",
"523 143 OFFCURVE",
"523 339 CURVE SMOOTH",
"523 455 OFFCURVE",
"503 556 OFFCURVE",
"444 617 CURVE",
"517 625 OFFCURVE",
"555 683 OFFCURVE",
"555 731 CURVE SMOOTH",
"555 763 OFFCURVE",
"535 793 OFFCURVE",
"491 793 CURVE SMOOTH",
"465 793 OFFCURVE",
"451 780 OFFCURVE",
"448 768 CURVE",
"466 750 OFFCURVE",
"474 726 OFFCURVE",
"474 706 CURVE SMOOTH",
"474 674 OFFCURVE",
"443 659 OFFCURVE",
"411 659 CURVE SMOOTH",
"400 659 OFFCURVE",
"389 661 OFFCURVE",
"379 663 CURVE SMOOTH",
"351 673 OFFCURVE",
"319 680 OFFCURVE",
"281 680 CURVE SMOOTH",
"92 680 OFFCURVE",
"37 515 OFFCURVE",
"37 327 CURVE SMOOTH"
);
},
{
closed = 1;
nodes = (
"139 451 OFFCURVE",
"154 611 OFFCURVE",
"279 611 CURVE SMOOTH",
"406 611 OFFCURVE",
"421 451 OFFCURVE",
"421 332 CURVE SMOOTH",
"421 208 OFFCURVE",
"411 47 OFFCURVE",
"279 47 CURVE SMOOTH",
"149 47 OFFCURVE",
"139 208 OFFCURVE",
"139 332 CURVE SMOOTH"
);
}
);
width = 560;
}
);
unicode = 1EE0;
},
{
glyphname = Ohungarumlaut;
layers = (
{
background = {
paths = (
{
closed = 1;
nodes = (
"156 742 LINE",
"175 703 LINE",
"250 730 LINE SMOOTH",
"293 747 OFFCURVE",
"348 768 OFFCURVE",
"348 803 CURVE SMOOTH",
"348 823 OFFCURVE",
"333 840 OFFCURVE",
"311 849 CURVE"
);
},
{
closed = 1;
nodes = (
"343 742 LINE",
"362 703 LINE",
"437 730 LINE SMOOTH",
"480 747 OFFCURVE",
"535 768 OFFCURVE",
"535 803 CURVE SMOOTH",
"535 823 OFFCURVE",
"520 840 OFFCURVE",
"498 849 CURVE"
);
},
{
closed = 1;
nodes = (
"97 680 OFFCURVE",
"34 520 OFFCURVE",
"34 327 CURVE SMOOTH",
"34 128 OFFCURVE",
"94 -22 OFFCURVE",
"291 -22 CURVE SMOOTH",
"490 -22 OFFCURVE",
"547 140 OFFCURVE",
"547 339 CURVE SMOOTH",
"547 533 OFFCURVE",
"485 680 OFFCURVE",
"291 680 CURVE SMOOTH"
);
},
{
closed = 1;
nodes = (
"169 48 OFFCURVE",
"160 210 OFFCURVE",
"160 332 CURVE SMOOTH",
"160 450 OFFCURVE",
"173 610 OFFCURVE",
"290 610 CURVE SMOOTH",
"408 610 OFFCURVE",
"421 450 OFFCURVE",
"421 332 CURVE SMOOTH",
"421 210 OFFCURVE",
"412 48 OFFCURVE",
"290 48 CURVE SMOOTH"
);
}
);
};
components = (
{
name = O;
},
{
name = hungarumlautcomb.case;
transform = "{1, 0, 0, 1, 545, 0}";
}
);
layerId = "67CA47D2-7D83-49C3-A4CA-636F78AAFD20";
width = 581;
},
{
background = {
paths = (
{
closed = 1;
nodes = (
"168 747 LINE",
"188 701 LINE",
"279 725 LINE SMOOTH",
"331 739 OFFCURVE",
"371 763 OFFCURVE",
"371 801 CURVE SMOOTH",
"371 825 OFFCURVE",
"355 844 OFFCURVE",
"333 856 CURVE"
);
},
{
closed = 1;
nodes = (
"368 747 LINE",
"388 701 LINE",
"479 725 LINE SMOOTH",
"530 739 OFFCURVE",
"571 763 OFFCURVE",
"571 801 CURVE SMOOTH",
"571 825 OFFCURVE",
"555 844 OFFCURVE",
"533 856 CURVE"
);
},
{
closed = 1;
nodes = (
"109 680 OFFCURVE",
"27 531 OFFCURVE",
"27 326 CURVE SMOOTH",
"27 124 OFFCURVE",
"112 -22 OFFCURVE",
"313 -22 CURVE SMOOTH",
"519 -22 OFFCURVE",
"599 133 OFFCURVE",
"599 339 CURVE SMOOTH",
"599 544 OFFCURVE",
"518 680 OFFCURVE",
"313 680 CURVE SMOOTH"
);
},
{
closed = 1;
nodes = (
"212 50 OFFCURVE",
"205 215 OFFCURVE",
"205 333 CURVE SMOOTH",
"205 448 OFFCURVE",
"214 608 OFFCURVE",
"313 608 CURVE SMOOTH",
"412 608 OFFCURVE",
"420 448 OFFCURVE",
"420 333 CURVE SMOOTH",
"420 215 OFFCURVE",
"413 50 OFFCURVE",
"313 50 CURVE SMOOTH"
);
}
);
};
components = (
{
name = O;
},
{
name = hungarumlautcomb.case;
transform = "{1, 0, 0, 1, 581, 0}";
}
);
layerId = "FE90535B-3AA3-425B-8C51-62A09B4DD251";
width = 626;
},
{
background = {
paths = (
{
closed = 1;
nodes = (
"179 751 LINE",
"200 700 LINE",
"306 720 LINE SMOOTH",
"368 732 OFFCURVE",
"393 758 OFFCURVE",
"393 799 CURVE SMOOTH",
"393 826 OFFCURVE",
"377 848 OFFCURVE",
"354 862 CURVE"
);
},
{
closed = 1;
nodes = (
"392 751 LINE",
"413 700 LINE",
"518 720 LINE SMOOTH",
"579 732 OFFCURVE",
"605 758 OFFCURVE",
"605 799 CURVE SMOOTH",
"605 826 OFFCURVE",
"589 848 OFFCURVE",
"567 862 CURVE"
);
},
{
closed = 1;
nodes = (
"120 680 OFFCURVE",
"20 541 OFFCURVE",
"20 326 CURVE SMOOTH",
"20 121 OFFCURVE",
"130 -22 OFFCURVE",
"335 -22 CURVE SMOOTH",
"548 -22 OFFCURVE",
"651 127 OFFCURVE",
"651 339 CURVE SMOOTH",
"651 554 OFFCURVE",
"551 680 OFFCURVE",
"335 680 CURVE SMOOTH"
);
},
{
closed = 1;
nodes = (
"255 52 OFFCURVE",
"250 219 OFFCURVE",
"250 333 CURVE SMOOTH",
"250 447 OFFCURVE",
"255 606 OFFCURVE",
"335 606 CURVE SMOOTH",
"415 606 OFFCURVE",
"420 447 OFFCURVE",
"420 333 CURVE SMOOTH",
"420 219 OFFCURVE",
"415 52 OFFCURVE",
"335 52 CURVE SMOOTH"
);
}
);
};
components = (
{
name = O;
},
{
name = hungarumlautcomb.case;
transform = "{1, 0, 0, 1, 614, 0}";
}
);
layerId = "7F032AFA-3553-4546-BF24-20A331365DC8";
width = 670;
},
{
background = {
paths = (
{
closed = 1;
nodes = (
"193 760 LINE",
"215 698 LINE",
"336 715 LINE SMOOTH",
"398 723 OFFCURVE",
"425 753 OFFCURVE",
"425 802 CURVE SMOOTH",
"425 831 OFFCURVE",
"405 853 OFFCURVE",
"379 869 CURVE"
);
},
{
closed = 1;
nodes = (
"421 760 LINE",
"443 698 LINE",
"556 715 LINE SMOOTH",
"618 724 OFFCURVE",
"645 753 OFFCURVE",
"645 802 CURVE SMOOTH",
"645 831 OFFCURVE",
"625 853 OFFCURVE",
"599 869 CURVE"
);
},
{
closed = 1;
nodes = (
"131 680 OFFCURVE",
"12 552 OFFCURVE",
"12 325 CURVE SMOOTH",
"12 117 OFFCURVE",
"148 -22 OFFCURVE",
"358 -22 CURVE SMOOTH",
"577 -22 OFFCURVE",
"703 120 OFFCURVE",
"703 339 CURVE SMOOTH",
"703 565 OFFCURVE",
"584 680 OFFCURVE",
"358 680 CURVE SMOOTH"
);
},
{
closed = 1;
nodes = (
"299 54 OFFCURVE",
"296 224 OFFCURVE",
"296 334 CURVE SMOOTH",
"296 445 OFFCURVE",
"297 604 OFFCURVE",
"358 604 CURVE SMOOTH",
"419 604 OFFCURVE",
"419 445 OFFCURVE",
"419 334 CURVE SMOOTH",
"419 224 OFFCURVE",
"417 54 OFFCURVE",
"358 54 CURVE SMOOTH"
);
}
);
};
components = (
{
name = O;
},
{
name = hungarumlautcomb.case;
transform = "{1, 0, 0, 1, 647, 0}";
}
);
layerId = "BF71592D-3612-466C-93C9-07DC553C6A84";
width = 716;
},
{
components = (
{
name = O;
},
{
name = hungarumlautcomb.case;
transform = "{1, 0, 0, 1, 534, 0}";
}
);
layerId = "98CB3373-E4B4-4DFB-B394-21602E31464B";
width = 570;
}
);
note = Ohungarumlaut;
unicode = 0150;
},
{
glyphname = OE;
layers = (
{
layerId = "67CA47D2-7D83-49C3-A4CA-636F78AAFD20";
paths = (
{
closed = 1;
nodes = (
"727 74 LINE",
"516 74 LINE",
"516 302 LINE",
"683 302 LINE",
"683 376 LINE",
"516 376 LINE",
"516 586 LINE",
"713 586 LINE",
"713 660 LINE",
"400 660 LINE",
"369 673 OFFCURVE",
"333 680 OFFCURVE",
"291 680 CURVE SMOOTH",
"97 680 OFFCURVE",
"34 520 OFFCURVE",
"34 327 CURVE SMOOTH",
"34 128 OFFCURVE",
"94 -22 OFFCURVE",
"291 -22 CURVE SMOOTH",
"335 -22 OFFCURVE",
"371 -14 OFFCURVE",
"402 0 CURVE",
"720 0 LINE"
);
},
{
closed = 1;
nodes = (
"169 48 OFFCURVE",
"160 210 OFFCURVE",
"160 332 CURVE SMOOTH",
"160 450 OFFCURVE",
"173 610 OFFCURVE",
"290 610 CURVE SMOOTH",
"332 610 OFFCURVE",
"369 590 OFFCURVE",
"399 559 CURVE",
"399 98 LINE",
"369 67 OFFCURVE",
"332 48 OFFCURVE",
"290 48 CURVE SMOOTH"
);
}
);
width = 756;
},
{
layerId = "FE90535B-3AA3-425B-8C51-62A09B4DD251";
paths = (
{
closed = 1;
nodes = (
"768 79 LINE",
"566 79 LINE",
"566 299 LINE",
"724 299 LINE",
"724 379 LINE",
"566 379 LINE",
"566 581 LINE",
"754 581 LINE",
"754 660 LINE",
"430 660 LINE",
"397 673 OFFCURVE",
"358 680 OFFCURVE",
"313 680 CURVE SMOOTH",
"109 680 OFFCURVE",
"27 531 OFFCURVE",
"27 326 CURVE SMOOTH",
"27 124 OFFCURVE",
"112 -22 OFFCURVE",
"313 -22 CURVE SMOOTH",
"359 -22 OFFCURVE",
"398 -14 OFFCURVE",
"432 0 CURVE",
"761 0 LINE"
);
},
{
closed = 1;
nodes = (
"212 50 OFFCURVE",
"205 215 OFFCURVE",
"205 333 CURVE SMOOTH",
"205 448 OFFCURVE",
"214 608 OFFCURVE",
"313 608 CURVE SMOOTH",
"363 608 OFFCURVE",
"398 568 OFFCURVE",
"421 513 CURVE",
"421 147 LINE",
"398 91 OFFCURVE",
"363 50 OFFCURVE",
"313 50 CURVE SMOOTH"
);
}
);
width = 782;
},
{
layerId = "7F032AFA-3553-4546-BF24-20A331365DC8";
paths = (
{
closed = 1;
nodes = (
"808 84 LINE",
"615 84 LINE",
"615 297 LINE",
"763 297 LINE",
"763 381 LINE",
"615 381 LINE",
"615 576 LINE",
"793 576 LINE",
"793 660 LINE",
"467 660 LINE",
"429 673 OFFCURVE",
"385 680 OFFCURVE",
"335 680 CURVE SMOOTH",
"120 680 OFFCURVE",
"20 541 OFFCURVE",
"20 326 CURVE SMOOTH",
"20 121 OFFCURVE",
"130 -22 OFFCURVE",
"335 -22 CURVE SMOOTH",
"383 -22 OFFCURVE",
"426 -14 OFFCURVE",
"462 0 CURVE",
"800 0 LINE"
);
},
{
closed = 1;
nodes = (
"255 52 OFFCURVE",
"250 219 OFFCURVE",
"250 333 CURVE SMOOTH",
"250 447 OFFCURVE",
"255 606 OFFCURVE",
"335 606 CURVE SMOOTH",
"374 606 OFFCURVE",
"397 576 OFFCURVE",
"401 546 CURVE",
"401 111 LINE",
"391 76 OFFCURVE",
"369 52 OFFCURVE",
"335 52 CURVE SMOOTH"
);
}
);
width = 808;
},
{
layerId = "BF71592D-3612-466C-93C9-07DC553C6A84";
paths = (
{
closed = 1;
nodes = (
"849 89 LINE",
"666 89 LINE",
"666 294 LINE",
"803 294 LINE",
"803 384 LINE",
"666 384 LINE",
"666 571 LINE",
"833 571 LINE",
"833 660 LINE",
"523 660 LINE",
"475 674 OFFCURVE",
"419 680 OFFCURVE",
"358 680 CURVE SMOOTH",
"131 680 OFFCURVE",
"12 552 OFFCURVE",
"12 325 CURVE SMOOTH",
"12 117 OFFCURVE",
"148 -22 OFFCURVE",
"358 -22 CURVE SMOOTH",
"408 -22 OFFCURVE",
"453 -14 OFFCURVE",
"494 0 CURVE",
"840 0 LINE"
);
},
{
closed = 1;
nodes = (
"299 54 OFFCURVE",
"296 224 OFFCURVE",
"296 334 CURVE SMOOTH",
"296 445 OFFCURVE",
"297 604 OFFCURVE",
"358 604 CURVE SMOOTH",
"381 604 OFFCURVE",
"395 585 OFFCURVE",
"403 564 CURVE",
"403 103 LINE",
"396 75 OFFCURVE",
"382 54 OFFCURVE",
"358 54 CURVE SMOOTH"
);
}
);
width = 835;
},
{
layerId = "98CB3373-E4B4-4DFB-B394-21602E31464B";
paths = (
{
closed = 1;
nodes = (
"713 72 LINE",
"498 72 LINE",
"498 303 LINE",
"669 303 LINE",
"669 375 LINE",
"498 375 LINE",
"498 588 LINE",
"699 588 LINE",
"699 660 LINE",
"390 660 LINE",
"361 673 OFFCURVE",
"326 680 OFFCURVE",
"286 680 CURVE SMOOTH",
"97 680 OFFCURVE",
"42 515 OFFCURVE",
"42 327 CURVE SMOOTH",
"42 130 OFFCURVE",
"91 -22 OFFCURVE",
"286 -22 CURVE SMOOTH",
"329 -22 OFFCURVE",
"363 -14 OFFCURVE",
"393 0 CURVE",
"706 0 LINE"
);
},
{
closed = 1;
nodes = (
"154 47 OFFCURVE",
"144 208 OFFCURVE",
"144 332 CURVE SMOOTH",
"144 451 OFFCURVE",
"159 611 OFFCURVE",
"284 611 CURVE SMOOTH",
"325 611 OFFCURVE",
"364 597 OFFCURVE",
"399 571 CURVE",
"399 85 LINE",
"365 60 OFFCURVE",
"325 47 OFFCURVE",
"284 47 CURVE SMOOTH"
);
}
);
width = 754;
}
);
leftMetricsKey = O;
note = OE;
rightMetricsKey = E;
unicode = 0152;
},
{
glyphname = P;
layers = (
{
layerId = "67CA47D2-7D83-49C3-A4CA-636F78AAFD20";
paths = (
{
closed = 1;
nodes = (
"485 616 OFFCURVE",
"390 664 OFFCURVE",
"248 664 CURVE SMOOTH",
"188 664 OFFCURVE",
"119 660 OFFCURVE",
"60 656 CURVE",
"60 0 LINE",
"177 0 LINE",
"177 589 LINE",
"197 592 OFFCURVE",
"221 594 OFFCURVE",
"241 594 CURVE SMOOTH",
"325 594 OFFCURVE",
"365 554 OFFCURVE",
"365 470 CURVE SMOOTH",
"365 370 OFFCURVE",
"317 326 OFFCURVE",
"217 326 CURVE",
"217 290 OFFCURVE",
"261 280 OFFCURVE",
"297 280 CURVE SMOOTH",
"412 280 OFFCURVE",
"485 359 OFFCURVE",
"485 474 CURVE SMOOTH"
);
}
);
width = 495;
},
{
layerId = "FE90535B-3AA3-425B-8C51-62A09B4DD251";
paths = (
{
closed = 1;
nodes = (
"545 621 OFFCURVE",
"429 665 OFFCURVE",
"277 665 CURVE SMOOTH",
"204 665 OFFCURVE",
"130 660 OFFCURVE",
"55 653 CURVE",
"55 0 LINE",
"221 0 LINE",
"221 587 LINE",
"237 590 OFFCURVE",
"257 592 OFFCURVE",
"273 592 CURVE SMOOTH",
"351 592 OFFCURVE",
"380 543 OFFCURVE",
"380 466 CURVE SMOOTH",
"380 376 OFFCURVE",
"345 332 OFFCURVE",
"254 332 CURVE",
"254 285 OFFCURVE",
"303 271 OFFCURVE",
"349 271 CURVE SMOOTH",
"468 271 OFFCURVE",
"545 351 OFFCURVE",
"545 469 CURVE SMOOTH"
);
}
);
width = 557;
},
{
layerId = "7F032AFA-3553-4546-BF24-20A331365DC8";
paths = (
{
closed = 1;
nodes = (
"604 626 OFFCURVE",
"467 665 OFFCURVE",
"306 665 CURVE SMOOTH",
"220 665 OFFCURVE",
"141 660 OFFCURVE",
"50 651 CURVE",
"50 0 LINE",
"264 0 LINE",
"264 585 LINE",
"277 589 OFFCURVE",
"293 591 OFFCURVE",
"306 591 CURVE SMOOTH",
"376 591 OFFCURVE",
"394 533 OFFCURVE",
"394 462 CURVE SMOOTH",
"394 381 OFFCURVE",
"373 337 OFFCURVE",
"292 337 CURVE",
"292 280 OFFCURVE",
"344 263 OFFCURVE",
"402 263 CURVE SMOOTH",
"523 263 OFFCURVE",
"604 344 OFFCURVE",
"604 465 CURVE SMOOTH"
);
}
);
width = 618;
},
{
layerId = "BF71592D-3612-466C-93C9-07DC553C6A84";
paths = (
{
closed = 1;
nodes = (
"664 631 OFFCURVE",
"506 666 OFFCURVE",
"335 666 CURVE SMOOTH",
"236 666 OFFCURVE",
"151 660 OFFCURVE",
"45 648 CURVE",
"45 0 LINE",
"309 0 LINE",
"309 583 LINE",
"318 587 OFFCURVE",
"329 589 OFFCURVE",
"339 589 CURVE SMOOTH",
"403 589 OFFCURVE",
"408 522 OFFCURVE",
"408 458 CURVE SMOOTH",
"408 387 OFFCURVE",
"401 343 OFFCURVE",
"330 343 CURVE",
"330 275 OFFCURVE",
"386 254 OFFCURVE",
"455 254 CURVE SMOOTH",
"579 254 OFFCURVE",
"664 336 OFFCURVE",
"664 460 CURVE SMOOTH"
);
}
);
width = 680;
},
{
layerId = "98CB3373-E4B4-4DFB-B394-21602E31464B";
paths = (
{
closed = 1;
nodes = (
"462 614 OFFCURVE",
"377 664 OFFCURVE",
"240 664 CURVE SMOOTH",
"186 664 OFFCURVE",
"119 660 OFFCURVE",
"67 657 CURVE",
"67 0 LINE",
"162 0 LINE",
"162 590 LINE",
"183 593 OFFCURVE",
"209 595 OFFCURVE",
"231 595 CURVE SMOOTH",
"318 595 OFFCURVE",
"363 559 OFFCURVE",
"363 472 CURVE SMOOTH",
"363 367 OFFCURVE",
"309 323 OFFCURVE",
"205 323 CURVE",
"205 292 OFFCURVE",
"247 284 OFFCURVE",
"278 284 CURVE SMOOTH",
"391 284 OFFCURVE",
"462 363 OFFCURVE",
"462 476 CURVE SMOOTH"
);
}
);
width = 476;
}
);
note = P;
rightKerningGroup = P;
unicode = 0050;
},
{
glyphname = Thorn;
layers = (
{
layerId = "67CA47D2-7D83-49C3-A4CA-636F78AAFD20";
paths = (
{
closed = 1;
nodes = (
"177 660 LINE",
"60 660 LINE",
"60 0 LINE",
"177 0 LINE",
"177 463 LINE",
"197 466 OFFCURVE",
"221 468 OFFCURVE",
"241 468 CURVE SMOOTH",
"325 468 OFFCURVE",
"365 428 OFFCURVE",
"365 344 CURVE SMOOTH",
"365 244 OFFCURVE",
"317 200 OFFCURVE",
"217 200 CURVE",
"217 164 OFFCURVE",
"261 154 OFFCURVE",
"297 154 CURVE SMOOTH",
"412 154 OFFCURVE",
"485 233 OFFCURVE",
"485 348 CURVE SMOOTH",
"485 490 OFFCURVE",
"390 538 OFFCURVE",
"248 538 CURVE SMOOTH",
"225 538 OFFCURVE",
"201 537 OFFCURVE",
"177 536 CURVE"
);
}
);
width = 495;
},
{
layerId = "FE90535B-3AA3-425B-8C51-62A09B4DD251";
paths = (
{
closed = 1;
nodes = (
"221 660 LINE",
"55 660 LINE",
"55 0 LINE",
"221 0 LINE",
"221 460 LINE",
"237 463 OFFCURVE",
"257 465 OFFCURVE",
"273 465 CURVE SMOOTH",
"351 465 OFFCURVE",
"380 416 OFFCURVE",
"380 339 CURVE SMOOTH",
"380 249 OFFCURVE",
"345 205 OFFCURVE",
"254 205 CURVE",
"254 158 OFFCURVE",
"303 144 OFFCURVE",
"349 144 CURVE SMOOTH",
"468 144 OFFCURVE",
"545 224 OFFCURVE",
"545 342 CURVE SMOOTH",
"545 494 OFFCURVE",
"429 537 OFFCURVE",
"277 537 CURVE SMOOTH",
"258 537 OFFCURVE",
"240 537 OFFCURVE",
"221 537 CURVE"
);
}
);
width = 557;
},
{
layerId = "7F032AFA-3553-4546-BF24-20A331365DC8";
paths = (
{
closed = 1;
nodes = (
"264 660 LINE",
"50 660 LINE",
"50 0 LINE",
"264 0 LINE",
"264 457 LINE",
"277 461 OFFCURVE",
"293 463 OFFCURVE",
"306 463 CURVE SMOOTH",
"376 463 OFFCURVE",
"394 404 OFFCURVE",
"394 334 CURVE SMOOTH",
"394 253 OFFCURVE",
"372 209 OFFCURVE",
"292 209 CURVE",
"292 153 OFFCURVE",
"344 135 OFFCURVE",
"402 135 CURVE SMOOTH",
"523 135 OFFCURVE",
"604 216 OFFCURVE",
"604 337 CURVE SMOOTH",
"604 498 OFFCURVE",
"469 537 OFFCURVE",
"308 537 CURVE SMOOTH",
"293 537 OFFCURVE",
"279 536 OFFCURVE",
"264 535 CURVE"
);
}
);
width = 618;
},
{
layerId = "BF71592D-3612-466C-93C9-07DC553C6A84";
paths = (
{
closed = 1;
nodes = (
"309 660 LINE",
"45 660 LINE",
"45 0 LINE",
"309 0 LINE",
"309 454 LINE",
"318 458 OFFCURVE",
"329 460 OFFCURVE",
"339 460 CURVE SMOOTH",
"403 460 OFFCURVE",
"408 393 OFFCURVE",
"408 329 CURVE SMOOTH",
"408 258 OFFCURVE",
"381 214 OFFCURVE",
"330 214 CURVE",
"330 170 OFFCURVE",
"386 125 OFFCURVE",
"455 125 CURVE SMOOTH",
"579 125 OFFCURVE",
"664 207 OFFCURVE",
"664 331 CURVE SMOOTH",
"664 502 OFFCURVE",
"554 536 OFFCURVE",
"383 536 CURVE SMOOTH",
"358 536 OFFCURVE",
"334 534 OFFCURVE",
"309 533 CURVE"
);
}
);
width = 680;
},
{
layerId = "98CB3373-E4B4-4DFB-B394-21602E31464B";
paths = (
{
closed = 1;
nodes = (
"162 660 LINE",
"67 660 LINE",
"67 0 LINE",
"162 0 LINE",
"162 464 LINE",
"183 467 OFFCURVE",
"209 469 OFFCURVE",
"231 469 CURVE SMOOTH",
"318 469 OFFCURVE",
"363 434 OFFCURVE",
"363 346 CURVE SMOOTH",
"363 242 OFFCURVE",
"309 198 OFFCURVE",
"205 198 CURVE",
"205 167 OFFCURVE",
"247 159 OFFCURVE",
"278 159 CURVE SMOOTH",
"391 159 OFFCURVE",
"462 237 OFFCURVE",
"462 351 CURVE SMOOTH",
"462 488 OFFCURVE",
"377 538 OFFCURVE",
"239 538 CURVE SMOOTH",
"214 538 OFFCURVE",
"188 537 OFFCURVE",
"162 536 CURVE"
);
}
);
width = 476;
}
);
note = Thorn;
unicode = 00DE;
},
{
glyphname = Q;
layers = (
{
background = {
paths = (
{
closed = 1;
nodes = (
"97 680 OFFCURVE",
"34 520 OFFCURVE",
"34 327 CURVE SMOOTH",
"34 131 OFFCURVE",
"89 -22 OFFCURVE",
"283 -22 CURVE SMOOTH",
"482 -22 OFFCURVE",
"547 140 OFFCURVE",
"547 339 CURVE SMOOTH",
"547 533 OFFCURVE",
"485 680 OFFCURVE",
"291 680 CURVE SMOOTH"
);
},
{
closed = 1;
nodes = (
"169 48 OFFCURVE",
"160 210 OFFCURVE",
"160 332 CURVE SMOOTH",
"160 450 OFFCURVE",
"173 610 OFFCURVE",
"290 610 CURVE SMOOTH",
"408 610 OFFCURVE",
"421 450 OFFCURVE",
"421 332 CURVE SMOOTH",
"421 210 OFFCURVE",
"412 48 OFFCURVE",
"290 48 CURVE SMOOTH"
);
},
{
closed = 1;
nodes = (
"180 -14 OFFCURVE",
"151 -29 OFFCURVE",
"151 -60 CURVE SMOOTH",
"151 -70 OFFCURVE",
"155 -81 OFFCURVE",
"163 -93 CURVE",
"181 -86 OFFCURVE",
"198 -85 OFFCURVE",
"215 -85 CURVE SMOOTH",
"293 -85 OFFCURVE",
"373 -144 OFFCURVE",
"467 -144 CURVE SMOOTH",
"524 -144 OFFCURVE",
"560 -112 OFFCURVE",
"560 -69 CURVE SMOOTH",
"560 -55 OFFCURVE",
"556 -40 OFFCURVE",
"547 -24 CURVE",
"519 -40 OFFCURVE",
"488 -46 OFFCURVE",
"454 -46 CURVE SMOOTH",
"375 -46 OFFCURVE",
"287 -14 OFFCURVE",
"224 -14 CURVE SMOOTH"
);
}
);
};
layerId = "67CA47D2-7D83-49C3-A4CA-636F78AAFD20";
paths = (
{
closed = 1;
nodes = (
"97 680 OFFCURVE",
"34 520 OFFCURVE",
"34 327 CURVE SMOOTH",
"34 131 OFFCURVE",
"89 -22 OFFCURVE",
"283 -22 CURVE SMOOTH",
"482 -22 OFFCURVE",
"547 140 OFFCURVE",
"547 339 CURVE SMOOTH",
"547 533 OFFCURVE",
"485 680 OFFCURVE",
"291 680 CURVE SMOOTH"
);
},
{
closed = 1;
nodes = (
"169 48 OFFCURVE",
"160 210 OFFCURVE",
"160 332 CURVE SMOOTH",
"160 450 OFFCURVE",
"173 610 OFFCURVE",
"290 610 CURVE SMOOTH",
"408 610 OFFCURVE",
"421 450 OFFCURVE",
"421 332 CURVE SMOOTH",
"421 210 OFFCURVE",
"412 48 OFFCURVE",
"290 48 CURVE SMOOTH"
);
},
{
closed = 1;
nodes = (
"186 -14 OFFCURVE",
"153 -31 OFFCURVE",
"153 -66 CURVE SMOOTH",
"153 -75 OFFCURVE",
"156 -84 OFFCURVE",
"161 -93 CURVE",
"180 -86 OFFCURVE",
"197 -85 OFFCURVE",
"214 -85 CURVE SMOOTH",
"292 -85 OFFCURVE",
"374 -144 OFFCURVE",
"468 -144 CURVE SMOOTH",
"545 -144 OFFCURVE",
"592 -107 OFFCURVE",
"592 -58 CURVE SMOOTH",
"592 -47 OFFCURVE",
"590 -36 OFFCURVE",
"585 -24 CURVE",
"554 -40 OFFCURVE",
"517 -46 OFFCURVE",
"469 -46 CURVE SMOOTH",
"390 -46 OFFCURVE",
"296 -14 OFFCURVE",
"233 -14 CURVE SMOOTH"
);
}
);
width = 581;
},
{
background = {
paths = (
{
closed = 1;
nodes = (
"109 680 OFFCURVE",
"27 531 OFFCURVE",
"27 326 CURVE SMOOTH",
"27 162 OFFCURVE",
"81 34 OFFCURVE",
"211 -6 CURVE",
"165 -7 OFFCURVE",
"128 -16 OFFCURVE",
"128 -61 CURVE SMOOTH",
"128 -76 OFFCURVE",
"135 -93 OFFCURVE",
"146 -104 CURVE",
"165 -95 OFFCURVE",
"192 -94 OFFCURVE",
"214 -94 CURVE SMOOTH",
"310 -94 OFFCURVE",
"412 -166 OFFCURVE",
"515 -166 CURVE SMOOTH",
"566 -166 OFFCURVE",
"603 -146 OFFCURVE",
"603 -91 CURVE SMOOTH",
"603 -65 OFFCURVE",
"592 -43 OFFCURVE",
"578 -20 CURVE",
"552 -44 OFFCURVE",
"522 -48 OFFCURVE",
"490 -48 CURVE SMOOTH",
"438 -48 OFFCURVE",
"367 -35 OFFCURVE",
"314 -22 CURVE",
"500 -21 OFFCURVE",
"599 134 OFFCURVE",
"599 339 CURVE SMOOTH",
"599 544 OFFCURVE",
"518 680 OFFCURVE",
"313 680 CURVE SMOOTH"
);
},
{
closed = 1;
nodes = (
"412 608 OFFCURVE",
"420 448 OFFCURVE",
"420 333 CURVE SMOOTH",
"420 215 OFFCURVE",
"413 50 OFFCURVE",
"313 50 CURVE SMOOTH",
"212 50 OFFCURVE",
"205 215 OFFCURVE",
"205 333 CURVE SMOOTH",
"205 448 OFFCURVE",
"214 608 OFFCURVE",
"313 608 CURVE SMOOTH"
);
}
);
};
layerId = "FE90535B-3AA3-425B-8C51-62A09B4DD251";
paths = (
{
closed = 1;
nodes = (
"109 680 OFFCURVE",
"27 531 OFFCURVE",
"27 326 CURVE SMOOTH",
"27 127 OFFCURVE",
"111 -22 OFFCURVE",
"309 -22 CURVE SMOOTH",
"510 -22 OFFCURVE",
"599 148 OFFCURVE",
"599 349 CURVE SMOOTH",
"599 549 OFFCURVE",
"513 680 OFFCURVE",
"313 680 CURVE SMOOTH"
);
},
{
closed = 1;
nodes = (
"212 50 OFFCURVE",
"205 215 OFFCURVE",
"205 333 CURVE SMOOTH",
"205 448 OFFCURVE",
"214 608 OFFCURVE",
"313 608 CURVE SMOOTH",
"412 608 OFFCURVE",
"420 448 OFFCURVE",
"420 333 CURVE SMOOTH",
"420 215 OFFCURVE",
"413 50 OFFCURVE",
"313 50 CURVE SMOOTH"
);
},
{
closed = 1;
nodes = (
"164 -6 OFFCURVE",
"129 -37 OFFCURVE",
"129 -74 CURVE SMOOTH",
"129 -83 OFFCURVE",
"132 -94 OFFCURVE",
"137 -104 CURVE",
"161 -97 OFFCURVE",
"184 -94 OFFCURVE",
"206 -94 CURVE SMOOTH",
"313 -94 OFFCURVE",
"413 -166 OFFCURVE",
"513 -166 CURVE SMOOTH",
"594 -166 OFFCURVE",
"633 -119 OFFCURVE",
"633 -59 CURVE SMOOTH",
"633 -46 OFFCURVE",
"631 -33 OFFCURVE",
"627 -20 CURVE",
"594 -41 OFFCURVE",
"543 -48 OFFCURVE",
"505 -48 CURVE SMOOTH",
"415 -48 OFFCURVE",
"304 -6 OFFCURVE",
"235 -6 CURVE SMOOTH"
);
}
);
width = 626;
},
{
background = {
paths = (
{
closed = 1;
nodes = (
"120 680 OFFCURVE",
"20 541 OFFCURVE",
"20 326 CURVE SMOOTH",
"20 168 OFFCURVE",
"86 48 OFFCURVE",
"208 0 CURVE",
"153 -1 OFFCURVE",
"106 -10 OFFCURVE",
"106 -65 CURVE SMOOTH",
"106 -83 OFFCURVE",
"114 -102 OFFCURVE",
"128 -117 CURVE",
"151 -105 OFFCURVE",
"183 -104 OFFCURVE",
"208 -104 CURVE SMOOTH",
"323 -104 OFFCURVE",
"434 -189 OFFCURVE",
"548 -189 CURVE SMOOTH",
"603 -189 OFFCURVE",
"644 -166 OFFCURVE",
"644 -100 CURVE SMOOTH",
"644 -68 OFFCURVE",
"632 -44 OFFCURVE",
"617 -18 CURVE",
"588 -46 OFFCURVE",
"556 -50 OFFCURVE",
"521 -50 CURVE SMOOTH",
"466 -50 OFFCURVE",
"394 -36 OFFCURVE",
"336 -22 CURVE",
"511 -20 OFFCURVE",
"651 128 OFFCURVE",
"651 339 CURVE SMOOTH",
"651 554 OFFCURVE",
"551 680 OFFCURVE",
"335 680 CURVE SMOOTH"
);
},
{
closed = 1;
nodes = (
"415 606 OFFCURVE",
"420 447 OFFCURVE",
"420 333 CURVE SMOOTH",
"420 219 OFFCURVE",
"415 52 OFFCURVE",
"335 52 CURVE SMOOTH",
"255 52 OFFCURVE",
"250 219 OFFCURVE",
"250 333 CURVE SMOOTH",
"250 447 OFFCURVE",
"255 606 OFFCURVE",
"335 606 CURVE SMOOTH"
);
}
);
};
layerId = "7F032AFA-3553-4546-BF24-20A331365DC8";
paths = (
{
closed = 1;
nodes = (
"120 680 OFFCURVE",
"20 541 OFFCURVE",
"20 326 CURVE SMOOTH",
"20 126 OFFCURVE",
"125 -19 OFFCURVE",
"325 -19 CURVE SMOOTH",
"538 -19 OFFCURVE",
"651 147 OFFCURVE",
"651 359 CURVE SMOOTH",
"651 564 OFFCURVE",
"541 680 OFFCURVE",
"335 680 CURVE SMOOTH"
);
},
{
closed = 1;
nodes = (
"255 52 OFFCURVE",
"250 219 OFFCURVE",
"250 333 CURVE SMOOTH",
"250 447 OFFCURVE",
"255 606 OFFCURVE",
"335 606 CURVE SMOOTH",
"415 606 OFFCURVE",
"420 447 OFFCURVE",
"420 333 CURVE SMOOTH",
"420 219 OFFCURVE",
"415 52 OFFCURVE",
"335 52 CURVE SMOOTH"
);
},
{
closed = 1;
nodes = (
"144 0 OFFCURVE",
"107 -39 OFFCURVE",
"107 -80 CURVE SMOOTH",
"107 -92 OFFCURVE",
"110 -105 OFFCURVE",
"116 -117 CURVE",
"147 -108 OFFCURVE",
"176 -104 OFFCURVE",
"202 -104 CURVE SMOOTH",
"327 -104 OFFCURVE",
"421 -189 OFFCURVE",
"522 -189 CURVE SMOOTH",
"631 -189 OFFCURVE",
"675 -133 OFFCURVE",
"675 -61 CURVE SMOOTH",
"675 -47 OFFCURVE",
"673 -33 OFFCURVE",
"668 -18 CURVE",
"631 -42 OFFCURVE",
"581 -50 OFFCURVE",
"546 -50 CURVE SMOOTH",
"418 -50 OFFCURVE",
"347 0 OFFCURVE",
"234 0 CURVE SMOOTH"
);
}
);
width = 670;
},
{
background = {
paths = (
{
closed = 1;
nodes = (
"131 680 OFFCURVE",
"12 552 OFFCURVE",
"12 325 CURVE SMOOTH",
"12 174 OFFCURVE",
"89 61 OFFCURVE",
"205 7 CURVE",
"139 5 OFFCURVE",
"84 -3 OFFCURVE",
"84 -69 CURVE SMOOTH",
"84 -91 OFFCURVE",
"93 -112 OFFCURVE",
"109 -129 CURVE",
"135 -116 OFFCURVE",
"173 -115 OFFCURVE",
"202 -115 CURVE SMOOTH",
"336 -115 OFFCURVE",
"457 -213 OFFCURVE",
"581 -213 CURVE SMOOTH",
"641 -213 OFFCURVE",
"686 -186 OFFCURVE",
"686 -110 CURVE SMOOTH",
"686 -72 OFFCURVE",
"673 -46 OFFCURVE",
"657 -15 CURVE",
"624 -48 OFFCURVE",
"590 -53 OFFCURVE",
"551 -53 CURVE SMOOTH",
"494 -53 OFFCURVE",
"421 -38 OFFCURVE",
"359 -22 CURVE",
"521 -19 OFFCURVE",
"703 122 OFFCURVE",
"703 339 CURVE SMOOTH",
"703 565 OFFCURVE",
"584 680 OFFCURVE",
"358 680 CURVE SMOOTH"
);
},
{
closed = 1;
nodes = (
"419 604 OFFCURVE",
"419 445 OFFCURVE",
"419 334 CURVE SMOOTH",
"419 224 OFFCURVE",
"417 54 OFFCURVE",
"358 54 CURVE SMOOTH",
"299 54 OFFCURVE",
"296 224 OFFCURVE",
"296 334 CURVE SMOOTH",
"296 445 OFFCURVE",
"297 604 OFFCURVE",
"358 604 CURVE SMOOTH"
);
}
);
};
layerId = "BF71592D-3612-466C-93C9-07DC553C6A84";
paths = (
{
closed = 1;
nodes = (
"131 680 OFFCURVE",
"12 552 OFFCURVE",
"12 325 CURVE SMOOTH",
"12 132 OFFCURVE",
"142 -19 OFFCURVE",
"337 -19 CURVE SMOOTH",
"551 -19 OFFCURVE",
"703 135 OFFCURVE",
"703 349 CURVE SMOOTH",
"703 570 OFFCURVE",
"579 680 OFFCURVE",
"358 680 CURVE SMOOTH"
);
},
{
closed = 1;
nodes = (
"299 54 OFFCURVE",
"296 224 OFFCURVE",
"296 334 CURVE SMOOTH",
"296 445 OFFCURVE",
"297 604 OFFCURVE",
"358 604 CURVE SMOOTH",
"419 604 OFFCURVE",
"419 445 OFFCURVE",
"419 334 CURVE SMOOTH",
"419 224 OFFCURVE",
"417 54 OFFCURVE",
"358 54 CURVE SMOOTH"
);
},
{
closed = 1;
nodes = (
"138 7 OFFCURVE",
"86 -39 OFFCURVE",
"86 -88 CURVE SMOOTH",
"86 -102 OFFCURVE",
"91 -116 OFFCURVE",
"100 -129 CURVE",
"132 -119 OFFCURVE",
"160 -115 OFFCURVE",
"189 -115 CURVE SMOOTH",
"325 -115 OFFCURVE",
"448 -213 OFFCURVE",
"560 -213 CURVE SMOOTH",
"666 -213 OFFCURVE",
"725 -160 OFFCURVE",
"725 -69 CURVE SMOOTH",
"725 -51 OFFCURVE",
"722 -33 OFFCURVE",
"716 -15 CURVE",
"671 -43 OFFCURVE",
"614 -53 OFFCURVE",
"570 -53 CURVE SMOOTH",
"464 -53 OFFCURVE",
"343 7 OFFCURVE",
"217 7 CURVE SMOOTH"
);
}
);
width = 716;
},
{
layerId = "98CB3373-E4B4-4DFB-B394-21602E31464B";
paths = (
{
closed = 1;
nodes = (
"97 680 OFFCURVE",
"42 515 OFFCURVE",
"42 327 CURVE SMOOTH",
"42 133 OFFCURVE",
"85 -22 OFFCURVE",
"277 -22 CURVE SMOOTH",
"474 -22 OFFCURVE",
"528 137 OFFCURVE",
"528 334 CURVE SMOOTH",
"528 526 OFFCURVE",
"477 680 OFFCURVE",
"286 680 CURVE SMOOTH"
);
},
{
closed = 1;
nodes = (
"154 47 OFFCURVE",
"144 208 OFFCURVE",
"144 332 CURVE SMOOTH",
"144 451 OFFCURVE",
"159 611 OFFCURVE",
"284 611 CURVE SMOOTH",
"411 611 OFFCURVE",
"426 451 OFFCURVE",
"426 332 CURVE SMOOTH",
"426 208 OFFCURVE",
"416 47 OFFCURVE",
"284 47 CURVE SMOOTH"
);
},
{
closed = 1;
nodes = (
"201 -17 OFFCURVE",
"169 -29 OFFCURVE",
"169 -63 CURVE SMOOTH",
"169 -71 OFFCURVE",
"172 -79 OFFCURVE",
"177 -88 CURVE",
"193 -81 OFFCURVE",
"207 -81 OFFCURVE",
"222 -81 CURVE SMOOTH",
"288 -81 OFFCURVE",
"364 -134 OFFCURVE",
"456 -134 CURVE SMOOTH",
"529 -134 OFFCURVE",
"578 -101 OFFCURVE",
"578 -57 CURVE SMOOTH",
"578 -47 OFFCURVE",
"576 -37 OFFCURVE",
"571 -26 CURVE",
"541 -40 OFFCURVE",
"509 -45 OFFCURVE",
"457 -45 CURVE SMOOTH",
"386 -45 OFFCURVE",
"293 -17 OFFCURVE",
"237 -17 CURVE SMOOTH"
);
}
);
width = 570;
}
);
note = Q;
unicode = 0051;
},
{
glyphname = R;
layers = (
{
anchors = (
{
name = bottom;
position = "{273, 0}";
},
{
name = top;
position = "{272, 660}";
}
);
layerId = "67CA47D2-7D83-49C3-A4CA-636F78AAFD20";
paths = (
{
closed = 1;
nodes = (
"485 615 OFFCURVE",
"388 664 OFFCURVE",
"248 664 CURVE SMOOTH",
"188 664 OFFCURVE",
"119 660 OFFCURVE",
"60 656 CURVE",
"60 0 LINE",
"177 0 LINE",
"177 589 LINE",
"197 592 OFFCURVE",
"221 594 OFFCURVE",
"241 594 CURVE SMOOTH",
"325 594 OFFCURVE",
"365 555 OFFCURVE",
"365 475 CURVE SMOOTH",
"365 378 OFFCURVE",
"318 336 OFFCURVE",
"218 336 CURVE",
"218 329 OFFCURVE",
"220 323 OFFCURVE",
"224 316 CURVE SMOOTH",
"402 0 LINE",
"530 0 LINE",
"357 298 LINE",
"436 320 OFFCURVE",
"485 388 OFFCURVE",
"485 479 CURVE SMOOTH"
);
}
);
width = 531;
},
{
anchors = (
{
name = bottom;
position = "{303, 0}";
},
{
name = top;
position = "{302, 660}";
}
);
layerId = "FE90535B-3AA3-425B-8C51-62A09B4DD251";
paths = (
{
closed = 1;
nodes = (
"540 622 OFFCURVE",
"429 665 OFFCURVE",
"277 665 CURVE SMOOTH",
"204 665 OFFCURVE",
"130 660 OFFCURVE",
"55 653 CURVE",
"55 0 LINE",
"221 0 LINE",
"221 587 LINE",
"237 590 OFFCURVE",
"257 592 OFFCURVE",
"273 592 CURVE SMOOTH",
"348 592 OFFCURVE",
"374 542 OFFCURVE",
"374 468 CURVE SMOOTH",
"374 382 OFFCURVE",
"343 337 OFFCURVE",
"255 337 CURVE",
"255 326 OFFCURVE",
"258 317 OFFCURVE",
"263 307 CURVE SMOOTH",
"410 0 LINE",
"584 0 LINE",
"417 288 LINE",
"493 314 OFFCURVE",
"540 381 OFFCURVE",
"540 472 CURVE SMOOTH"
);
}
);
width = 577;
},
{
anchors = (
{
name = bottom;
position = "{326, 0}";
},
{
name = top;
position = "{325, 660}";
}
);
layerId = "7F032AFA-3553-4546-BF24-20A331365DC8";
paths = (
{
closed = 1;
nodes = (
"594 628 OFFCURVE",
"469 665 OFFCURVE",
"306 665 CURVE SMOOTH",
"220 665 OFFCURVE",
"141 660 OFFCURVE",
"50 651 CURVE",
"50 0 LINE",
"264 0 LINE",
"264 585 LINE",
"277 589 OFFCURVE",
"293 591 OFFCURVE",
"306 591 CURVE SMOOTH",
"371 591 OFFCURVE",
"384 528 OFFCURVE",
"384 462 CURVE SMOOTH",
"384 386 OFFCURVE",
"367 337 OFFCURVE",
"292 337 CURVE",
"292 323 OFFCURVE",
"296 311 OFFCURVE",
"301 298 CURVE SMOOTH",
"418 0 LINE",
"637 0 LINE",
"478 279 LINE",
"550 308 OFFCURVE",
"594 375 OFFCURVE",
"594 465 CURVE SMOOTH"
);
}
);
width = 622;
},
{
anchors = (
{
name = bottom;
position = "{347, 0}";
},
{
name = top;
position = "{346, 660}";
}
);
layerId = "BF71592D-3612-466C-93C9-07DC553C6A84";
paths = (
{
closed = 1;
nodes = (
"649 635 OFFCURVE",
"510 666 OFFCURVE",
"335 666 CURVE SMOOTH",
"236 666 OFFCURVE",
"151 660 OFFCURVE",
"45 648 CURVE",
"45 0 LINE",
"309 0 LINE",
"309 583 LINE",
"318 587 OFFCURVE",
"329 589 OFFCURVE",
"339 589 CURVE SMOOTH",
"395 589 OFFCURVE",
"393 515 OFFCURVE",
"393 455 CURVE SMOOTH",
"393 390 OFFCURVE",
"393 338 OFFCURVE",
"330 338 CURVE",
"330 320 OFFCURVE",
"335 305 OFFCURVE",
"340 288 CURVE SMOOTH",
"425 0 LINE",
"691 0 LINE",
"540 269 LINE",
"608 302 OFFCURVE",
"649 368 OFFCURVE",
"649 457 CURVE SMOOTH"
);
}
);
width = 669;
},
{
anchors = (
{
name = bottom;
position = "{265, 0}";
},
{
name = top;
position = "{264, 660}";
}
);
layerId = "98CB3373-E4B4-4DFB-B394-21602E31464B";
paths = (
{
closed = 1;
nodes = (
"465 612 OFFCURVE",
"374 664 OFFCURVE",
"240 664 CURVE SMOOTH",
"186 664 OFFCURVE",
"119 660 OFFCURVE",
"67 657 CURVE",
"67 0 LINE",
"162 0 LINE",
"162 590 LINE",
"183 593 OFFCURVE",
"209 595 OFFCURVE",
"231 595 CURVE SMOOTH",
"319 595 OFFCURVE",
"366 561 OFFCURVE",
"366 478 CURVE SMOOTH",
"366 376 OFFCURVE",
"311 336 OFFCURVE",
"206 336 CURVE",
"206 330 OFFCURVE",
"207 326 OFFCURVE",
"211 320 CURVE SMOOTH",
"403 0 LINE",
"510 0 LINE",
"334 303 LINE",
"414 323 OFFCURVE",
"465 391 OFFCURVE",
"465 482 CURVE SMOOTH"
);
}
);
width = 520;
}
);
note = R;
unicode = 0052;
},
{
glyphname = S;
layers = (
{
anchors = (
{
name = bottom;
position = "{227, 0}";
},
{
name = top;
position = "{236, 660}";
}
);
layerId = "67CA47D2-7D83-49C3-A4CA-636F78AAFD20";
paths = (
{
closed = 1;
nodes = (
"133 680 OFFCURVE",
"44 621 OFFCURVE",
"44 511 CURVE SMOOTH",
"44 311 OFFCURVE",
"332 286 OFFCURVE",
"332 135 CURVE SMOOTH",
"332 78 OFFCURVE",
"289 44 OFFCURVE",
"232 44 CURVE SMOOTH",
"170 44 OFFCURVE",
"142 77 OFFCURVE",
"142 139 CURVE SMOOTH",
"142 153 OFFCURVE",
"145 175 OFFCURVE",
"150 189 CURVE",
"137 201 OFFCURVE",
"115 205 OFFCURVE",
"98 205 CURVE SMOOTH",
"50 205 OFFCURVE",
"20 171 OFFCURVE",
"20 124 CURVE SMOOTH",
"20 17 OFFCURVE",
"116 -22 OFFCURVE",
"223 -22 CURVE SMOOTH",
"347 -22 OFFCURVE",
"442 42 OFFCURVE",
"442 165 CURVE SMOOTH",
"442 365 OFFCURVE",
"154 390 OFFCURVE",
"154 541 CURVE SMOOTH",
"154 590 OFFCURVE",
"186 614 OFFCURVE",
"235 614 CURVE SMOOTH",
"290 614 OFFCURVE",
"313 581 OFFCURVE",
"313 526 CURVE SMOOTH",
"313 512 OFFCURVE",
"310 490 OFFCURVE",
"306 476 CURVE",
"319 464 OFFCURVE",
"341 460 OFFCURVE",
"358 460 CURVE SMOOTH",
"405 460 OFFCURVE",
"435 494 OFFCURVE",
"435 541 CURVE SMOOTH",
"435 645 OFFCURVE",
"348 680 OFFCURVE",
"244 680 CURVE SMOOTH"
);
}
);
width = 472;
},
{
anchors = (
{
name = bottom;
position = "{245, 0}";
},
{
name = top;
position = "{260, 660}";
}
);
layerId = "FE90535B-3AA3-425B-8C51-62A09B4DD251";
paths = (
{
closed = 1;
nodes = (
"148 680 OFFCURVE",
"36 616 OFFCURVE",
"36 494 CURVE SMOOTH",
"36 284 OFFCURVE",
"339 289 OFFCURVE",
"339 131 CURVE SMOOTH",
"339 79 OFFCURVE",
"302 48 OFFCURVE",
"249 48 CURVE SMOOTH",
"186 48 OFFCURVE",
"163 89 OFFCURVE",
"163 152 CURVE SMOOTH",
"163 169 OFFCURVE",
"166 187 OFFCURVE",
"170 205 CURVE",
"156 213 OFFCURVE",
"134 216 OFFCURVE",
"118 216 CURVE SMOOTH",
"60 216 OFFCURVE",
"17 178 OFFCURVE",
"17 118 CURVE SMOOTH",
"17 11 OFFCURVE",
"131 -22 OFFCURVE",
"238 -22 CURVE SMOOTH",
"377 -22 OFFCURVE",
"489 39 OFFCURVE",
"489 178 CURVE SMOOTH",
"489 389 OFFCURVE",
"186 383 OFFCURVE",
"186 541 CURVE SMOOTH",
"186 585 OFFCURVE",
"214 610 OFFCURVE",
"258 610 CURVE SMOOTH",
"310 610 OFFCURVE",
"331 576 OFFCURVE",
"331 525 CURVE SMOOTH",
"331 507 OFFCURVE",
"329 485 OFFCURVE",
"324 467 CURVE",
"339 459 OFFCURVE",
"360 456 OFFCURVE",
"376 456 CURVE SMOOTH",
"434 456 OFFCURVE",
"478 488 OFFCURVE",
"478 548 CURVE SMOOTH",
"478 649 OFFCURVE",
"370 680 OFFCURVE",
"270 680 CURVE SMOOTH"
);
}
);
width = 513;
},
{
anchors = (
{
name = bottom;
position = "{258, 0}";
},
{
name = top;
position = "{281, 660}";
}
);
layerId = "7F032AFA-3553-4546-BF24-20A331365DC8";
paths = (
{
closed = 1;
nodes = (
"162 680 OFFCURVE",
"29 612 OFFCURVE",
"29 477 CURVE SMOOTH",
"29 256 OFFCURVE",
"346 292 OFFCURVE",
"346 128 CURVE SMOOTH",
"346 79 OFFCURVE",
"315 52 OFFCURVE",
"266 52 CURVE SMOOTH",
"202 52 OFFCURVE",
"185 101 OFFCURVE",
"185 165 CURVE SMOOTH",
"185 185 OFFCURVE",
"187 200 OFFCURVE",
"191 220 CURVE",
"175 225 OFFCURVE",
"154 226 OFFCURVE",
"139 226 CURVE SMOOTH",
"71 226 OFFCURVE",
"14 185 OFFCURVE",
"14 113 CURVE SMOOTH",
"14 6 OFFCURVE",
"145 -22 OFFCURVE",
"252 -22 CURVE SMOOTH",
"407 -22 OFFCURVE",
"535 37 OFFCURVE",
"535 192 CURVE SMOOTH",
"535 413 OFFCURVE",
"218 377 OFFCURVE",
"218 541 CURVE SMOOTH",
"218 581 OFFCURVE",
"242 606 OFFCURVE",
"282 606 CURVE SMOOTH",
"331 606 OFFCURVE",
"349 572 OFFCURVE",
"349 524 CURVE SMOOTH",
"349 502 OFFCURVE",
"347 481 OFFCURVE",
"343 459 CURVE",
"359 454 OFFCURVE",
"380 452 OFFCURVE",
"395 452 CURVE SMOOTH",
"463 452 OFFCURVE",
"520 483 OFFCURVE",
"520 555 CURVE SMOOTH",
"520 652 OFFCURVE",
"393 680 OFFCURVE",
"296 680 CURVE SMOOTH"
);
}
);
width = 555;
},
{
anchors = (
{
name = bottom;
position = "{288, 0}";
},
{
name = top;
position = "{307, 660}";
}
);
layerId = "BF71592D-3612-466C-93C9-07DC553C6A84";
paths = (
{
closed = 1;
nodes = (
"176 680 OFFCURVE",
"21 607 OFFCURVE",
"21 460 CURVE SMOOTH",
"21 227 OFFCURVE",
"354 295 OFFCURVE",
"354 124 CURVE SMOOTH",
"354 80 OFFCURVE",
"328 56 OFFCURVE",
"283 56 CURVE SMOOTH",
"218 56 OFFCURVE",
"207 112 OFFCURVE",
"207 178 CURVE SMOOTH",
"207 201 OFFCURVE",
"209 212 OFFCURVE",
"212 235 CURVE",
"195 236 OFFCURVE",
"174 237 OFFCURVE",
"160 237 CURVE SMOOTH",
"81 237 OFFCURVE",
"11 193 OFFCURVE",
"11 107 CURVE SMOOTH",
"11 0 OFFCURVE",
"159 -22 OFFCURVE",
"266 -22 CURVE SMOOTH",
"437 -22 OFFCURVE",
"583 34 OFFCURVE",
"583 205 CURVE SMOOTH",
"583 438 OFFCURVE",
"250 370 OFFCURVE",
"250 541 CURVE SMOOTH",
"250 576 OFFCURVE",
"271 602 OFFCURVE",
"306 602 CURVE SMOOTH",
"352 602 OFFCURVE",
"367 567 OFFCURVE",
"367 523 CURVE SMOOTH",
"367 497 OFFCURVE",
"365 476 OFFCURVE",
"362 450 CURVE",
"380 449 OFFCURVE",
"400 448 OFFCURVE",
"414 448 CURVE SMOOTH",
"493 448 OFFCURVE",
"563 477 OFFCURVE",
"563 563 CURVE SMOOTH",
"563 656 OFFCURVE",
"416 680 OFFCURVE",
"323 680 CURVE SMOOTH"
);
}
);
width = 597;
},
{
anchors = (
{
name = bottom;
position = "{224, 0}";
},
{
name = top;
position = "{230, 660}";
}
);
layerId = "98CB3373-E4B4-4DFB-B394-21602E31464B";
paths = (
{
closed = 1;
nodes = (
"131 680 OFFCURVE",
"53 623 OFFCURVE",
"53 519 CURVE SMOOTH",
"53 324 OFFCURVE",
"334 285 OFFCURVE",
"334 137 CURVE SMOOTH",
"334 78 OFFCURVE",
"288 42 OFFCURVE",
"229 42 CURVE SMOOTH",
"168 42 OFFCURVE",
"137 71 OFFCURVE",
"137 133 CURVE SMOOTH",
"137 146 OFFCURVE",
"140 169 OFFCURVE",
"146 182 CURVE",
"133 195 OFFCURVE",
"111 200 OFFCURVE",
"94 200 CURVE SMOOTH",
"50 200 OFFCURVE",
"26 168 OFFCURVE",
"26 127 CURVE SMOOTH",
"26 20 OFFCURVE",
"114 -22 OFFCURVE",
"221 -22 CURVE SMOOTH",
"338 -22 OFFCURVE",
"425 43 OFFCURVE",
"425 159 CURVE SMOOTH",
"425 354 OFFCURVE",
"144 393 OFFCURVE",
"144 541 CURVE SMOOTH",
"144 592 OFFCURVE",
"178 616 OFFCURVE",
"229 616 CURVE SMOOTH",
"286 616 OFFCURVE",
"310 583 OFFCURVE",
"310 526 CURVE SMOOTH",
"310 514 OFFCURVE",
"306 492 OFFCURVE",
"303 480 CURVE",
"315 466 OFFCURVE",
"337 462 OFFCURVE",
"355 462 CURVE SMOOTH",
"397 462 OFFCURVE",
"420 497 OFFCURVE",
"420 538 CURVE SMOOTH",
"420 643 OFFCURVE",
"343 680 OFFCURVE",
"237 680 CURVE SMOOTH"
);
}
);
width = 463;
}
);
note = S;
unicode = 0053;
},
{
glyphname = Germandbls;
layers = (
{
layerId = "67CA47D2-7D83-49C3-A4CA-636F78AAFD20";
paths = (
{
closed = 1;
nodes = (
"50 0 LINE",
"167 0 LINE",
"165 332 LINE SMOOTH",
"164 468 OFFCURVE",
"175 610 OFFCURVE",
"310 610 CURVE SMOOTH",
"355 610 OFFCURVE",
"391 591 OFFCURVE",
"419 555 CURVE",
"356 538 OFFCURVE",
"305 503 OFFCURVE",
"305 438 CURVE SMOOTH",
"305 269 OFFCURVE",
"535 273 OFFCURVE",
"535 135 CURVE SMOOTH",
"535 77 OFFCURVE",
"504 44 OFFCURVE",
"446 44 CURVE SMOOTH",
"388 44 OFFCURVE",
"365 81 OFFCURVE",
"365 139 CURVE SMOOTH",
"365 153 OFFCURVE",
"368 175 OFFCURVE",
"373 189 CURVE",
"360 201 OFFCURVE",
"338 205 OFFCURVE",
"321 205 CURVE SMOOTH",
"274 205 OFFCURVE",
"244 171 OFFCURVE",
"244 124 CURVE SMOOTH",
"244 21 OFFCURVE",
"334 -22 OFFCURVE",
"437 -22 CURVE SMOOTH",
"558 -22 OFFCURVE",
"638 38 OFFCURVE",
"638 159 CURVE SMOOTH",
"638 328 OFFCURVE",
"407 360 OFFCURVE",
"407 451 CURVE SMOOTH",
"407 514 OFFCURVE",
"474 536 OFFCURVE",
"535 555 CURVE",
"494 637 OFFCURVE",
"410 680 OFFCURVE",
"319 680 CURVE SMOOTH",
"105 680 OFFCURVE",
"47 546 OFFCURVE",
"48 332 CURVE SMOOTH"
);
}
);
width = 646;
},
{
layerId = "FE90535B-3AA3-425B-8C51-62A09B4DD251";
paths = (
{
closed = 1;
nodes = (
"44 0 LINE",
"212 0 LINE",
"211 332 LINE SMOOTH",
"210 490 OFFCURVE",
"227 607 OFFCURVE",
"347 607 CURVE SMOOTH",
"396 607 OFFCURVE",
"431 586 OFFCURVE",
"456 554 CURVE",
"389 534 OFFCURVE",
"328 494 OFFCURVE",
"328 419 CURVE SMOOTH",
"328 269 OFFCURVE",
"552 246 OFFCURVE",
"552 116 CURVE SMOOTH",
"552 69 OFFCURVE",
"526 39 OFFCURVE",
"479 39 CURVE SMOOTH",
"430 39 OFFCURVE",
"413 75 OFFCURVE",
"413 125 CURVE SMOOTH",
"413 140 OFFCURVE",
"415 159 OFFCURVE",
"419 175 CURVE",
"407 184 OFFCURVE",
"381 187 OFFCURVE",
"366 187 CURVE SMOOTH",
"314 187 OFFCURVE",
"271 158 OFFCURVE",
"271 105 CURVE SMOOTH",
"271 10 OFFCURVE",
"376 -22 OFFCURVE",
"471 -22 CURVE SMOOTH",
"595 -22 OFFCURVE",
"690 30 OFFCURVE",
"690 154 CURVE SMOOTH",
"690 309 OFFCURVE",
"462 356 OFFCURVE",
"462 452 CURVE SMOOTH",
"462 516 OFFCURVE",
"533 540 OFFCURVE",
"595 554 CURVE",
"544 643 OFFCURVE",
"454 680 OFFCURVE",
"352 680 CURVE SMOOTH",
"125 680 OFFCURVE",
"43 553 OFFCURVE",
"43 326 CURVE SMOOTH"
);
}
);
width = 702;
},
{
layerId = "7F032AFA-3553-4546-BF24-20A331365DC8";
paths = (
{
closed = 1;
nodes = (
"40 0 LINE",
"257 0 LINE",
"257 332 LINE SMOOTH",
"257 512 OFFCURVE",
"280 605 OFFCURVE",
"386 605 CURVE SMOOTH",
"437 605 OFFCURVE",
"471 581 OFFCURVE",
"494 554 CURVE",
"424 531 OFFCURVE",
"353 485 OFFCURVE",
"353 401 CURVE SMOOTH",
"353 269 OFFCURVE",
"569 218 OFFCURVE",
"569 97 CURVE SMOOTH",
"569 62 OFFCURVE",
"549 35 OFFCURVE",
"514 35 CURVE SMOOTH",
"472 35 OFFCURVE",
"461 69 OFFCURVE",
"461 110 CURVE SMOOTH",
"461 126 OFFCURVE",
"463 144 OFFCURVE",
"465 160 CURVE",
"454 167 OFFCURVE",
"425 169 OFFCURVE",
"412 169 CURVE SMOOTH",
"354 169 OFFCURVE",
"300 145 OFFCURVE",
"300 87 CURVE SMOOTH",
"300 0 OFFCURVE",
"419 -22 OFFCURVE",
"507 -22 CURVE SMOOTH",
"634 -22 OFFCURVE",
"744 22 OFFCURVE",
"744 149 CURVE SMOOTH",
"744 291 OFFCURVE",
"518 352 OFFCURVE",
"518 453 CURVE SMOOTH",
"518 517 OFFCURVE",
"592 544 OFFCURVE",
"656 554 CURVE",
"595 648 OFFCURVE",
"498 680 OFFCURVE",
"386 680 CURVE SMOOTH",
"146 680 OFFCURVE",
"40 560 OFFCURVE",
"40 321 CURVE SMOOTH"
);
}
);
width = 759;
},
{
layerId = "BF71592D-3612-466C-93C9-07DC553C6A84";
paths = (
{
closed = 1;
nodes = (
"35 0 LINE",
"303 0 LINE",
"304 332 LINE SMOOTH",
"305 535 OFFCURVE",
"333 602 OFFCURVE",
"425 602 CURVE SMOOTH",
"479 602 OFFCURVE",
"512 576 OFFCURVE",
"532 553 CURVE",
"458 527 OFFCURVE",
"378 475 OFFCURVE",
"378 383 CURVE SMOOTH",
"378 269 OFFCURVE",
"586 189 OFFCURVE",
"586 78 CURVE SMOOTH",
"586 54 OFFCURVE",
"572 30 OFFCURVE",
"548 30 CURVE SMOOTH",
"515 30 OFFCURVE",
"510 63 OFFCURVE",
"510 96 CURVE SMOOTH",
"510 113 OFFCURVE",
"512 129 OFFCURVE",
"512 146 CURVE",
"502 150 OFFCURVE",
"470 151 OFFCURVE",
"459 151 CURVE SMOOTH",
"395 151 OFFCURVE",
"328 132 OFFCURVE",
"328 69 CURVE SMOOTH",
"328 -11 OFFCURVE",
"462 -22 OFFCURVE",
"542 -22 CURVE SMOOTH",
"673 -22 OFFCURVE",
"797 13 OFFCURVE",
"797 144 CURVE SMOOTH",
"797 273 OFFCURVE",
"574 348 OFFCURVE",
"574 454 CURVE SMOOTH",
"574 519 OFFCURVE",
"652 548 OFFCURVE",
"717 553 CURVE",
"646 654 OFFCURVE",
"543 680 OFFCURVE",
"420 680 CURVE SMOOTH",
"167 680 OFFCURVE",
"36 568 OFFCURVE",
"36 315 CURVE SMOOTH"
);
}
);
width = 816;
},
{
layerId = "98CB3373-E4B4-4DFB-B394-21602E31464B";
paths = (
{
closed = 1;
nodes = (
"58 0 LINE",
"151 0 LINE",
"149 332 LINE SMOOTH",
"147 458 OFFCURVE",
"156 611 OFFCURVE",
"298 611 CURVE SMOOTH",
"341 611 OFFCURVE",
"377 593 OFFCURVE",
"407 555 CURVE",
"345 540 OFFCURVE",
"299 507 OFFCURVE",
"299 447 CURVE SMOOTH",
"299 269 OFFCURVE",
"532 286 OFFCURVE",
"532 144 CURVE SMOOTH",
"532 81 OFFCURVE",
"499 46 OFFCURVE",
"435 46 CURVE SMOOTH",
"373 46 OFFCURVE",
"348 84 OFFCURVE",
"348 146 CURVE SMOOTH",
"348 159 OFFCURVE",
"351 182 OFFCURVE",
"357 196 CURVE",
"343 209 OFFCURVE",
"323 213 OFFCURVE",
"305 213 CURVE SMOOTH",
"260 213 OFFCURVE",
"236 177 OFFCURVE",
"236 133 CURVE SMOOTH",
"236 26 OFFCURVE",
"319 -22 OFFCURVE",
"426 -22 CURVE SMOOTH",
"546 -22 OFFCURVE",
"619 42 OFFCURVE",
"619 161 CURVE SMOOTH",
"619 337 OFFCURVE",
"386 362 OFFCURVE",
"386 451 CURVE SMOOTH",
"386 513 OFFCURVE",
"452 534 OFFCURVE",
"512 555 CURVE",
"476 634 OFFCURVE",
"395 680 OFFCURVE",
"309 680 CURVE SMOOTH",
"101 680 OFFCURVE",
"54 543 OFFCURVE",
"55 335 CURVE SMOOTH"
);
}
);
width = 630;
}
);
note = uni1E9E;
unicode = 1E9E;
},
{
glyphname = Schwa;
layers = (
{
layerId = "67CA47D2-7D83-49C3-A4CA-636F78AAFD20";
paths = (
{
closed = 1;
nodes = (
"169 683 OFFCURVE",
"59 626 OFFCURVE",
"59 530 CURVE SMOOTH",
"59 507 OFFCURVE",
"65 485 OFFCURVE",
"87 473 CURVE",
"120 542 OFFCURVE",
"179 594 OFFCURVE",
"254 594 CURVE SMOOTH",
"367 594 OFFCURVE",
"388 478 OFFCURVE",
"391 364 CURVE",
"374 365 OFFCURVE",
"342 367 OFFCURVE",
"321 367 CURVE SMOOTH",
"163 367 OFFCURVE",
"34 325 OFFCURVE",
"34 166 CURVE SMOOTH",
"34 44 OFFCURVE",
"122 -22 OFFCURVE",
"244 -22 CURVE SMOOTH",
"451 -22 OFFCURVE",
"523 139 OFFCURVE",
"523 346 CURVE SMOOTH",
"523 539 OFFCURVE",
"461 683 OFFCURVE",
"266 683 CURVE SMOOTH"
);
},
{
closed = 1;
nodes = (
"202 50 OFFCURVE",
"174 109 OFFCURVE",
"174 173 CURVE SMOOTH",
"174 269 OFFCURVE",
"239 302 OFFCURVE",
"335 302 CURVE SMOOTH",
"352 302 OFFCURVE",
"372 301 OFFCURVE",
"391 299 CURVE",
"390 190 OFFCURVE",
"368 50 OFFCURVE",
"264 50 CURVE SMOOTH"
);
}
);
width = 557;
},
{
layerId = "FE90535B-3AA3-425B-8C51-62A09B4DD251";
paths = (
{
closed = 1;
nodes = (
"169 683 OFFCURVE",
"50 627 OFFCURVE",
"50 519 CURVE SMOOTH",
"50 494 OFFCURVE",
"60 466 OFFCURVE",
"83 455 CURVE",
"115 521 OFFCURVE",
"179 569 OFFCURVE",
"250 569 CURVE SMOOTH",
"357 569 OFFCURVE",
"387 468 OFFCURVE",
"392 362 CURVE",
"375 363 OFFCURVE",
"337 365 OFFCURVE",
"316 365 CURVE SMOOTH",
"155 365 OFFCURVE",
"27 328 OFFCURVE",
"27 164 CURVE SMOOTH",
"27 36 OFFCURVE",
"138 -22 OFFCURVE",
"263 -22 CURVE SMOOTH",
"481 -22 OFFCURVE",
"574 118 OFFCURVE",
"574 337 CURVE SMOOTH",
"574 544 OFFCURVE",
"485 683 OFFCURVE",
"277 683 CURVE SMOOTH"
);
},
{
closed = 1;
nodes = (
"228 52 OFFCURVE",
"198 110 OFFCURVE",
"198 168 CURVE SMOOTH",
"198 270 OFFCURVE",
"264 303 OFFCURVE",
"367 302 CURVE SMOOTH",
"375 302 OFFCURVE",
"384 302 OFFCURVE",
"392 302 CURVE",
"391 206 OFFCURVE",
"375 52 OFFCURVE",
"282 52 CURVE SMOOTH"
);
}
);
width = 601;
},
{
layerId = "7F032AFA-3553-4546-BF24-20A331365DC8";
paths = (
{
closed = 1;
nodes = (
"168 683 OFFCURVE",
"42 628 OFFCURVE",
"42 507 CURVE SMOOTH",
"42 480 OFFCURVE",
"55 448 OFFCURVE",
"79 437 CURVE",
"110 499 OFFCURVE",
"179 543 OFFCURVE",
"246 543 CURVE SMOOTH",
"348 543 OFFCURVE",
"386 458 OFFCURVE",
"392 360 CURVE",
"376 362 OFFCURVE",
"332 364 OFFCURVE",
"310 364 CURVE SMOOTH",
"147 364 OFFCURVE",
"20 331 OFFCURVE",
"20 163 CURVE SMOOTH",
"20 28 OFFCURVE",
"155 -22 OFFCURVE",
"283 -22 CURVE SMOOTH",
"512 -22 OFFCURVE",
"625 98 OFFCURVE",
"625 329 CURVE SMOOTH",
"625 549 OFFCURVE",
"509 683 OFFCURVE",
"287 683 CURVE SMOOTH"
);
},
{
closed = 1;
nodes = (
"253 54 OFFCURVE",
"222 110 OFFCURVE",
"222 163 CURVE SMOOTH",
"222 258 OFFCURVE",
"275 306 OFFCURVE",
"365 304 CURVE SMOOTH",
"374 304 OFFCURVE",
"383 303 OFFCURVE",
"393 302 CURVE",
"392 218 OFFCURVE",
"383 54 OFFCURVE",
"301 54 CURVE SMOOTH"
);
}
);
width = 644;
},
{
layerId = "BF71592D-3612-466C-93C9-07DC553C6A84";
paths = (
{
closed = 1;
nodes = (
"167 683 OFFCURVE",
"33 629 OFFCURVE",
"33 496 CURVE SMOOTH",
"33 467 OFFCURVE",
"50 430 OFFCURVE",
"75 419 CURVE",
"105 477 OFFCURVE",
"179 516 OFFCURVE",
"242 516 CURVE SMOOTH",
"338 516 OFFCURVE",
"385 447 OFFCURVE",
"393 358 CURVE",
"377 360 OFFCURVE",
"327 362 OFFCURVE",
"304 362 CURVE SMOOTH",
"138 362 OFFCURVE",
"12 334 OFFCURVE",
"12 161 CURVE SMOOTH",
"12 19 OFFCURVE",
"172 -22 OFFCURVE",
"303 -22 CURVE SMOOTH",
"542 -22 OFFCURVE",
"676 77 OFFCURVE",
"676 320 CURVE SMOOTH",
"676 554 OFFCURVE",
"534 683 OFFCURVE",
"297 683 CURVE SMOOTH"
);
},
{
closed = 1;
nodes = (
"263 56 OFFCURVE",
"247 111 OFFCURVE",
"247 158 CURVE SMOOTH",
"247 250 OFFCURVE",
"298 303 OFFCURVE",
"373 303 CURVE SMOOTH",
"380 303 OFFCURVE",
"387 303 OFFCURVE",
"394 302 CURVE",
"394 225 OFFCURVE",
"391 56 OFFCURVE",
"311 56 CURVE SMOOTH"
);
}
);
width = 689;
},
{
layerId = "98CB3373-E4B4-4DFB-B394-21602E31464B";
paths = (
{
closed = 1;
nodes = (
"174 683 OFFCURVE",
"68 626 OFFCURVE",
"68 535 CURVE SMOOTH",
"68 513 OFFCURVE",
"72 494 OFFCURVE",
"94 481 CURVE",
"127 552 OFFCURVE",
"184 606 OFFCURVE",
"261 606 CURVE SMOOTH",
"377 606 OFFCURVE",
"393 483 OFFCURVE",
"396 365 CURVE",
"379 366 OFFCURVE",
"349 368 OFFCURVE",
"328 368 CURVE SMOOTH",
"172 368 OFFCURVE",
"42 324 OFFCURVE",
"42 167 CURVE SMOOTH",
"42 48 OFFCURVE",
"119 -22 OFFCURVE",
"240 -22 CURVE SMOOTH",
"442 -22 OFFCURVE",
"504 149 OFFCURVE",
"504 350 CURVE SMOOTH",
"504 537 OFFCURVE",
"455 683 OFFCURVE",
"266 683 CURVE SMOOTH"
);
},
{
closed = 1;
nodes = (
"195 49 OFFCURVE",
"168 109 OFFCURVE",
"168 175 CURVE SMOOTH",
"168 270 OFFCURVE",
"234 301 OFFCURVE",
"329 302 CURVE SMOOTH",
"349 302 OFFCURVE",
"373 301 OFFCURVE",
"396 298 CURVE",
"395 183 OFFCURVE",
"370 49 OFFCURVE",
"261 49 CURVE SMOOTH"
);
}
);
width = 547;
}
);
note = uni018F;
unicode = 018F;
},
{
glyphname = T;
layers = (
{
anchors = (
{
name = bottom;
position = "{200, 0}";
},
{
name = center;
position = "{200, 366}";
},
{
name = top;
position = "{200, 660}";
}
);
layerId = "67CA47D2-7D83-49C3-A4CA-636F78AAFD20";
paths = (
{
closed = 1;
nodes = (
"420 660 LINE",
"-14 660 LINE",
"-14 586 LINE",
"142 586 LINE",
"142 0 LINE",
"259 0 LINE",
"259 586 LINE",
"413 586 LINE"
);
}
);
width = 401;
},
{
anchors = (
{
name = bottom;
position = "{224, 0}";
},
{
name = center;
position = "{224, 366}";
},
{
name = top;
position = "{224, 660}";
}
);
layerId = "FE90535B-3AA3-425B-8C51-62A09B4DD251";
paths = (
{
closed = 1;
nodes = (
"461 660 LINE",
"-3 660 LINE",
"-3 581 LINE",
"144 581 LINE",
"144 0 LINE",
"310 0 LINE",
"310 581 LINE",
"453 581 LINE"
);
}
);
width = 454;
},
{
anchors = (
{
name = bottom;
position = "{254, 0}";
},
{
name = center;
position = "{254, 366}";
},
{
name = top;
position = "{254, 660}";
}
);
layerId = "7F032AFA-3553-4546-BF24-20A331365DC8";
paths = (
{
closed = 1;
nodes = (
"501 660 LINE",
"8 660 LINE",
"8 576 LINE",
"147 576 LINE",
"147 0 LINE",
"361 0 LINE",
"361 576 LINE",
"493 576 LINE"
);
}
);
width = 506;
},
{
anchors = (
{
name = bottom;
position = "{280, 0}";
},
{
name = center;
position = "{280, 366}";
},
{
name = top;
position = "{280, 660}";
}
);
layerId = "BF71592D-3612-466C-93C9-07DC553C6A84";
paths = (
{
closed = 1;
nodes = (
"542 660 LINE",
"19 660 LINE",
"19 571 LINE",
"148 571 LINE",
"148 0 LINE",
"412 0 LINE",
"412 571 LINE",
"534 571 LINE"
);
}
);
width = 560;
},
{
anchors = (
{
name = bottom;
position = "{193, 0}";
},
{
name = center;
position = "{193, 366}";
},
{
name = top;
position = "{193, 660}";
}
);
layerId = "98CB3373-E4B4-4DFB-B394-21602E31464B";
paths = (
{
closed = 1;
nodes = (
"406 660 LINE",
"-14 660 LINE",
"-14 588 LINE",
"146 588 LINE",
"146 0 LINE",
"240 0 LINE",
"240 588 LINE",
"399 588 LINE"
);
}
);
width = 386;
}
);
leftKerningGroup = T;
note = T;
rightKerningGroup = T;
unicode = 0054;
},
{
glyphname = U;
layers = (
{
anchors = (
{
name = bottom;
position = "{282, 0}";
},
{
name = ogonek;
position = "{367, 0}";
},
{
name = top;
position = "{279, 660}";
},
{
name = topright;
position = "{336, 661}";
}
);
layerId = "67CA47D2-7D83-49C3-A4CA-636F78AAFD20";
paths = (
{
closed = 1;
nodes = (
"492 660 LINE",
"391 660 LINE",
"391 263 LINE SMOOTH",
"391 157 OFFCURVE",
"387 48 OFFCURVE",
"282 48 CURVE SMOOTH",
"177 48 OFFCURVE",
"172 147 OFFCURVE",
"172 252 CURVE SMOOTH",
"172 660 LINE",
"55 660 LINE",
"55 241 LINE SMOOTH",
"55 66 OFFCURVE",
"100 -22 OFFCURVE",
"275 -22 CURVE SMOOTH",
"457 -22 OFFCURVE",
"492 88 OFFCURVE",
"492 274 CURVE SMOOTH"
);
}
);
width = 547;
},
{
anchors = (
{
name = bottom;
position = "{296, 0}";
},
{
name = ogonek;
position = "{388, 0}";
},
{
name = top;
position = "{298, 660}";
},
{
name = topright;
position = "{340, 662}";
}
);
layerId = "FE90535B-3AA3-425B-8C51-62A09B4DD251";
paths = (
{
closed = 1;
nodes = (
"530 660 LINE",
"404 660 LINE",
"404 263 LINE SMOOTH",
"404 143 OFFCURVE",
"397 55 OFFCURVE",
"309 55 CURVE SMOOTH",
"221 55 OFFCURVE",
"214 137 OFFCURVE",
"214 252 CURVE SMOOTH",
"214 660 LINE",
"48 660 LINE",
"48 241 LINE SMOOTH",
"48 61 OFFCURVE",
"114 -22 OFFCURVE",
"294 -22 CURVE SMOOTH",
"482 -22 OFFCURVE",
"530 85 OFFCURVE",
"530 274 CURVE SMOOTH"
);
}
);
width = 579;
},
{
anchors = (
{
name = bottom;
position = "{304, 0}";
},
{
name = ogonek;
position = "{418, 0}";
},
{
name = top;
position = "{317, 660}";
},
{
name = topright;
position = "{345, 661}";
}
);
layerId = "7F032AFA-3553-4546-BF24-20A331365DC8";
paths = (
{
closed = 1;
nodes = (
"569 660 LINE",
"418 660 LINE",
"418 263 LINE SMOOTH",
"418 128 OFFCURVE",
"407 62 OFFCURVE",
"337 62 CURVE SMOOTH",
"266 62 OFFCURVE",
"256 128 OFFCURVE",
"256 252 CURVE SMOOTH",
"256 660 LINE",
"42 660 LINE",
"42 241 LINE SMOOTH",
"42 56 OFFCURVE",
"130 -22 OFFCURVE",
"315 -22 CURVE SMOOTH",
"507 -22 OFFCURVE",
"569 82 OFFCURVE",
"569 274 CURVE SMOOTH"
);
}
);
width = 610;
},
{
anchors = (
{
name = bottom;
position = "{325, 0}";
},
{
name = ogonek;
position = "{439, 0}";
},
{
name = top;
position = "{332, 660}";
},
{
name = topright;
position = "{347, 660}";
}
);
layerId = "BF71592D-3612-466C-93C9-07DC553C6A84";
paths = (
{
closed = 1;
nodes = (
"608 660 LINE",
"431 660 LINE",
"431 263 LINE SMOOTH",
"431 114 OFFCURVE",
"416 70 OFFCURVE",
"364 70 CURVE SMOOTH",
"312 70 OFFCURVE",
"299 118 OFFCURVE",
"299 252 CURVE SMOOTH",
"299 660 LINE",
"35 660 LINE",
"35 241 LINE SMOOTH",
"35 51 OFFCURVE",
"145 -22 OFFCURVE",
"336 -22 CURVE SMOOTH",
"533 -22 OFFCURVE",
"608 79 OFFCURVE",
"608 274 CURVE SMOOTH"
);
}
);
width = 643;
},
{
anchors = (
{
name = bottom;
position = "{281, 0}";
},
{
name = ogonek;
position = "{361, 0}";
},
{
name = top;
position = "{275, 660}";
},
{
name = topright;
position = "{339, 661}";
}
);
layerId = "98CB3373-E4B4-4DFB-B394-21602E31464B";
paths = (
{
closed = 1;
nodes = (
"479 660 LINE",
"390 660 LINE",
"390 263 LINE SMOOTH",
"390 164 OFFCURVE",
"387 45 OFFCURVE",
"274 45 CURVE SMOOTH",
"161 45 OFFCURVE",
"157 152 OFFCURVE",
"157 252 CURVE SMOOTH",
"157 660 LINE",
"63 660 LINE",
"63 241 LINE SMOOTH",
"63 68 OFFCURVE",
"98 -22 OFFCURVE",
"271 -22 CURVE SMOOTH",
"450 -22 OFFCURVE",
"479 89 OFFCURVE",
"479 274 CURVE SMOOTH"
);
}
);
width = 542;
}
);
note = U;
unicode = 0055;
},
{
glyphname = Uhorntilde;
layers = (
{
layerId = "67CA47D2-7D83-49C3-A4CA-636F78AAFD20";
paths = (
{
closed = 1;
nodes = (
"395 810 OFFCURVE",
"372 807 OFFCURVE",
"355 807 CURVE SMOOTH",
"315 807 OFFCURVE",
"241 825 OFFCURVE",
"196 825 CURVE SMOOTH",
"159 825 OFFCURVE",
"128 808 OFFCURVE",
"128 768 CURVE SMOOTH",
"128 751 OFFCURVE",
"136 734 OFFCURVE",
"149 725 CURVE",
"164 737 OFFCURVE",
"187 740 OFFCURVE",
"204 740 CURVE SMOOTH",
"244 740 OFFCURVE",
"319 722 OFFCURVE",
"363 722 CURVE SMOOTH",
"400 722 OFFCURVE",
"431 739 OFFCURVE",
"431 779 CURVE SMOOTH",
"431 796 OFFCURVE",
"423 813 OFFCURVE",
"410 822 CURVE"
);
},
{
closed = 1;
nodes = (
"55 66 OFFCURVE",
"100 -22 OFFCURVE",
"275 -22 CURVE SMOOTH",
"457 -22 OFFCURVE",
"492 88 OFFCURVE",
"492 274 CURVE SMOOTH",
"492 619 LINE",
"557 633 OFFCURVE",
"590 686 OFFCURVE",
"590 732 CURVE SMOOTH",
"590 767 OFFCURVE",
"569 797 OFFCURVE",
"524 797 CURVE SMOOTH",
"498 797 OFFCURVE",
"482 784 OFFCURVE",
"477 770 CURVE",
"495 753 OFFCURVE",
"503 730 OFFCURVE",
"503 710 CURVE SMOOTH",
"503 675 OFFCURVE",
"473 660 OFFCURVE",
"439 660 CURVE SMOOTH",
"423 660 OFFCURVE",
"406 663 OFFCURVE",
"391 669 CURVE",
"391 263 LINE SMOOTH",
"391 157 OFFCURVE",
"387 48 OFFCURVE",
"282 48 CURVE SMOOTH",
"177 48 OFFCURVE",
"172 147 OFFCURVE",
"172 252 CURVE SMOOTH",
"172 660 LINE",
"55 660 LINE",
"55 241 LINE SMOOTH"
);
}
);
width = 547;
},
{
layerId = "FE90535B-3AA3-425B-8C51-62A09B4DD251";
paths = (
{
closed = 1;
nodes = (
"443 813 OFFCURVE",
"418 810 OFFCURVE",
"398 810 CURVE SMOOTH",
"350 810 OFFCURVE",
"264 832 OFFCURVE",
"215 832 CURVE SMOOTH",
"166 832 OFFCURVE",
"127 815 OFFCURVE",
"127 767 CURVE SMOOTH",
"127 749 OFFCURVE",
"134 731 OFFCURVE",
"145 719 CURVE",
"162 734 OFFCURVE",
"187 737 OFFCURVE",
"207 737 CURVE SMOOTH",
"255 737 OFFCURVE",
"340 715 OFFCURVE",
"390 715 CURVE SMOOTH",
"439 715 OFFCURVE",
"478 732 OFFCURVE",
"478 780 CURVE SMOOTH",
"478 798 OFFCURVE",
"471 816 OFFCURVE",
"460 828 CURVE"
);
},
{
closed = 1;
nodes = (
"48 61 OFFCURVE",
"114 -22 OFFCURVE",
"294 -22 CURVE SMOOTH",
"482 -22 OFFCURVE",
"530 85 OFFCURVE",
"530 274 CURVE",
"530 619 LINE",
"590 638 OFFCURVE",
"620 689 OFFCURVE",
"620 733 CURVE SMOOTH",
"620 772 OFFCURVE",
"597 805 OFFCURVE",
"548 805 CURVE SMOOTH",
"522 805 OFFCURVE",
"504 791 OFFCURVE",
"496 774 CURVE",
"514 761 OFFCURVE",
"523 739 OFFCURVE",
"523 718 CURVE SMOOTH",
"523 677 OFFCURVE",
"492 660 OFFCURVE",
"455 660 CURVE SMOOTH",
"438 660 OFFCURVE",
"420 664 OFFCURVE",
"404 670 CURVE",
"404 263 LINE SMOOTH",
"404 143 OFFCURVE",
"397 55 OFFCURVE",
"309 55 CURVE SMOOTH",
"221 55 OFFCURVE",
"214 137 OFFCURVE",
"214 252 CURVE SMOOTH",
"214 660 LINE",
"48 660 LINE",
"48 241 LINE SMOOTH"
);
}
);
width = 579;
},
{
layerId = "7F032AFA-3553-4546-BF24-20A331365DC8";
paths = (
{
closed = 1;
nodes = (
"457 816 OFFCURVE",
"428 813 OFFCURVE",
"405 813 CURVE SMOOTH",
"339 813 OFFCURVE",
"289 837 OFFCURVE",
"237 837 CURVE SMOOTH",
"180 837 OFFCURVE",
"133 820 OFFCURVE",
"133 763 CURVE SMOOTH",
"133 746 OFFCURVE",
"140 726 OFFCURVE",
"149 713 CURVE",
"168 730 OFFCURVE",
"199 733 OFFCURVE",
"222 733 CURVE SMOOTH",
"289 733 OFFCURVE",
"337 709 OFFCURVE",
"389 709 CURVE SMOOTH",
"446 709 OFFCURVE",
"493 726 OFFCURVE",
"493 783 CURVE SMOOTH",
"493 800 OFFCURVE",
"486 820 OFFCURVE",
"477 834 CURVE"
);
},
{
closed = 1;
nodes = (
"42 56 OFFCURVE",
"130 -22 OFFCURVE",
"315 -22 CURVE SMOOTH",
"507 -22 OFFCURVE",
"569 82 OFFCURVE",
"569 274 CURVE SMOOTH",
"569 613 LINE",
"624 635 OFFCURVE",
"652 683 OFFCURVE",
"652 728 CURVE SMOOTH",
"652 781 OFFCURVE",
"620 806 OFFCURVE",
"576 806 CURVE SMOOTH",
"550 806 OFFCURVE",
"524 795 OFFCURVE",
"509 773 CURVE",
"525 760 OFFCURVE",
"533 739 OFFCURVE",
"533 718 CURVE SMOOTH",
"533 677 OFFCURVE",
"506 661 OFFCURVE",
"469 661 CURVE SMOOTH",
"453 661 OFFCURVE",
"436 664 OFFCURVE",
"418 669 CURVE",
"418 263 LINE SMOOTH",
"418 128 OFFCURVE",
"407 62 OFFCURVE",
"337 62 CURVE SMOOTH",
"266 62 OFFCURVE",
"256 128 OFFCURVE",
"256 252 CURVE SMOOTH",
"256 660 LINE",
"42 660 LINE",
"42 241 LINE SMOOTH"
);
}
);
width = 610;
},
{
layerId = "BF71592D-3612-466C-93C9-07DC553C6A84";
paths = (
{
closed = 1;
nodes = (
"482 825 OFFCURVE",
"457 820 OFFCURVE",
"431 820 CURVE SMOOTH",
"336 820 OFFCURVE",
"327 841 OFFCURVE",
"266 841 CURVE SMOOTH",
"201 841 OFFCURVE",
"148 822 OFFCURVE",
"148 762 CURVE SMOOTH",
"148 743 OFFCURVE",
"154 721 OFFCURVE",
"161 704 CURVE",
"183 722 OFFCURVE",
"207 727 OFFCURVE",
"234 727 CURVE SMOOTH",
"328 727 OFFCURVE",
"337 705 OFFCURVE",
"398 705 CURVE SMOOTH",
"467 705 OFFCURVE",
"518 729 OFFCURVE",
"518 787 CURVE SMOOTH",
"518 805 OFFCURVE",
"512 827 OFFCURVE",
"504 842 CURVE"
);
},
{
closed = 1;
nodes = (
"35 51 OFFCURVE",
"145 -22 OFFCURVE",
"336 -22 CURVE SMOOTH",
"533 -22 OFFCURVE",
"608 79 OFFCURVE",
"608 274 CURVE SMOOTH",
"608 606 LINE",
"667 629 OFFCURVE",
"699 681 OFFCURVE",
"699 727 CURVE SMOOTH",
"699 770 OFFCURVE",
"672 808 OFFCURVE",
"614 808 CURVE SMOOTH",
"588 808 OFFCURVE",
"560 797 OFFCURVE",
"545 778 CURVE",
"557 765 OFFCURVE",
"563 745 OFFCURVE",
"563 725 CURVE SMOOTH",
"563 677 OFFCURVE",
"531 661 OFFCURVE",
"488 661 CURVE SMOOTH",
"471 661 OFFCURVE",
"451 664 OFFCURVE",
"431 668 CURVE",
"431 263 LINE SMOOTH",
"431 114 OFFCURVE",
"416 70 OFFCURVE",
"364 70 CURVE SMOOTH",
"312 70 OFFCURVE",
"299 118 OFFCURVE",
"299 252 CURVE SMOOTH",
"299 660 LINE",
"35 660 LINE",
"35 241 LINE SMOOTH"
);
}
);
width = 643;
},
{
layerId = "98CB3373-E4B4-4DFB-B394-21602E31464B";
paths = (
{
closed = 1;
nodes = (
"377 809 OFFCURVE",
"355 806 OFFCURVE",
"339 806 CURVE SMOOTH",
"304 806 OFFCURVE",
"230 822 OFFCURVE",
"187 822 CURVE SMOOTH",
"155 822 OFFCURVE",
"128 805 OFFCURVE",
"128 769 CURVE SMOOTH",
"128 752 OFFCURVE",
"136 736 OFFCURVE",
"150 728 CURVE",
"164 739 OFFCURVE",
"186 742 OFFCURVE",
"201 742 CURVE SMOOTH",
"236 742 OFFCURVE",
"312 725 OFFCURVE",
"354 725 CURVE SMOOTH",
"386 725 OFFCURVE",
"413 742 OFFCURVE",
"413 778 CURVE SMOOTH",
"413 795 OFFCURVE",
"405 811 OFFCURVE",
"391 819 CURVE"
);
},
{
closed = 1;
nodes = (
"58 68 OFFCURVE",
"93 -22 OFFCURVE",
"266 -22 CURVE SMOOTH",
"445 -22 OFFCURVE",
"474 89 OFFCURVE",
"474 274 CURVE SMOOTH",
"474 620 LINE",
"542 632 OFFCURVE",
"576 686 OFFCURVE",
"576 732 CURVE SMOOTH",
"576 764 OFFCURVE",
"557 794 OFFCURVE",
"512 794 CURVE SMOOTH",
"486 794 OFFCURVE",
"472 781 OFFCURVE",
"469 769 CURVE",
"487 750 OFFCURVE",
"495 727 OFFCURVE",
"495 707 CURVE SMOOTH",
"495 674 OFFCURVE",
"465 660 OFFCURVE",
"432 660 CURVE SMOOTH",
"416 660 OFFCURVE",
"399 663 OFFCURVE",
"385 669 CURVE",
"385 263 LINE SMOOTH",
"385 164 OFFCURVE",
"382 45 OFFCURVE",
"269 45 CURVE SMOOTH",
"156 45 OFFCURVE",
"152 152 OFFCURVE",
"152 252 CURVE SMOOTH",
"152 660 LINE",
"58 660 LINE",
"58 241 LINE SMOOTH"
);
}
);
width = 532;
}
);
unicode = 1EEE;
},
{
glyphname = V;
layers = (
{
layerId = "67CA47D2-7D83-49C3-A4CA-636F78AAFD20";
paths = (
{
closed = 1;
nodes = (
"484 660 LINE",
"374 660 LINE",
"244 75 LINE",
"113 660 LINE",
"-5 660 LINE",
"158 0 LINE",
"308 0 LINE"
);
}
);
width = 479;
},
{
layerId = "FE90535B-3AA3-425B-8C51-62A09B4DD251";
paths = (
{
closed = 1;
nodes = (
"542 660 LINE",
"407 660 LINE",
"289 98 LINE",
"168 660 LINE",
"-1 660 LINE",
"159 0 LINE",
"362 0 LINE"
);
}
);
width = 532;
},
{
layerId = "7F032AFA-3553-4546-BF24-20A331365DC8";
paths = (
{
closed = 1;
nodes = (
"598 660 LINE",
"440 660 LINE",
"333 122 LINE",
"222 660 LINE",
"3 660 LINE",
"160 0 LINE",
"415 0 LINE"
);
}
);
width = 584;
},
{
layerId = "BF71592D-3612-466C-93C9-07DC553C6A84";
paths = (
{
closed = 1;
nodes = (
"657 660 LINE",
"475 660 LINE",
"379 146 LINE",
"278 660 LINE",
"7 660 LINE",
"161 0 LINE",
"470 0 LINE"
);
}
);
width = 638;
},
{
layerId = "98CB3373-E4B4-4DFB-B394-21602E31464B";
paths = (
{
closed = 1;
nodes = (
"462 660 LINE",
"364 660 LINE",
"228 64 LINE",
"93 660 LINE",
"-2 660 LINE",
"163 0 LINE",
"288 0 LINE"
);
}
);
width = 464;
}
);
leftKerningGroup = V;
note = V;
rightKerningGroup = V;
unicode = 0056;
},
{
glyphname = W;
layers = (
{
anchors = (
{
name = top;
position = "{399, 660}";
}
);
layerId = "67CA47D2-7D83-49C3-A4CA-636F78AAFD20";
paths = (
{
closed = 1;
nodes = (
"800 660 LINE",
"690 660 LINE",
"574 75 LINE",
"457 660 LINE",
"346 660 LINE",
"230 75 LINE",
"113 660 LINE",
"-5 660 LINE",
"144 0 LINE",
"295 0 LINE",
"391 474 LINE",
"488 0 LINE",
"638 0 LINE"
);
}
);
width = 795;
},
{
anchors = (
{
name = top;
position = "{457, 660}";
}
);
layerId = "FE90535B-3AA3-425B-8C51-62A09B4DD251";
paths = (
{
closed = 1;
nodes = (
"890 660 LINE",
"755 660 LINE",
"644 98 LINE",
"530 660 LINE",
"394 660 LINE",
"282 98 LINE",
"168 660 LINE",
"-1 660 LINE",
"152 0 LINE",
"355 0 LINE",
"434 401 LINE",
"514 0 LINE",
"717 0 LINE"
);
}
);
width = 880;
},
{
anchors = (
{
name = top;
position = "{517, 660}";
}
);
layerId = "7F032AFA-3553-4546-BF24-20A331365DC8";
paths = (
{
closed = 1;
nodes = (
"979 660 LINE",
"821 660 LINE",
"713 122 LINE",
"602 660 LINE",
"441 660 LINE",
"333 122 LINE",
"222 660 LINE",
"3 660 LINE",
"160 0 LINE",
"416 0 LINE",
"476 329 LINE",
"540 0 LINE",
"795 0 LINE"
);
}
);
width = 965;
},
{
anchors = (
{
name = top;
position = "{556, 660}";
}
);
layerId = "BF71592D-3612-466C-93C9-07DC553C6A84";
paths = (
{
closed = 1;
nodes = (
"1071 660 LINE",
"888 660 LINE",
"785 146 LINE",
"677 660 LINE",
"490 660 LINE",
"386 146 LINE",
"278 660 LINE",
"7 660 LINE",
"169 0 LINE",
"478 0 LINE",
"519 254 LINE",
"567 0 LINE",
"876 0 LINE"
);
}
);
width = 1052;
},
{
anchors = (
{
name = top;
position = "{377, 660}";
}
);
layerId = "98CB3373-E4B4-4DFB-B394-21602E31464B";
paths = (
{
closed = 1;
nodes = (
"763 660 LINE",
"665 660 LINE",
"547 64 LINE",
"428 660 LINE",
"329 660 LINE",
"211 64 LINE",
"93 660 LINE",
"-2 660 LINE",
"145 0 LINE",
"272 0 LINE",
"376 508 LINE",
"481 0 LINE",
"606 0 LINE"
);
}
);
width = 765;
}
);
leftKerningGroup = V;
note = W;
rightKerningGroup = V;
unicode = 0057;
},
{
glyphname = X;
layers = (
{
layerId = "67CA47D2-7D83-49C3-A4CA-636F78AAFD20";
paths = (
{
closed = 1;
nodes = (
"509 660 LINE",
"388 660 LINE",
"270 430 LINE",
"143 660 LINE",
"15 660 LINE",
"200 337 LINE",
"1 0 LINE",
"121 0 LINE",
"249 248 LINE",
"387 0 LINE",
"515 0 LINE",
"320 340 LINE"
);
}
);
width = 516;
},
{
layerId = "FE90535B-3AA3-425B-8C51-62A09B4DD251";
paths = (
{
closed = 1;
nodes = (
"526 660 LINE",
"387 660 LINE",
"291 440 LINE",
"181 660 LINE",
"7 660 LINE",
"178 339 LINE",
"-7 0 LINE",
"133 0 LINE",
"235 236 LINE",
"356 0 LINE",
"529 0 LINE",
"349 337 LINE"
);
}
);
width = 523;
},
{
layerId = "7F032AFA-3553-4546-BF24-20A331365DC8";
paths = (
{
closed = 1;
nodes = (
"543 660 LINE",
"386 660 LINE",
"313 449 LINE",
"218 660 LINE",
"-1 660 LINE",
"156 340 LINE",
"-15 0 LINE",
"143 0 LINE",
"221 223 LINE",
"323 0 LINE",
"542 0 LINE",
"378 335 LINE"
);
}
);
width = 529;
},
{
layerId = "BF71592D-3612-466C-93C9-07DC553C6A84";
paths = (
{
closed = 1;
nodes = (
"562 660 LINE",
"385 660 LINE",
"335 459 LINE",
"258 660 LINE",
"-8 660 LINE",
"134 342 LINE",
"-22 0 LINE",
"155 0 LINE",
"207 211 LINE",
"291 0 LINE",
"557 0 LINE",
"408 332 LINE"
);
}
);
width = 536;
},
{
layerId = "98CB3373-E4B4-4DFB-B394-21602E31464B";
paths = (
{
closed = 1;
nodes = (
"506 660 LINE",
"393 660 LINE",
"265 425 LINE",
"130 660 LINE",
"24 660 LINE",
"215 336 LINE",
"10 0 LINE",
"121 0 LINE",
"261 254 LINE",
"407 0 LINE",
"514 0 LINE",
"312 341 LINE"
);
}
);
width = 523;
}
);
note = X;
rightKerningGroup = X;
unicode = 0058;
},
{
glyphname = Y;
layers = (
{
anchors = (
{
name = bottom;
position = "{255, 0}";
},
{
name = top;
position = "{254, 660}";
}
);
layerId = "67CA47D2-7D83-49C3-A4CA-636F78AAFD20";
paths = (
{
closed = 1;
nodes = (
"310 305 LINE",
"502 660 LINE",
"382 660 LINE",
"259 389 LINE",
"129 660 LINE",
"1 660 LINE",
"193 293 LINE",
"193 0 LINE",
"310 0 LINE"
);
}
);
width = 504;
},
{
anchors = (
{
name = bottom;
position = "{274, 0}";
},
{
name = top;
position = "{273, 660}";
}
);
layerId = "FE90535B-3AA3-425B-8C51-62A09B4DD251";
paths = (
{
closed = 1;
nodes = (
"343 302 LINE",
"524 660 LINE",
"385 660 LINE",
"285 394 LINE",
"175 660 LINE",
"1 660 LINE",
"177 291 LINE",
"177 0 LINE",
"343 0 LINE"
);
}
);
width = 528;
},
{
anchors = (
{
name = bottom;
position = "{282, 0}";
},
{
name = top;
position = "{281, 660}";
}
);
layerId = "7F032AFA-3553-4546-BF24-20A331365DC8";
paths = (
{
closed = 1;
nodes = (
"377 299 LINE",
"545 660 LINE",
"387 660 LINE",
"312 399 LINE",
"220 660 LINE",
"1 660 LINE",
"162 290 LINE",
"162 0 LINE",
"377 0 LINE"
);
}
);
width = 553;
},
{
anchors = (
{
name = bottom;
position = "{291, 0}";
},
{
name = top;
position = "{290, 660}";
}
);
layerId = "BF71592D-3612-466C-93C9-07DC553C6A84";
paths = (
{
closed = 1;
nodes = (
"411 296 LINE",
"567 660 LINE",
"390 660 LINE",
"340 404 LINE",
"267 660 LINE",
"1 660 LINE",
"147 288 LINE",
"147 0 LINE",
"411 0 LINE"
);
}
);
width = 579;
},
{
anchors = (
{
name = bottom;
position = "{252, 0}";
},
{
name = top;
position = "{251, 660}";
}
);
layerId = "98CB3373-E4B4-4DFB-B394-21602E31464B";
paths = (
{
closed = 1;
nodes = (
"300 306 LINE",
"497 660 LINE",
"386 660 LINE",
"252 387 LINE",
"113 660 LINE",
"6 660 LINE",
"205 294 LINE",
"205 0 LINE",
"300 0 LINE"
);
}
);
width = 503;
}
);
leftKerningGroup = Y;
note = Y;
rightKerningGroup = Y;
unicode = 0059;
},
{
glyphname = Z;
layers = (
{
anchors = (
{
name = top;
position = "{225, 660}";
}
);
layerId = "67CA47D2-7D83-49C3-A4CA-636F78AAFD20";
paths = (
{
closed = 1;
nodes = (
"400 660 LINE",
"29 660 LINE",
"22 586 LINE",
"281 586 LINE",
"4 73 LINE",
"11 0 LINE",
"409 0 LINE",
"416 74 LINE",
"129 74 LINE",
"407 587 LINE"
);
}
);
width = 420;
},
{
anchors = (
{
name = top;
position = "{238, 660}";
}
);
layerId = "FE90535B-3AA3-425B-8C51-62A09B4DD251";
paths = (
{
closed = 1;
nodes = (
"432 660 LINE",
"28 660 LINE",
"25 578 LINE",
"262 578 LINE",
"6 75 LINE",
"13 0 LINE",
"441 0 LINE",
"450 82 LINE",
"183 82 LINE",
"439 585 LINE"
);
}
);
width = 450;
},
{
anchors = (
{
name = top;
position = "{254, 660}";
}
);
layerId = "7F032AFA-3553-4546-BF24-20A331365DC8";
paths = (
{
closed = 1;
nodes = (
"463 660 LINE",
"27 660 LINE",
"27 570 LINE",
"241 570 LINE",
"7 76 LINE",
"14 0 LINE",
"472 0 LINE",
"482 90 LINE",
"236 90 LINE",
"470 584 LINE"
);
}
);
width = 479;
},
{
anchors = (
{
name = top;
position = "{276, 660}";
}
);
layerId = "BF71592D-3612-466C-93C9-07DC553C6A84";
paths = (
{
closed = 1;
nodes = (
"496 660 LINE",
"26 660 LINE",
"30 561 LINE",
"220 561 LINE",
"9 78 LINE",
"16 0 LINE",
"505 0 LINE",
"517 99 LINE",
"291 99 LINE",
"503 582 LINE"
);
}
);
width = 510;
},
{
anchors = (
{
name = top;
position = "{224, 660}";
}
);
layerId = "98CB3373-E4B4-4DFB-B394-21602E31464B";
paths = (
{
closed = 1;
nodes = (
"390 660 LINE",
"34 660 LINE",
"26 590 LINE",
"295 590 LINE",
"8 72 LINE",
"15 0 LINE",
"399 0 LINE",
"405 70 LINE",
"109 70 LINE",
"397 588 LINE"
);
}
);
width = 416;
}
);
note = Z;
unicode = 005A;
},
{
glyphname = Y.loclGUA;
layers = (
{
anchors = (
{
name = top;
position = "{272, 660}";
}
);
layerId = "67CA47D2-7D83-49C3-A4CA-636F78AAFD20";
paths = (
{
closed = 1;
nodes = (
"491 660 LINE",
"377 660 LINE",
"377 336 LINE SMOOTH",
"377 230 OFFCURVE",
"377 121 OFFCURVE",
"272 121 CURVE SMOOTH",
"167 121 OFFCURVE",
"175 220 OFFCURVE",
"175 325 CURVE SMOOTH",
"175 660 LINE",
"58 660 LINE",
"58 314 LINE SMOOTH",
"58 149 OFFCURVE",
"82 51 OFFCURVE",
"247 51 CURVE SMOOTH",
"295 51 OFFCURVE",
"352 64 OFFCURVE",
"377 106 CURVE",
"377 -7 OFFCURVE",
"377 -135 OFFCURVE",
"272 -135 CURVE SMOOTH",
"224 -135 OFFCURVE",
"198 -109 OFFCURVE",
"198 -61 CURVE SMOOTH",
"198 -45 OFFCURVE",
"201 -29 OFFCURVE",
"206 -12 CURVE",
"195 -4 OFFCURVE",
"176 -1 OFFCURVE",
"162 -1 CURVE SMOOTH",
"111 -1 OFFCURVE",
"78 -25 OFFCURVE",
"78 -76 CURVE SMOOTH",
"78 -166 OFFCURVE",
"172 -199 OFFCURVE",
"261 -199 CURVE SMOOTH",
"452 -199 OFFCURVE",
"491 -64 OFFCURVE",
"491 126 CURVE SMOOTH"
);
}
);
width = 551;
},
{
anchors = (
{
name = top;
position = "{302, 660}";
}
);
layerId = "FE90535B-3AA3-425B-8C51-62A09B4DD251";
paths = (
{
closed = 1;
nodes = (
"544 660 LINE",
"392 660 LINE",
"392 345 LINE SMOOTH",
"392 227 OFFCURVE",
"389 138 OFFCURVE",
"303 138 CURVE SMOOTH",
"218 138 OFFCURVE",
"220 222 OFFCURVE",
"220 334 CURVE SMOOTH",
"220 660 LINE",
"54 660 LINE",
"54 323 LINE SMOOTH",
"54 158 OFFCURVE",
"91 60 OFFCURVE",
"256 60 CURVE SMOOTH",
"307 60 OFFCURVE",
"366 73 OFFCURVE",
"392 116 CURVE",
"392 -7 OFFCURVE",
"387 -130 OFFCURVE",
"291 -130 CURVE SMOOTH",
"242 -130 OFFCURVE",
"220 -100 OFFCURVE",
"220 -52 CURVE SMOOTH",
"220 -33 OFFCURVE",
"223 -15 OFFCURVE",
"227 5 CURVE",
"214 12 OFFCURVE",
"194 14 OFFCURVE",
"180 14 CURVE SMOOTH",
"120 14 OFFCURVE",
"75 -14 OFFCURVE",
"75 -75 CURVE SMOOTH",
"75 -169 OFFCURVE",
"186 -200 OFFCURVE",
"279 -200 CURVE SMOOTH",
"485 -200 OFFCURVE",
"544 -71 OFFCURVE",
"544 135 CURVE SMOOTH"
);
}
);
width = 599;
},
{
anchors = (
{
name = top;
position = "{332, 660}";
}
);
layerId = "7F032AFA-3553-4546-BF24-20A331365DC8";
paths = (
{
closed = 1;
nodes = (
"598 660 LINE",
"406 660 LINE",
"406 354 LINE SMOOTH",
"406 225 OFFCURVE",
"400 154 OFFCURVE",
"335 154 CURVE SMOOTH",
"270 154 OFFCURVE",
"264 224 OFFCURVE",
"264 343 CURVE SMOOTH",
"264 660 LINE",
"50 660 LINE",
"50 332 LINE SMOOTH",
"50 167 OFFCURVE",
"101 69 OFFCURVE",
"266 69 CURVE SMOOTH",
"318 69 OFFCURVE",
"379 81 OFFCURVE",
"406 126 CURVE",
"406 -7 OFFCURVE",
"398 -126 OFFCURVE",
"310 -126 CURVE SMOOTH",
"261 -126 OFFCURVE",
"243 -92 OFFCURVE",
"243 -44 CURVE SMOOTH",
"243 -21 OFFCURVE",
"245 0 OFFCURVE",
"249 22 CURVE",
"233 27 OFFCURVE",
"212 29 OFFCURVE",
"197 29 CURVE SMOOTH",
"129 29 OFFCURVE",
"72 -2 OFFCURVE",
"72 -75 CURVE SMOOTH",
"72 -172 OFFCURVE",
"199 -200 OFFCURVE",
"296 -200 CURVE SMOOTH",
"519 -200 OFFCURVE",
"598 -78 OFFCURVE",
"598 144 CURVE SMOOTH"
);
}
);
width = 647;
},
{
anchors = (
{
name = top;
position = "{361, 660}";
}
);
layerId = "BF71592D-3612-466C-93C9-07DC553C6A84";
paths = (
{
closed = 1;
nodes = (
"652 660 LINE",
"420 660 LINE",
"420 364 LINE SMOOTH",
"420 222 OFFCURVE",
"411 170 OFFCURVE",
"367 170 CURVE SMOOTH",
"322 170 OFFCURVE",
"310 226 OFFCURVE",
"310 353 CURVE SMOOTH",
"310 660 LINE",
"46 660 LINE",
"46 342 LINE SMOOTH",
"46 177 OFFCURVE",
"110 79 OFFCURVE",
"275 79 CURVE SMOOTH",
"329 79 OFFCURVE",
"392 90 OFFCURVE",
"420 137 CURVE",
"420 -7 OFFCURVE",
"408 -121 OFFCURVE",
"330 -121 CURVE SMOOTH",
"280 -121 OFFCURVE",
"266 -83 OFFCURVE",
"266 -35 CURVE SMOOTH",
"266 -10 OFFCURVE",
"268 14 OFFCURVE",
"271 39 CURVE",
"253 42 OFFCURVE",
"230 44 OFFCURVE",
"214 44 CURVE SMOOTH",
"137 44 OFFCURVE",
"69 9 OFFCURVE",
"69 -74 CURVE SMOOTH",
"69 -175 OFFCURVE",
"212 -201 OFFCURVE",
"313 -201 CURVE SMOOTH",
"553 -201 OFFCURVE",
"652 -86 OFFCURVE",
"652 154 CURVE SMOOTH"
);
}
);
width = 696;
},
{
anchors = (
{
name = top;
position = "{263, 660}";
}
);
layerId = "98CB3373-E4B4-4DFB-B394-21602E31464B";
paths = (
{
closed = 1;
nodes = (
"471 660 LINE",
"375 660 LINE",
"375 332 LINE SMOOTH",
"375 231 OFFCURVE",
"377 113 OFFCURVE",
"262 113 CURVE SMOOTH",
"148 113 OFFCURVE",
"159 219 OFFCURVE",
"159 321 CURVE SMOOTH",
"159 660 LINE",
"65 660 LINE",
"65 310 LINE SMOOTH",
"65 145 OFFCURVE",
"83 47 OFFCURVE",
"248 47 CURVE SMOOTH",
"295 47 OFFCURVE",
"351 60 OFFCURVE",
"375 101 CURVE",
"375 -7 OFFCURVE",
"377 -137 OFFCURVE",
"268 -137 CURVE SMOOTH",
"221 -137 OFFCURVE",
"193 -113 OFFCURVE",
"193 -65 CURVE SMOOTH",
"193 -51 OFFCURVE",
"196 -36 OFFCURVE",
"201 -20 CURVE",
"191 -11 OFFCURVE",
"173 -8 OFFCURVE",
"159 -8 CURVE SMOOTH",
"112 -8 OFFCURVE",
"84 -30 OFFCURVE",
"84 -76 CURVE SMOOTH",
"84 -165 OFFCURVE",
"171 -199 OFFCURVE",
"258 -199 CURVE SMOOTH",
"442 -199 OFFCURVE",
"471 -61 OFFCURVE",
"471 122 CURVE SMOOTH"
);
}
);
width = 538;
}
);
note = Y.loclGUA;
},
{
glyphname = Cacute.loclPLK;
layers = (
{
background = {
paths = (
{
closed = 1;
nodes = (
"260 700 LINE",
"323 685 LINE",
"371 747 OFFCURVE",
"391 782 OFFCURVE",
"391 808 CURVE SMOOTH",
"391 838 OFFCURVE",
"366 857 OFFCURVE",
"312 857 CURVE"
);
},
{
closed = 1;
nodes = (
"342 610 OFFCURVE",
"366 576 OFFCURVE",
"366 519 CURVE SMOOTH",
"366 505 OFFCURVE",
"363 483 OFFCURVE",
"358 469 CURVE",
"371 457 OFFCURVE",
"393 453 OFFCURVE",
"410 453 CURVE SMOOTH",
"457 453 OFFCURVE",
"487 487 OFFCURVE",
"487 534 CURVE SMOOTH",
"487 642 OFFCURVE",
"402 680 OFFCURVE",
"294 680 CURVE SMOOTH",
"99 680 OFFCURVE",
"34 521 OFFCURVE",
"34 327 CURVE SMOOTH",
"34 132 OFFCURVE",
"91 -22 OFFCURVE",
"285 -22 CURVE SMOOTH",
"379 -22 OFFCURVE",
"476 26 OFFCURVE",
"476 120 CURVE SMOOTH",
"476 150 OFFCURVE",
"466 170 OFFCURVE",
"437 179 CURVE",
"416 112 OFFCURVE",
"366 70 OFFCURVE",
"295 70 CURVE SMOOTH",
"172 70 OFFCURVE",
"160 209 OFFCURVE",
"160 332 CURVE SMOOTH",
"160 447 OFFCURVE",
"170 610 OFFCURVE",
"285 610 CURVE SMOOTH"
);
}
);
};
components = (
{
name = C;
},
{
name = acute.loclPLK.case.comb;
transform = "{1, 0, 0, 1, 442, 0}";
}
);
layerId = "67CA47D2-7D83-49C3-A4CA-636F78AAFD20";
width = 512;
},
{
background = {
paths = (
{
closed = 1;
nodes = (
"281 700 LINE",
"348 684 LINE",
"391 741 OFFCURVE",
"419 783 OFFCURVE",
"419 808 CURVE SMOOTH",
"419 842 OFFCURVE",
"389 863 OFFCURVE",
"330 863 CURVE"
);
},
{
closed = 1;
nodes = (
"367 608 OFFCURVE",
"384 563 OFFCURVE",
"384 506 CURVE SMOOTH",
"384 489 OFFCURVE",
"381 471 OFFCURVE",
"377 453 CURVE",
"391 445 OFFCURVE",
"413 442 OFFCURVE",
"429 442 CURVE SMOOTH",
"487 442 OFFCURVE",
"530 480 OFFCURVE",
"530 540 CURVE SMOOTH",
"530 647 OFFCURVE",
"429 680 OFFCURVE",
"322 680 CURVE SMOOTH",
"113 680 OFFCURVE",
"27 535 OFFCURVE",
"27 326 CURVE SMOOTH",
"27 132 OFFCURVE",
"103 -22 OFFCURVE",
"314 -22 CURVE SMOOTH",
"416 -22 OFFCURVE",
"526 27 OFFCURVE",
"526 128 CURVE SMOOTH",
"526 159 OFFCURVE",
"514 181 OFFCURVE",
"487 194 CURVE",
"461 133 OFFCURVE",
"414 97 OFFCURVE",
"348 97 CURVE SMOOTH",
"228 97 OFFCURVE",
"205 218 OFFCURVE",
"205 349 CURVE SMOOTH",
"205 447 OFFCURVE",
"212 608 OFFCURVE",
"310 608 CURVE SMOOTH"
);
}
);
};
components = (
{
name = C;
},
{
name = acute.loclPLK.case.comb;
transform = "{1, 0, 0, 1, 483, 0}";
}
);
layerId = "FE90535B-3AA3-425B-8C51-62A09B4DD251";
width = 550;
},
{
background = {
paths = (
{
closed = 1;
nodes = (
"302 700 LINE",
"373 684 LINE",
"412 736 OFFCURVE",
"446 784 OFFCURVE",
"446 808 CURVE SMOOTH",
"446 845 OFFCURVE",
"411 868 OFFCURVE",
"348 868 CURVE"
);
},
{
closed = 1;
nodes = (
"393 606 OFFCURVE",
"402 550 OFFCURVE",
"402 493 CURVE SMOOTH",
"402 473 OFFCURVE",
"400 458 OFFCURVE",
"396 438 CURVE",
"412 433 OFFCURVE",
"433 432 OFFCURVE",
"448 432 CURVE SMOOTH",
"517 432 OFFCURVE",
"573 473 OFFCURVE",
"573 545 CURVE SMOOTH",
"573 652 OFFCURVE",
"457 680 OFFCURVE",
"350 680 CURVE SMOOTH",
"127 680 OFFCURVE",
"20 549 OFFCURVE",
"20 326 CURVE SMOOTH",
"20 132 OFFCURVE",
"115 -22 OFFCURVE",
"344 -22 CURVE SMOOTH",
"452 -22 OFFCURVE",
"576 28 OFFCURVE",
"576 136 CURVE SMOOTH",
"576 167 OFFCURVE",
"563 193 OFFCURVE",
"537 209 CURVE",
"505 155 OFFCURVE",
"463 125 OFFCURVE",
"401 125 CURVE SMOOTH",
"284 125 OFFCURVE",
"250 227 OFFCURVE",
"250 365 CURVE SMOOTH",
"250 447 OFFCURVE",
"253 606 OFFCURVE",
"336 606 CURVE SMOOTH"
);
}
);
};
components = (
{
name = C;
},
{
name = acute.loclPLK.case.comb;
transform = "{1, 0, 0, 1, 525, 0}";
}
);
layerId = "7F032AFA-3553-4546-BF24-20A331365DC8";
width = 589;
},
{
background = {
paths = (
{
closed = 1;
nodes = (
"319 702 LINE",
"399 686 LINE",
"443 742 OFFCURVE",
"469 779 OFFCURVE",
"469 810 CURVE SMOOTH",
"469 846 OFFCURVE",
"436 869 OFFCURVE",
"361 869 CURVE"
);
},
{
closed = 1;
nodes = (
"418 604 OFFCURVE",
"420 537 OFFCURVE",
"420 480 CURVE SMOOTH",
"420 457 OFFCURVE",
"419 446 OFFCURVE",
"416 423 CURVE",
"433 422 OFFCURVE",
"454 421 OFFCURVE",
"468 421 CURVE SMOOTH",
"547 421 OFFCURVE",
"617 465 OFFCURVE",
"617 551 CURVE SMOOTH",
"617 657 OFFCURVE",
"484 680 OFFCURVE",
"378 680 CURVE SMOOTH",
"141 680 OFFCURVE",
"12 563 OFFCURVE",
"12 325 CURVE SMOOTH",
"12 132 OFFCURVE",
"126 -22 OFFCURVE",
"373 -22 CURVE SMOOTH",
"489 -22 OFFCURVE",
"626 29 OFFCURVE",
"626 145 CURVE SMOOTH",
"626 176 OFFCURVE",
"611 204 OFFCURVE",
"587 224 CURVE",
"551 177 OFFCURVE",
"511 154 OFFCURVE",
"454 154 CURVE SMOOTH",
"341 154 OFFCURVE",
"296 237 OFFCURVE",
"296 381 CURVE SMOOTH",
"296 447 OFFCURVE",
"295 604 OFFCURVE",
"361 604 CURVE SMOOTH"
);
}
);
};
components = (
{
name = C;
},
{
name = acute.loclPLK.case.comb;
transform = "{1, 0, 0, 1, 550, 0}";
}
);
layerId = "BF71592D-3612-466C-93C9-07DC553C6A84";
width = 628;
},
{
components = (
{
alignment = -1;
name = C;
},
{
alignment = -1;
name = acute.loclPLK.case.comb;
transform = "{1, 0, 0, 1, 423, 0}";
}
);
layerId = "98CB3373-E4B4-4DFB-B394-21602E31464B";
width = 494;
}
);
note = Cacute.loclPLK;
},
{
glyphname = a;
layers = (
{
anchors = (
{
name = bottom;
position = "{243, 0}";
},
{
name = ogonek;
position = "{429, 0}";
},
{
name = top;
position = "{260, 510}";
}
);
background = {
paths = (
{
closed = 1;
nodes = (
"343 8 OFFCURVE",
"370 -15 OFFCURVE",
"408 -15 CURVE SMOOTH",
"433 -15 OFFCURVE",
"456 -5 OFFCURVE",
"467 16 CURVE",
"443 29 OFFCURVE",
"436 53 OFFCURVE",
"436 82 CURVE SMOOTH",
"436 342 LINE SMOOTH",
"436 474 OFFCURVE",
"394 530 OFFCURVE",
"262 530 CURVE SMOOTH",
"139 530 OFFCURVE",
"63 484 OFFCURVE",
"63 421 CURVE SMOOTH",
"63 374 OFFCURVE",
"94 351 OFFCURVE",
"141 351 CURVE SMOOTH",
"153 351 OFFCURVE",
"172 354 OFFCURVE",
"182 362 CURVE",
"177 377 OFFCURVE",
"174 392 OFFCURVE",
"174 407 CURVE SMOOTH",
"174 452 OFFCURVE",
"209 477 OFFCURVE",
"255 477 CURVE SMOOTH",
"314 477 OFFCURVE",
"326 438 OFFCURVE",
"326 378 CURVE SMOOTH",
"326 291 LINE",
"190 291 OFFCURVE",
"37 265 OFFCURVE",
"37 129 CURVE SMOOTH",
"37 38 OFFCURVE",
"108 -22 OFFCURVE",
"199 -22 CURVE SMOOTH",
"255 -22 OFFCURVE",
"310 -4 OFFCURVE",
"337 46 CURVE"
);
},
{
closed = 1;
nodes = (
"187 45 OFFCURVE",
"157 81 OFFCURVE",
"157 133 CURVE SMOOTH",
"157 220 OFFCURVE",
"240 241 OFFCURVE",
"327 241 CURVE",
"327 162 LINE SMOOTH",
"327 100 OFFCURVE",
"301 45 OFFCURVE",
"239 45 CURVE SMOOTH"
);
}
);
};
layerId = "67CA47D2-7D83-49C3-A4CA-636F78AAFD20";
paths = (
{
closed = 1;
nodes = (
"345 7 OFFCURVE",
"370 -15 OFFCURVE",
"408 -15 CURVE SMOOTH",
"433 -15 OFFCURVE",
"456 -5 OFFCURVE",
"467 16 CURVE",
"443 29 OFFCURVE",
"436 53 OFFCURVE",
"436 82 CURVE SMOOTH",
"436 372 LINE SMOOTH",
"436 474 OFFCURVE",
"373 530 OFFCURVE",
"257 530 CURVE SMOOTH",
"134 530 OFFCURVE",
"63 473 OFFCURVE",
"63 410 CURVE SMOOTH",
"63 363 OFFCURVE",
"94 340 OFFCURVE",
"141 340 CURVE SMOOTH",
"153 340 OFFCURVE",
"172 343 OFFCURVE",
"182 351 CURVE",
"176 366 OFFCURVE",
"174 381 OFFCURVE",
"174 394 CURVE SMOOTH",
"174 441 OFFCURVE",
"205 477 OFFCURVE",
"255 477 CURVE SMOOTH",
"314 477 OFFCURVE",
"326 438 OFFCURVE",
"326 378 CURVE SMOOTH",
"326 291 LINE",
"190 291 OFFCURVE",
"37 265 OFFCURVE",
"37 129 CURVE SMOOTH",
"37 38 OFFCURVE",
"106 -22 OFFCURVE",
"196 -22 CURVE SMOOTH",
"249 -22 OFFCURVE",
"298 -5 OFFCURVE",
"339 40 CURVE"
);
},
{
closed = 1;
nodes = (
"187 45 OFFCURVE",
"157 81 OFFCURVE",
"157 133 CURVE SMOOTH",
"157 220 OFFCURVE",
"240 241 OFFCURVE",
"327 241 CURVE",
"327 162 LINE SMOOTH",
"327 100 OFFCURVE",
"301 45 OFFCURVE",
"239 45 CURVE SMOOTH"
);
}
);
width = 500;
},
{
anchors = (
{
name = bottom;
position = "{256, 0}";
},
{
name = ogonek;
position = "{466, 0}";
},
{
name = top;
position = "{274, 510}";
}
);
background = {
paths = (
{
closed = 1;
nodes = (
"356 6 OFFCURVE",
"391 -15 OFFCURVE",
"440 -15 CURVE SMOOTH",
"467 -15 OFFCURVE",
"500 -6 OFFCURVE",
"516 14 CURVE",
"492 36 OFFCURVE",
"485 65 OFFCURVE",
"485 100 CURVE SMOOTH",
"485 342 LINE SMOOTH",
"485 482 OFFCURVE",
"415 530 OFFCURVE",
"275 530 CURVE SMOOTH",
"165 530 OFFCURVE",
"56 494 OFFCURVE",
"56 413 CURVE SMOOTH",
"56 361 OFFCURVE",
"99 337 OFFCURVE",
"151 337 CURVE SMOOTH",
"164 337 OFFCURVE",
"187 340 OFFCURVE",
"198 347 CURVE",
"195 363 OFFCURVE",
"192 379 OFFCURVE",
"192 395 CURVE SMOOTH",
"192 443 OFFCURVE",
"219 475 OFFCURVE",
"268 475 CURVE SMOOTH",
"323 475 OFFCURVE",
"332 433 OFFCURVE",
"332 378 CURVE SMOOTH",
"332 291 LINE",
"192 291 OFFCURVE",
"26 269 OFFCURVE",
"26 129 CURVE SMOOTH",
"26 31 OFFCURVE",
"110 -22 OFFCURVE",
"209 -22 CURVE SMOOTH",
"264 -22 OFFCURVE",
"319 -5 OFFCURVE",
"344 45 CURVE"
);
},
{
closed = 1;
nodes = (
"208 47 OFFCURVE",
"184 85 OFFCURVE",
"184 133 CURVE SMOOTH",
"184 216 OFFCURVE",
"249 241 OFFCURVE",
"332 241 CURVE",
"332 157 LINE SMOOTH",
"332 102 OFFCURVE",
"312 47 OFFCURVE",
"256 47 CURVE SMOOTH"
);
}
);
};
layerId = "FE90535B-3AA3-425B-8C51-62A09B4DD251";
paths = (
{
closed = 1;
nodes = (
"358 6 OFFCURVE",
"391 -15 OFFCURVE",
"440 -15 CURVE SMOOTH",
"467 -15 OFFCURVE",
"500 -6 OFFCURVE",
"516 14 CURVE",
"491 36 OFFCURVE",
"485 65 OFFCURVE",
"485 100 CURVE SMOOTH",
"485 359 LINE SMOOTH",
"485 481 OFFCURVE",
"390 530 OFFCURVE",
"271 530 CURVE SMOOTH",
"161 530 OFFCURVE",
"56 486 OFFCURVE",
"56 405 CURVE SMOOTH",
"56 353 OFFCURVE",
"99 329 OFFCURVE",
"151 329 CURVE SMOOTH",
"164 329 OFFCURVE",
"187 332 OFFCURVE",
"198 339 CURVE",
"194 353 OFFCURVE",
"192 369 OFFCURVE",
"192 384 CURVE SMOOTH",
"192 431 OFFCURVE",
"213 475 OFFCURVE",
"268 475 CURVE SMOOTH",
"323 475 OFFCURVE",
"332 433 OFFCURVE",
"332 378 CURVE SMOOTH",
"332 291 LINE",
"192 291 OFFCURVE",
"26 269 OFFCURVE",
"26 131 CURVE SMOOTH",
"26 35 OFFCURVE",
"102 -22 OFFCURVE",
"199 -22 CURVE SMOOTH",
"257 -22 OFFCURVE",
"306 -8 OFFCURVE",
"346 40 CURVE"
);
},
{
closed = 1;
nodes = (
"208 47 OFFCURVE",
"184 85 OFFCURVE",
"184 133 CURVE SMOOTH",
"184 216 OFFCURVE",
"249 241 OFFCURVE",
"332 241 CURVE",
"332 157 LINE SMOOTH",
"332 102 OFFCURVE",
"312 47 OFFCURVE",
"256 47 CURVE SMOOTH"
);
}
);
width = 540;
},
{
anchors = (
{
name = bottom;
position = "{282, 0}";
},
{
name = ogonek;
position = "{507, 0}";
},
{
name = top;
position = "{298, 510}";
}
);
background = {
paths = (
{
closed = 1;
nodes = (
"371 4 OFFCURVE",
"413 -15 OFFCURVE",
"473 -15 CURVE SMOOTH",
"501 -15 OFFCURVE",
"545 -7 OFFCURVE",
"566 12 CURVE",
"542 43 OFFCURVE",
"535 78 OFFCURVE",
"535 117 CURVE SMOOTH",
"535 342 LINE SMOOTH",
"535 489 OFFCURVE",
"436 530 OFFCURVE",
"289 530 CURVE SMOOTH",
"192 530 OFFCURVE",
"49 504 OFFCURVE",
"49 406 CURVE SMOOTH",
"49 347 OFFCURVE",
"104 323 OFFCURVE",
"162 323 CURVE SMOOTH",
"175 323 OFFCURVE",
"204 325 OFFCURVE",
"215 332 CURVE",
"213 348 OFFCURVE",
"211 366 OFFCURVE",
"211 382 CURVE SMOOTH",
"211 435 OFFCURVE",
"230 473 OFFCURVE",
"282 473 CURVE SMOOTH",
"332 473 OFFCURVE",
"339 428 OFFCURVE",
"339 378 CURVE SMOOTH",
"339 291 LINE",
"195 291 OFFCURVE",
"16 273 OFFCURVE",
"16 129 CURVE SMOOTH",
"16 24 OFFCURVE",
"114 -22 OFFCURVE",
"219 -22 CURVE SMOOTH",
"274 -22 OFFCURVE",
"329 -5 OFFCURVE",
"352 45 CURVE"
);
},
{
closed = 1;
nodes = (
"229 49 OFFCURVE",
"211 88 OFFCURVE",
"211 133 CURVE SMOOTH",
"211 213 OFFCURVE",
"258 241 OFFCURVE",
"338 241 CURVE",
"338 153 LINE SMOOTH",
"338 103 OFFCURVE",
"323 49 OFFCURVE",
"274 49 CURVE SMOOTH"
);
}
);
};
layerId = "7F032AFA-3553-4546-BF24-20A331365DC8";
paths = (
{
closed = 1;
nodes = (
"377 2 OFFCURVE",
"413 -15 OFFCURVE",
"473 -15 CURVE SMOOTH",
"501 -15 OFFCURVE",
"545 -7 OFFCURVE",
"566 12 CURVE",
"542 43 OFFCURVE",
"535 78 OFFCURVE",
"535 117 CURVE SMOOTH",
"535 333 LINE SMOOTH",
"535 480 OFFCURVE",
"432 530 OFFCURVE",
"285 530 CURVE SMOOTH",
"188 530 OFFCURVE",
"49 493 OFFCURVE",
"49 395 CURVE SMOOTH",
"49 336 OFFCURVE",
"104 312 OFFCURVE",
"162 312 CURVE SMOOTH",
"175 312 OFFCURVE",
"204 314 OFFCURVE",
"215 321 CURVE",
"212 339 OFFCURVE",
"211 356 OFFCURVE",
"211 373 CURVE SMOOTH",
"211 429 OFFCURVE",
"228 473 OFFCURVE",
"282 473 CURVE SMOOTH",
"332 473 OFFCURVE",
"339 426 OFFCURVE",
"339 376 CURVE SMOOTH",
"339 286 LINE",
"195 286 OFFCURVE",
"16 270 OFFCURVE",
"16 129 CURVE SMOOTH",
"16 26 OFFCURVE",
"105 -22 OFFCURVE",
"208 -22 CURVE SMOOTH",
"263 -22 OFFCURVE",
"316 -9 OFFCURVE",
"356 38 CURVE"
);
},
{
closed = 1;
nodes = (
"229 49 OFFCURVE",
"211 88 OFFCURVE",
"211 133 CURVE SMOOTH",
"211 210 OFFCURVE",
"258 236 OFFCURVE",
"338 236 CURVE",
"338 153 LINE SMOOTH",
"338 103 OFFCURVE",
"323 49 OFFCURVE",
"274 49 CURVE SMOOTH"
);
}
);
width = 581;
},
{
anchors = (
{
name = bottom;
position = "{297, 0}";
},
{
name = ogonek;
position = "{534, 0}";
},
{
name = top;
position = "{317, 510}";
}
);
background = {
paths = (
{
closed = 1;
nodes = (
"385 2 OFFCURVE",
"435 -15 OFFCURVE",
"506 -15 CURVE SMOOTH",
"535 -15 OFFCURVE",
"589 -8 OFFCURVE",
"615 10 CURVE",
"591 51 OFFCURVE",
"584 90 OFFCURVE",
"584 134 CURVE SMOOTH",
"584 342 LINE SMOOTH",
"584 497 OFFCURVE",
"458 530 OFFCURVE",
"303 530 CURVE SMOOTH",
"218 530 OFFCURVE",
"41 515 OFFCURVE",
"41 398 CURVE SMOOTH",
"41 334 OFFCURVE",
"108 309 OFFCURVE",
"172 309 CURVE SMOOTH",
"185 309 OFFCURVE",
"220 311 OFFCURVE",
"232 317 CURVE",
"231 334 OFFCURVE",
"230 353 OFFCURVE",
"230 370 CURVE SMOOTH",
"230 426 OFFCURVE",
"240 471 OFFCURVE",
"296 471 CURVE SMOOTH",
"340 471 OFFCURVE",
"344 423 OFFCURVE",
"344 378 CURVE SMOOTH",
"344 291 LINE",
"196 291 OFFCURVE",
"5 277 OFFCURVE",
"5 129 CURVE SMOOTH",
"5 16 OFFCURVE",
"116 -22 OFFCURVE",
"228 -22 CURVE SMOOTH",
"283 -22 OFFCURVE",
"338 -6 OFFCURVE",
"359 44 CURVE"
);
},
{
closed = 1;
nodes = (
"251 51 OFFCURVE",
"239 92 OFFCURVE",
"239 133 CURVE SMOOTH",
"239 209 OFFCURVE",
"268 241 OFFCURVE",
"344 241 CURVE",
"344 148 LINE SMOOTH",
"344 105 OFFCURVE",
"335 51 OFFCURVE",
"292 51 CURVE SMOOTH"
);
}
);
};
layerId = "BF71592D-3612-466C-93C9-07DC553C6A84";
paths = (
{
closed = 1;
nodes = (
"392 2 OFFCURVE",
"435 -15 OFFCURVE",
"506 -15 CURVE SMOOTH",
"535 -15 OFFCURVE",
"589 -8 OFFCURVE",
"615 10 CURVE",
"591 51 OFFCURVE",
"584 90 OFFCURVE",
"584 134 CURVE SMOOTH",
"584 330 LINE SMOOTH",
"584 485 OFFCURVE",
"456 530 OFFCURVE",
"301 530 CURVE SMOOTH",
"216 530 OFFCURVE",
"41 505 OFFCURVE",
"41 388 CURVE SMOOTH",
"41 329 OFFCURVE",
"99 301 OFFCURVE",
"163 301 CURVE SMOOTH",
"186 301 OFFCURVE",
"210 305 OFFCURVE",
"232 312 CURVE",
"231 329 OFFCURVE",
"230 348 OFFCURVE",
"230 365 CURVE SMOOTH",
"230 421 OFFCURVE",
"243 471 OFFCURVE",
"291 471 CURVE SMOOTH",
"343 471 OFFCURVE",
"344 416 OFFCURVE",
"344 371 CURVE SMOOTH",
"344 286 LINE",
"196 286 OFFCURVE",
"5 272 OFFCURVE",
"5 129 CURVE SMOOTH",
"5 21 OFFCURVE",
"101 -22 OFFCURVE",
"208 -22 CURVE SMOOTH",
"258 -22 OFFCURVE",
"315 -17 OFFCURVE",
"366 34 CURVE"
);
},
{
closed = 1;
nodes = (
"251 51 OFFCURVE",
"239 92 OFFCURVE",
"239 133 CURVE SMOOTH",
"239 204 OFFCURVE",
"268 236 OFFCURVE",
"344 236 CURVE",
"344 148 LINE SMOOTH",
"344 105 OFFCURVE",
"335 51 OFFCURVE",
"292 51 CURVE SMOOTH"
);
}
);
width = 622;
},
{
anchors = (
{
name = bottom;
position = "{240, 0}";
},
{
name = ogonek;
position = "{416, 0}";
},
{
name = top;
position = "{257, 510}";
}
);
layerId = "98CB3373-E4B4-4DFB-B394-21602E31464B";
paths = (
{
closed = 1;
nodes = (
"343 8 OFFCURVE",
"365 -15 OFFCURVE",
"398 -15 CURVE SMOOTH",
"422 -15 OFFCURVE",
"440 -5 OFFCURVE",
"449 17 CURVE",
"425 26 OFFCURVE",
"418 47 OFFCURVE",
"418 74 CURVE SMOOTH",
"418 380 LINE SMOOTH",
"418 472 OFFCURVE",
"367 530 OFFCURVE",
"255 530 CURVE SMOOTH",
"126 530 OFFCURVE",
"71 468 OFFCURVE",
"71 413 CURVE SMOOTH",
"71 368 OFFCURVE",
"97 346 OFFCURVE",
"141 346 CURVE SMOOTH",
"153 346 OFFCURVE",
"170 349 OFFCURVE",
"179 357 CURVE",
"173 372 OFFCURVE",
"171 387 OFFCURVE",
"171 399 CURVE SMOOTH",
"171 445 OFFCURVE",
"205 478 OFFCURVE",
"254 478 CURVE SMOOTH",
"315 478 OFFCURVE",
"328 441 OFFCURVE",
"328 378 CURVE SMOOTH",
"328 292 LINE",
"194 292 OFFCURVE",
"47 263 OFFCURVE",
"47 129 CURVE SMOOTH",
"47 40 OFFCURVE",
"112 -22 OFFCURVE",
"199 -22 CURVE SMOOTH",
"251 -22 OFFCURVE",
"299 -4 OFFCURVE",
"340 40 CURVE"
);
},
{
closed = 1;
nodes = (
"182 44 OFFCURVE",
"149 79 OFFCURVE",
"149 133 CURVE SMOOTH",
"149 222 OFFCURVE",
"241 242 OFFCURVE",
"330 242 CURVE",
"330 164 LINE SMOOTH",
"330 99 OFFCURVE",
"301 44 OFFCURVE",
"236 44 CURVE SMOOTH"
);
}
);
width = 491;
}
);
leftKerningGroup = a;
note = a;
unicode = 0061;
},
{
glyphname = aacute;
layers = (
{
background = {
paths = (
{
closed = 1;
nodes = (
"172 607 LINE",
"197 572 LINE",
"306 621 LINE SMOOTH",
"343 637 OFFCURVE",
"391 662 OFFCURVE",
"391 702 CURVE SMOOTH",
"391 729 OFFCURVE",
"371 752 OFFCURVE",
"344 759 CURVE"
);
},
{
closed = 1;
nodes = (
"343 8 OFFCURVE",
"370 -15 OFFCURVE",
"408 -15 CURVE SMOOTH",
"433 -15 OFFCURVE",
"456 -5 OFFCURVE",
"467 16 CURVE",
"443 29 OFFCURVE",
"436 53 OFFCURVE",
"436 82 CURVE SMOOTH",
"436 342 LINE SMOOTH",
"436 474 OFFCURVE",
"394 530 OFFCURVE",
"262 530 CURVE SMOOTH",
"139 530 OFFCURVE",
"63 484 OFFCURVE",
"63 421 CURVE SMOOTH",
"63 374 OFFCURVE",
"94 351 OFFCURVE",
"141 351 CURVE SMOOTH",
"153 351 OFFCURVE",
"172 354 OFFCURVE",
"182 362 CURVE",
"177 377 OFFCURVE",
"174 392 OFFCURVE",
"174 407 CURVE SMOOTH",
"174 452 OFFCURVE",
"209 477 OFFCURVE",
"255 477 CURVE SMOOTH",
"314 477 OFFCURVE",
"326 438 OFFCURVE",
"326 378 CURVE SMOOTH",
"326 291 LINE",
"190 291 OFFCURVE",
"37 265 OFFCURVE",
"37 129 CURVE SMOOTH",
"37 38 OFFCURVE",
"108 -22 OFFCURVE",
"199 -22 CURVE SMOOTH",
"255 -22 OFFCURVE",
"310 -4 OFFCURVE",
"337 46 CURVE"
);
},
{
closed = 1;
nodes = (
"187 45 OFFCURVE",
"157 81 OFFCURVE",
"157 133 CURVE SMOOTH",
"157 220 OFFCURVE",
"240 241 OFFCURVE",
"327 241 CURVE",
"327 162 LINE SMOOTH",
"327 100 OFFCURVE",
"301 45 OFFCURVE",
"239 45 CURVE SMOOTH"
);
}
);
};
components = (
{
name = a;
},
{
name = acutecomb;
transform = "{1, 0, 0, 1, 406, 0}";
}
);
layerId = "67CA47D2-7D83-49C3-A4CA-636F78AAFD20";
width = 500;
},
{
background = {
paths = (
{
closed = 1;
nodes = (
"176 614 LINE",
"199 573 LINE",
"324 617 LINE SMOOTH",
"369 633 OFFCURVE",
"422 653 OFFCURVE",
"422 699 CURVE SMOOTH",
"422 728 OFFCURVE",
"399 755 OFFCURVE",
"372 765 CURVE"
);
},
{
closed = 1;
nodes = (
"356 6 OFFCURVE",
"391 -15 OFFCURVE",
"440 -15 CURVE SMOOTH",
"467 -15 OFFCURVE",
"500 -6 OFFCURVE",
"516 14 CURVE",
"492 36 OFFCURVE",
"485 65 OFFCURVE",
"485 100 CURVE SMOOTH",
"485 342 LINE SMOOTH",
"485 482 OFFCURVE",
"415 530 OFFCURVE",
"275 530 CURVE SMOOTH",
"165 530 OFFCURVE",
"56 494 OFFCURVE",
"56 413 CURVE SMOOTH",
"56 361 OFFCURVE",
"99 337 OFFCURVE",
"151 337 CURVE SMOOTH",
"164 337 OFFCURVE",
"187 340 OFFCURVE",
"198 347 CURVE",
"195 363 OFFCURVE",
"192 379 OFFCURVE",
"192 395 CURVE SMOOTH",
"192 443 OFFCURVE",
"219 475 OFFCURVE",
"268 475 CURVE SMOOTH",
"323 475 OFFCURVE",
"332 433 OFFCURVE",
"332 378 CURVE SMOOTH",
"332 291 LINE",
"192 291 OFFCURVE",
"26 269 OFFCURVE",
"26 129 CURVE SMOOTH",
"26 31 OFFCURVE",
"110 -22 OFFCURVE",
"209 -22 CURVE SMOOTH",
"264 -22 OFFCURVE",
"319 -5 OFFCURVE",
"344 45 CURVE"
);
},
{
closed = 1;
nodes = (
"208 47 OFFCURVE",
"184 85 OFFCURVE",
"184 133 CURVE SMOOTH",
"184 216 OFFCURVE",
"249 241 OFFCURVE",
"332 241 CURVE",
"332 157 LINE SMOOTH",
"332 102 OFFCURVE",
"312 47 OFFCURVE",
"256 47 CURVE SMOOTH"
);
}
);
};
components = (
{
name = a;
},
{
name = acutecomb;
transform = "{1, 0, 0, 1, 439, 0}";
}
);
layerId = "FE90535B-3AA3-425B-8C51-62A09B4DD251";
width = 540;
},
{
background = {
paths = (
{
closed = 1;
nodes = (
"179 621 LINE",
"201 574 LINE",
"342 614 LINE SMOOTH",
"394 629 OFFCURVE",
"453 645 OFFCURVE",
"453 697 CURVE SMOOTH",
"453 727 OFFCURVE",
"427 758 OFFCURVE",
"399 771 CURVE"
);
},
{
closed = 1;
nodes = (
"371 4 OFFCURVE",
"413 -15 OFFCURVE",
"473 -15 CURVE SMOOTH",
"501 -15 OFFCURVE",
"545 -7 OFFCURVE",
"566 12 CURVE",
"542 43 OFFCURVE",
"535 78 OFFCURVE",
"535 117 CURVE SMOOTH",
"535 342 LINE SMOOTH",
"535 489 OFFCURVE",
"436 530 OFFCURVE",
"289 530 CURVE SMOOTH",
"192 530 OFFCURVE",
"49 504 OFFCURVE",
"49 406 CURVE SMOOTH",
"49 347 OFFCURVE",
"104 323 OFFCURVE",
"162 323 CURVE SMOOTH",
"175 323 OFFCURVE",
"204 325 OFFCURVE",
"215 332 CURVE",
"213 348 OFFCURVE",
"211 366 OFFCURVE",
"211 382 CURVE SMOOTH",
"211 435 OFFCURVE",
"230 473 OFFCURVE",
"282 473 CURVE SMOOTH",
"332 473 OFFCURVE",
"339 428 OFFCURVE",
"339 378 CURVE SMOOTH",
"339 291 LINE",
"195 291 OFFCURVE",
"16 273 OFFCURVE",
"16 129 CURVE SMOOTH",
"16 24 OFFCURVE",
"114 -22 OFFCURVE",
"219 -22 CURVE SMOOTH",
"274 -22 OFFCURVE",
"329 -5 OFFCURVE",
"352 45 CURVE"
);
},
{
closed = 1;
nodes = (
"229 49 OFFCURVE",
"211 88 OFFCURVE",
"211 133 CURVE SMOOTH",
"211 213 OFFCURVE",
"258 241 OFFCURVE",
"338 241 CURVE",
"338 153 LINE SMOOTH",
"338 103 OFFCURVE",
"323 49 OFFCURVE",
"274 49 CURVE SMOOTH"
);
}
);
};
components = (
{
name = a;
},
{
name = acutecomb;
transform = "{1, 0, 0, 1, 467, 0}";
}
);
layerId = "7F032AFA-3553-4546-BF24-20A331365DC8";
width = 581;
},
{
background = {
paths = (
{
closed = 1;
nodes = (
"192 618 LINE",
"212 564 LINE",
"369 599 LINE SMOOTH",
"430 614 OFFCURVE",
"495 625 OFFCURVE",
"495 683 CURVE SMOOTH",
"495 715 OFFCURVE",
"466 750 OFFCURVE",
"437 766 CURVE"
);
},
{
closed = 1;
nodes = (
"385 2 OFFCURVE",
"435 -15 OFFCURVE",
"506 -15 CURVE SMOOTH",
"535 -15 OFFCURVE",
"589 -8 OFFCURVE",
"615 10 CURVE",
"591 51 OFFCURVE",
"584 90 OFFCURVE",
"584 134 CURVE SMOOTH",
"584 342 LINE SMOOTH",
"584 497 OFFCURVE",
"458 530 OFFCURVE",
"303 530 CURVE SMOOTH",
"218 530 OFFCURVE",
"41 515 OFFCURVE",
"41 398 CURVE SMOOTH",
"41 334 OFFCURVE",
"108 309 OFFCURVE",
"172 309 CURVE SMOOTH",
"185 309 OFFCURVE",
"220 311 OFFCURVE",
"232 317 CURVE",
"231 334 OFFCURVE",
"230 353 OFFCURVE",
"230 370 CURVE SMOOTH",
"230 426 OFFCURVE",
"240 471 OFFCURVE",
"296 471 CURVE SMOOTH",
"340 471 OFFCURVE",
"344 423 OFFCURVE",
"344 378 CURVE SMOOTH",
"344 291 LINE",
"196 291 OFFCURVE",
"5 277 OFFCURVE",
"5 129 CURVE SMOOTH",
"5 16 OFFCURVE",
"116 -22 OFFCURVE",
"228 -22 CURVE SMOOTH",
"283 -22 OFFCURVE",
"338 -6 OFFCURVE",
"359 44 CURVE"
);
},
{
closed = 1;
nodes = (
"251 51 OFFCURVE",
"239 92 OFFCURVE",
"239 133 CURVE SMOOTH",
"239 209 OFFCURVE",
"268 241 OFFCURVE",
"344 241 CURVE",
"344 148 LINE SMOOTH",
"344 105 OFFCURVE",
"335 51 OFFCURVE",
"292 51 CURVE SMOOTH"
);
}
);
};
components = (
{
name = a;
},
{
name = acutecomb;
transform = "{1, 0, 0, 1, 524, 0}";
}
);
layerId = "BF71592D-3612-466C-93C9-07DC553C6A84";
width = 622;
},
{
components = (
{
name = a;
},
{
name = acutecomb;
transform = "{1, 0, 0, 1, 396, 0}";
}
);
layerId = "98CB3373-E4B4-4DFB-B394-21602E31464B";
width = 491;
}
);
leftKerningGroup = a;
note = aacute;
unicode = 00E1;
},
{
glyphname = ae;
layers = (
{
anchors = (
{
name = top;
position = "{400, 510}";
}
);
layerId = "67CA47D2-7D83-49C3-A4CA-636F78AAFD20";
paths = (
{
closed = 1;
nodes = (
"651 87 OFFCURVE",
"605 55 OFFCURVE",
"546 55 CURVE SMOOTH",
"458 55 OFFCURVE",
"439 140 OFFCURVE",
"436 232 CURVE",
"449 231 OFFCURVE",
"475 230 OFFCURVE",
"491 230 CURVE SMOOTH",
"615 230 OFFCURVE",
"717 259 OFFCURVE",
"717 383 CURVE SMOOTH",
"717 479 OFFCURVE",
"648 530 OFFCURVE",
"552 530 CURVE SMOOTH",
"489 530 OFFCURVE",
"440 511 OFFCURVE",
"404 478 CURVE",
"377 514 OFFCURVE",
"333 530 OFFCURVE",
"262 530 CURVE SMOOTH",
"139 530 OFFCURVE",
"63 484 OFFCURVE",
"63 421 CURVE SMOOTH",
"63 374 OFFCURVE",
"94 351 OFFCURVE",
"141 351 CURVE SMOOTH",
"153 351 OFFCURVE",
"172 354 OFFCURVE",
"182 362 CURVE",
"177 377 OFFCURVE",
"174 392 OFFCURVE",
"174 407 CURVE SMOOTH",
"174 452 OFFCURVE",
"209 477 OFFCURVE",
"255 477 CURVE SMOOTH",
"314 477 OFFCURVE",
"326 438 OFFCURVE",
"326 378 CURVE SMOOTH",
"326 287 LINE",
"190 287 OFFCURVE",
"37 265 OFFCURVE",
"37 129 CURVE SMOOTH",
"37 28 OFFCURVE",
"118 -22 OFFCURVE",
"219 -22 CURVE SMOOTH",
"284 -22 OFFCURVE",
"339 5 OFFCURVE",
"363 66 CURVE",
"397 11 OFFCURVE",
"454 -22 OFFCURVE",
"536 -22 CURVE SMOOTH",
"612 -22 OFFCURVE",
"700 22 OFFCURVE",
"700 98 CURVE SMOOTH",
"700 116 OFFCURVE",
"693 133 OFFCURVE",
"676 141 CURVE"
);
},
{
closed = 1;
nodes = (
"586 473 OFFCURVE",
"606 427 OFFCURVE",
"606 377 CURVE SMOOTH",
"606 302 OFFCURVE",
"556 280 OFFCURVE",
"480 280 CURVE SMOOTH",
"470 280 OFFCURVE",
"453 281 OFFCURVE",
"436 282 CURVE",
"438 364 OFFCURVE",
"456 473 OFFCURVE",
"536 473 CURVE SMOOTH"
);
},
{
closed = 1;
nodes = (
"327 162 LINE SMOOTH",
"327 100 OFFCURVE",
"301 45 OFFCURVE",
"239 45 CURVE SMOOTH",
"187 45 OFFCURVE",
"157 81 OFFCURVE",
"157 133 CURVE SMOOTH",
"157 220 OFFCURVE",
"240 237 OFFCURVE",
"327 237 CURVE"
);
}
);
width = 747;
},
{
anchors = (
{
name = top;
position = "{416, 510}";
}
);
layerId = "FE90535B-3AA3-425B-8C51-62A09B4DD251";
paths = (
{
closed = 1;
nodes = (
"703 105 OFFCURVE",
"652 77 OFFCURVE",
"595 77 CURVE SMOOTH",
"511 77 OFFCURVE",
"490 150 OFFCURVE",
"486 234 CURVE",
"498 232 OFFCURVE",
"525 231 OFFCURVE",
"539 231 CURVE SMOOTH",
"666 231 OFFCURVE",
"773 256 OFFCURVE",
"773 384 CURVE SMOOTH",
"773 485 OFFCURVE",
"687 530 OFFCURVE",
"586 530 CURVE SMOOTH",
"523 530 OFFCURVE",
"471 515 OFFCURVE",
"431 487 CURVE",
"396 518 OFFCURVE",
"345 530 OFFCURVE",
"275 530 CURVE SMOOTH",
"165 530 OFFCURVE",
"56 494 OFFCURVE",
"56 413 CURVE SMOOTH",
"56 361 OFFCURVE",
"99 337 OFFCURVE",
"151 337 CURVE SMOOTH",
"164 337 OFFCURVE",
"187 340 OFFCURVE",
"198 347 CURVE",
"195 363 OFFCURVE",
"192 379 OFFCURVE",
"192 395 CURVE SMOOTH",
"192 443 OFFCURVE",
"219 475 OFFCURVE",
"268 475 CURVE SMOOTH",
"323 475 OFFCURVE",
"332 433 OFFCURVE",
"332 378 CURVE SMOOTH",
"332 287 LINE",
"192 287 OFFCURVE",
"26 269 OFFCURVE",
"26 129 CURVE SMOOTH",
"26 26 OFFCURVE",
"115 -22 OFFCURVE",
"218 -22 CURVE SMOOTH",
"291 -22 OFFCURVE",
"349 2 OFFCURVE",
"383 60 CURVE",
"422 8 OFFCURVE",
"485 -22 OFFCURVE",
"570 -22 CURVE SMOOTH",
"656 -22 OFFCURVE",
"754 21 OFFCURVE",
"754 107 CURVE SMOOTH",
"754 127 OFFCURVE",
"747 147 OFFCURVE",
"728 156 CURVE"
);
},
{
closed = 1;
nodes = (
"616 471 OFFCURVE",
"633 426 OFFCURVE",
"633 381 CURVE SMOOTH",
"633 301 OFFCURVE",
"586 279 OFFCURVE",
"505 280 CURVE SMOOTH",
"498 280 OFFCURVE",
"492 280 OFFCURVE",
"485 280 CURVE",
"486 363 OFFCURVE",
"501 471 OFFCURVE",
"571 471 CURVE SMOOTH"
);
},
{
closed = 1;
nodes = (
"332 157 LINE SMOOTH",
"332 102 OFFCURVE",
"312 47 OFFCURVE",
"256 47 CURVE SMOOTH",
"208 47 OFFCURVE",
"184 85 OFFCURVE",
"184 133 CURVE SMOOTH",
"184 216 OFFCURVE",
"249 237 OFFCURVE",
"332 237 CURVE"
);
}
);
width = 795;
},
{
anchors = (
{
name = top;
position = "{436, 510}";
}
);
layerId = "7F032AFA-3553-4546-BF24-20A331365DC8";
paths = (
{
closed = 1;
nodes = (
"755 122 OFFCURVE",
"700 99 OFFCURVE",
"645 99 CURVE SMOOTH",
"565 99 OFFCURVE",
"541 159 OFFCURVE",
"536 235 CURVE",
"548 233 OFFCURVE",
"575 232 OFFCURVE",
"587 232 CURVE SMOOTH",
"718 232 OFFCURVE",
"831 254 OFFCURVE",
"831 385 CURVE SMOOTH",
"831 490 OFFCURVE",
"726 530 OFFCURVE",
"621 530 CURVE SMOOTH",
"557 530 OFFCURVE",
"503 518 OFFCURVE",
"459 496 CURVE",
"416 521 OFFCURVE",
"358 530 OFFCURVE",
"289 530 CURVE SMOOTH",
"192 530 OFFCURVE",
"49 504 OFFCURVE",
"49 406 CURVE SMOOTH",
"49 347 OFFCURVE",
"104 323 OFFCURVE",
"162 323 CURVE SMOOTH",
"175 323 OFFCURVE",
"204 325 OFFCURVE",
"215 332 CURVE",
"213 348 OFFCURVE",
"211 366 OFFCURVE",
"211 382 CURVE SMOOTH",
"211 435 OFFCURVE",
"230 473 OFFCURVE",
"282 473 CURVE SMOOTH",
"332 473 OFFCURVE",
"339 428 OFFCURVE",
"339 378 CURVE SMOOTH",
"339 287 LINE",
"195 287 OFFCURVE",
"16 273 OFFCURVE",
"16 129 CURVE SMOOTH",
"16 24 OFFCURVE",
"113 -22 OFFCURVE",
"218 -22 CURVE SMOOTH",
"299 -22 OFFCURVE",
"359 0 OFFCURVE",
"403 55 CURVE",
"449 5 OFFCURVE",
"517 -22 OFFCURVE",
"605 -22 CURVE SMOOTH",
"701 -22 OFFCURVE",
"809 20 OFFCURVE",
"809 115 CURVE SMOOTH",
"809 137 OFFCURVE",
"801 161 OFFCURVE",
"781 171 CURVE"
);
},
{
closed = 1;
nodes = (
"647 470 OFFCURVE",
"659 426 OFFCURVE",
"659 385 CURVE SMOOTH",
"659 311 OFFCURVE",
"620 279 OFFCURVE",
"558 279 CURVE SMOOTH",
"551 279 OFFCURVE",
"542 279 OFFCURVE",
"534 280 CURVE",
"535 363 OFFCURVE",
"547 470 OFFCURVE",
"606 470 CURVE SMOOTH"
);
},
{
closed = 1;
nodes = (
"338 153 LINE SMOOTH",
"338 103 OFFCURVE",
"323 49 OFFCURVE",
"274 49 CURVE SMOOTH",
"229 49 OFFCURVE",
"211 88 OFFCURVE",
"211 133 CURVE SMOOTH",
"211 213 OFFCURVE",
"258 237 OFFCURVE",
"338 237 CURVE"
);
}
);
width = 846;
},
{
anchors = (
{
name = top;
position = "{456, 510}";
}
);
layerId = "BF71592D-3612-466C-93C9-07DC553C6A84";
paths = (
{
closed = 1;
nodes = (
"807 139 OFFCURVE",
"747 122 OFFCURVE",
"694 122 CURVE SMOOTH",
"619 122 OFFCURVE",
"592 169 OFFCURVE",
"586 237 CURVE",
"597 234 OFFCURVE",
"625 233 OFFCURVE",
"635 233 CURVE SMOOTH",
"770 233 OFFCURVE",
"889 251 OFFCURVE",
"889 386 CURVE SMOOTH",
"889 496 OFFCURVE",
"766 530 OFFCURVE",
"656 530 CURVE SMOOTH",
"591 530 OFFCURVE",
"535 522 OFFCURVE",
"486 506 CURVE",
"436 525 OFFCURVE",
"371 530 OFFCURVE",
"303 530 CURVE SMOOTH",
"218 530 OFFCURVE",
"41 515 OFFCURVE",
"41 398 CURVE SMOOTH",
"41 334 OFFCURVE",
"108 309 OFFCURVE",
"172 309 CURVE SMOOTH",
"185 309 OFFCURVE",
"220 311 OFFCURVE",
"232 317 CURVE",
"231 334 OFFCURVE",
"230 353 OFFCURVE",
"230 370 CURVE SMOOTH",
"230 426 OFFCURVE",
"240 471 OFFCURVE",
"296 471 CURVE SMOOTH",
"340 471 OFFCURVE",
"344 423 OFFCURVE",
"344 378 CURVE SMOOTH",
"344 287 LINE",
"196 287 OFFCURVE",
"5 277 OFFCURVE",
"5 129 CURVE SMOOTH",
"5 22 OFFCURVE",
"110 -22 OFFCURVE",
"217 -22 CURVE SMOOTH",
"306 -22 OFFCURVE",
"368 -3 OFFCURVE",
"424 49 CURVE",
"475 2 OFFCURVE",
"549 -22 OFFCURVE",
"640 -22 CURVE SMOOTH",
"745 -22 OFFCURVE",
"864 19 OFFCURVE",
"864 124 CURVE SMOOTH",
"864 148 OFFCURVE",
"855 175 OFFCURVE",
"834 186 CURVE"
);
},
{
closed = 1;
nodes = (
"679 468 OFFCURVE",
"686 425 OFFCURVE",
"686 389 CURVE SMOOTH",
"686 316 OFFCURVE",
"660 279 OFFCURVE",
"601 279 CURVE SMOOTH",
"596 279 OFFCURVE",
"590 279 OFFCURVE",
"584 280 CURVE",
"585 365 OFFCURVE",
"595 468 OFFCURVE",
"643 468 CURVE SMOOTH"
);
},
{
closed = 1;
nodes = (
"344 148 LINE SMOOTH",
"344 105 OFFCURVE",
"335 51 OFFCURVE",
"292 51 CURVE SMOOTH",
"251 51 OFFCURVE",
"239 92 OFFCURVE",
"239 133 CURVE SMOOTH",
"239 209 OFFCURVE",
"268 237 OFFCURVE",
"344 237 CURVE"
);
}
);
width = 896;
},
{
anchors = (
{
name = top;
position = "{397, 510}";
}
);
layerId = "98CB3373-E4B4-4DFB-B394-21602E31464B";
paths = (
{
closed = 1;
nodes = (
"632 79 OFFCURVE",
"588 45 OFFCURVE",
"528 45 CURVE SMOOTH",
"438 45 OFFCURVE",
"420 135 OFFCURVE",
"418 231 CURVE",
"431 231 OFFCURVE",
"457 230 OFFCURVE",
"474 230 CURVE SMOOTH",
"596 230 OFFCURVE",
"696 260 OFFCURVE",
"696 383 CURVE SMOOTH",
"696 476 OFFCURVE",
"635 530 OFFCURVE",
"541 530 CURVE SMOOTH",
"478 530 OFFCURVE",
"430 509 OFFCURVE",
"396 474 CURVE",
"373 512 OFFCURVE",
"332 530 OFFCURVE",
"261 530 CURVE SMOOTH",
"132 530 OFFCURVE",
"71 479 OFFCURVE",
"71 425 CURVE SMOOTH",
"71 380 OFFCURVE",
"97 358 OFFCURVE",
"141 358 CURVE SMOOTH",
"153 358 OFFCURVE",
"170 361 OFFCURVE",
"179 369 CURVE",
"174 384 OFFCURVE",
"171 398 OFFCURVE",
"171 413 CURVE SMOOTH",
"171 456 OFFCURVE",
"209 478 OFFCURVE",
"254 478 CURVE SMOOTH",
"315 478 OFFCURVE",
"328 440 OFFCURVE",
"328 378 CURVE SMOOTH",
"328 287 LINE",
"194 287 OFFCURVE",
"47 263 OFFCURVE",
"47 129 CURVE SMOOTH",
"47 29 OFFCURVE",
"124 -22 OFFCURVE",
"224 -22 CURVE SMOOTH",
"286 -22 OFFCURVE",
"339 6 OFFCURVE",
"359 69 CURVE",
"390 12 OFFCURVE",
"444 -22 OFFCURVE",
"525 -22 CURVE SMOOTH",
"596 -22 OFFCURVE",
"680 22 OFFCURVE",
"680 94 CURVE SMOOTH",
"680 111 OFFCURVE",
"673 126 OFFCURVE",
"657 134 CURVE"
);
},
{
closed = 1;
nodes = (
"577 474 OFFCURVE",
"599 427 OFFCURVE",
"599 375 CURVE SMOOTH",
"599 301 OFFCURVE",
"547 280 OFFCURVE",
"470 280 CURVE SMOOTH",
"459 280 OFFCURVE",
"439 281 OFFCURVE",
"418 283 CURVE",
"421 364 OFFCURVE",
"440 474 OFFCURVE",
"525 474 CURVE SMOOTH"
);
},
{
closed = 1;
nodes = (
"330 164 LINE SMOOTH",
"330 99 OFFCURVE",
"301 44 OFFCURVE",
"236 44 CURVE SMOOTH",
"182 44 OFFCURVE",
"149 79 OFFCURVE",
"149 133 CURVE SMOOTH",
"149 222 OFFCURVE",
"241 237 OFFCURVE",
"330 237 CURVE"
);
}
);
width = 734;
}
);
leftKerningGroup = a;
leftMetricsKey = a;
note = ae;
rightMetricsKey = e;
unicode = 00E6;
},
{
glyphname = b;
layers = (
{
layerId = "67CA47D2-7D83-49C3-A4CA-636F78AAFD20";
paths = (
{
closed = 1;
nodes = (
"180 712 LINE",
"70 700 LINE",
"70 25 LINE",
"125 -5 OFFCURVE",
"204 -22 OFFCURVE",
"268 -22 CURVE SMOOTH",
"428 -22 OFFCURVE",
"492 103 OFFCURVE",
"492 262 CURVE SMOOTH",
"492 399 OFFCURVE",
"448 530 OFFCURVE",
"311 530 CURVE SMOOTH",
"250 530 OFFCURVE",
"195 495 OFFCURVE",
"170 439 CURVE",
"177 475 OFFCURVE",
"180 532 OFFCURVE",
"180 599 CURVE SMOOTH"
);
},
{
closed = 1;
nodes = (
"180 260 LINE SMOOTH",
"180 347 OFFCURVE",
"191 453 OFFCURVE",
"279 453 CURVE SMOOTH",
"363 453 OFFCURVE",
"372 342 OFFCURVE",
"372 257 CURVE SMOOTH",
"372 165 OFFCURVE",
"365 38 OFFCURVE",
"274 38 CURVE SMOOTH",
"241 38 OFFCURVE",
"208 49 OFFCURVE",
"180 68 CURVE"
);
}
);
width = 524;
},
{
layerId = "FE90535B-3AA3-425B-8C51-62A09B4DD251";
paths = (
{
closed = 1;
nodes = (
"215 716 LINE",
"62 700 LINE",
"62 29 LINE",
"123 -3 OFFCURVE",
"213 -22 OFFCURVE",
"281 -22 CURVE SMOOTH",
"452 -22 OFFCURVE",
"533 92 OFFCURVE",
"533 262 CURVE SMOOTH",
"533 404 OFFCURVE",
"488 530 OFFCURVE",
"345 530 CURVE SMOOTH",
"288 530 OFFCURVE",
"235 505 OFFCURVE",
"206 455 CURVE",
"213 489 OFFCURVE",
"215 550 OFFCURVE",
"215 600 CURVE SMOOTH"
);
},
{
closed = 1;
nodes = (
"215 290 LINE SMOOTH",
"215 363 OFFCURVE",
"220 454 OFFCURVE",
"293 454 CURVE SMOOTH",
"367 454 OFFCURVE",
"373 345 OFFCURVE",
"373 257 CURVE SMOOTH",
"373 163 OFFCURVE",
"368 38 OFFCURVE",
"287 38 CURVE SMOOTH",
"262 38 OFFCURVE",
"236 46 OFFCURVE",
"215 62 CURVE"
);
}
);
width = 562;
},
{
layerId = "7F032AFA-3553-4546-BF24-20A331365DC8";
paths = (
{
closed = 1;
nodes = (
"250 720 LINE",
"54 700 LINE",
"54 32 LINE",
"120 -1 OFFCURVE",
"221 -22 OFFCURVE",
"294 -22 CURVE SMOOTH",
"475 -22 OFFCURVE",
"573 80 OFFCURVE",
"573 262 CURVE SMOOTH",
"573 409 OFFCURVE",
"527 530 OFFCURVE",
"380 530 CURVE SMOOTH",
"325 530 OFFCURVE",
"274 514 OFFCURVE",
"241 470 CURVE",
"249 503 OFFCURVE",
"250 567 OFFCURVE",
"250 600 CURVE SMOOTH"
);
},
{
closed = 1;
nodes = (
"249 319 LINE SMOOTH",
"249 378 OFFCURVE",
"249 454 OFFCURVE",
"307 454 CURVE SMOOTH",
"370 454 OFFCURVE",
"373 347 OFFCURVE",
"373 257 CURVE SMOOTH",
"373 162 OFFCURVE",
"370 38 OFFCURVE",
"300 38 CURVE SMOOTH",
"283 38 OFFCURVE",
"264 44 OFFCURVE",
"249 56 CURVE"
);
}
);
width = 601;
},
{
layerId = "BF71592D-3612-466C-93C9-07DC553C6A84";
paths = (
{
closed = 1;
nodes = (
"285 724 LINE",
"45 700 LINE",
"45 36 LINE",
"117 1 OFFCURVE",
"229 -22 OFFCURVE",
"307 -22 CURVE SMOOTH",
"499 -22 OFFCURVE",
"614 69 OFFCURVE",
"614 262 CURVE SMOOTH",
"614 414 OFFCURVE",
"567 530 OFFCURVE",
"415 530 CURVE SMOOTH",
"363 530 OFFCURVE",
"314 524 OFFCURVE",
"277 485 CURVE",
"285 517 OFFCURVE",
"285 584 OFFCURVE",
"285 601 CURVE SMOOTH"
);
},
{
closed = 1;
nodes = (
"285 350 LINE SMOOTH",
"285 393 OFFCURVE",
"279 455 OFFCURVE",
"323 455 CURVE SMOOTH",
"374 455 OFFCURVE",
"374 350 OFFCURVE",
"374 257 CURVE SMOOTH",
"374 160 OFFCURVE",
"373 38 OFFCURVE",
"315 38 CURVE SMOOTH",
"305 38 OFFCURVE",
"293 41 OFFCURVE",
"285 50 CURVE"
);
}
);
width = 640;
},
{
layerId = "98CB3373-E4B4-4DFB-B394-21602E31464B";
paths = (
{
closed = 1;
nodes = (
"169 710 LINE",
"79 700 LINE",
"79 23 LINE",
"131 -6 OFFCURVE",
"205 -22 OFFCURVE",
"267 -22 CURVE SMOOTH",
"422 -22 OFFCURVE",
"478 108 OFFCURVE",
"478 262 CURVE SMOOTH",
"478 397 OFFCURVE",
"435 530 OFFCURVE",
"300 530 CURVE SMOOTH",
"237 530 OFFCURVE",
"182 490 OFFCURVE",
"158 432 CURVE",
"165 468 OFFCURVE",
"169 524 OFFCURVE",
"169 599 CURVE SMOOTH"
);
},
{
closed = 1;
nodes = (
"169 246 LINE SMOOTH",
"169 340 OFFCURVE",
"183 453 OFFCURVE",
"277 453 CURVE SMOOTH",
"366 453 OFFCURVE",
"377 341 OFFCURVE",
"377 257 CURVE SMOOTH",
"377 166 OFFCURVE",
"369 38 OFFCURVE",
"273 38 CURVE SMOOTH",
"236 38 OFFCURVE",
"200 50 OFFCURVE",
"169 71 CURVE"
);
}
);
width = 516;
}
);
note = b;
unicode = 0062;
},
{
glyphname = c;
layers = (
{
anchors = (
{
name = bottom;
position = "{232, 0}";
},
{
name = top;
position = "{245, 510}";
}
);
background = {
paths = (
{
closed = 1;
nodes = (
"291 471 OFFCURVE",
"308 445 OFFCURVE",
"308 402 CURVE SMOOTH",
"308 387 OFFCURVE",
"305 372 OFFCURVE",
"300 357 CURVE",
"310 349 OFFCURVE",
"329 346 OFFCURVE",
"341 346 CURVE SMOOTH",
"388 346 OFFCURVE",
"419 369 OFFCURVE",
"419 416 CURVE SMOOTH",
"419 498 OFFCURVE",
"346 530 OFFCURVE",
"264 530 CURVE SMOOTH",
"101 530 OFFCURVE",
"32 404 OFFCURVE",
"32 242 CURVE SMOOTH",
"32 90 OFFCURVE",
"95 -22 OFFCURVE",
"248 -22 CURVE SMOOTH",
"324 -22 OFFCURVE",
"408 22 OFFCURVE",
"408 98 CURVE SMOOTH",
"408 122 OFFCURVE",
"398 135 OFFCURVE",
"376 145 CURVE",
"361 88 OFFCURVE",
"317 55 OFFCURVE",
"258 55 CURVE SMOOTH",
"162 55 OFFCURVE",
"148 157 OFFCURVE",
"148 253 CURVE SMOOTH",
"148 341 OFFCURVE",
"160 471 OFFCURVE",
"248 471 CURVE SMOOTH"
);
}
);
};
layerId = "67CA47D2-7D83-49C3-A4CA-636F78AAFD20";
paths = (
{
closed = 1;
nodes = (
"291 471 OFFCURVE",
"308 435 OFFCURVE",
"308 392 CURVE SMOOTH",
"308 377 OFFCURVE",
"305 362 OFFCURVE",
"300 347 CURVE",
"310 339 OFFCURVE",
"329 336 OFFCURVE",
"341 336 CURVE SMOOTH",
"392 336 OFFCURVE",
"419 370 OFFCURVE",
"419 410 CURVE SMOOTH",
"419 465 OFFCURVE",
"368 530 OFFCURVE",
"259 530 CURVE SMOOTH",
"107 530 OFFCURVE",
"32 399 OFFCURVE",
"32 242 CURVE SMOOTH",
"32 90 OFFCURVE",
"95 -22 OFFCURVE",
"248 -22 CURVE SMOOTH",
"324 -22 OFFCURVE",
"408 22 OFFCURVE",
"408 98 CURVE SMOOTH",
"408 122 OFFCURVE",
"398 135 OFFCURVE",
"376 145 CURVE",
"361 88 OFFCURVE",
"317 55 OFFCURVE",
"258 55 CURVE SMOOTH",
"162 55 OFFCURVE",
"148 157 OFFCURVE",
"148 253 CURVE SMOOTH",
"148 336 OFFCURVE",
"165 471 OFFCURVE",
"248 471 CURVE SMOOTH"
);
}
);
width = 446;
},
{
anchors = (
{
name = bottom;
position = "{255, 0}";
},
{
name = top;
position = "{270, 510}";
}
);
background = {
paths = (
{
closed = 1;
nodes = (
"312 470 OFFCURVE",
"324 434 OFFCURVE",
"324 391 CURVE SMOOTH",
"324 376 OFFCURVE",
"321 359 OFFCURVE",
"318 344 CURVE",
"328 336 OFFCURVE",
"352 334 OFFCURVE",
"364 334 CURVE SMOOTH",
"417 334 OFFCURVE",
"460 357 OFFCURVE",
"460 410 CURVE SMOOTH",
"460 500 OFFCURVE",
"375 530 OFFCURVE",
"285 530 CURVE SMOOTH",
"116 530 OFFCURVE",
"30 420 OFFCURVE",
"30 251 CURVE SMOOTH",
"30 87 OFFCURVE",
"110 -22 OFFCURVE",
"273 -22 CURVE SMOOTH",
"360 -22 OFFCURVE",
"448 23 OFFCURVE",
"448 110 CURVE SMOOTH",
"448 134 OFFCURVE",
"436 153 OFFCURVE",
"413 161 CURVE",
"395 108 OFFCURVE",
"354 77 OFFCURVE",
"298 77 CURVE SMOOTH",
"205 77 OFFCURVE",
"188 165 OFFCURVE",
"188 259 CURVE SMOOTH",
"188 343 OFFCURVE",
"197 470 OFFCURVE",
"270 470 CURVE SMOOTH"
);
}
);
};
layerId = "FE90535B-3AA3-425B-8C51-62A09B4DD251";
paths = (
{
closed = 1;
nodes = (
"312 470 OFFCURVE",
"324 424 OFFCURVE",
"324 381 CURVE SMOOTH",
"324 366 OFFCURVE",
"321 349 OFFCURVE",
"318 334 CURVE",
"328 326 OFFCURVE",
"352 324 OFFCURVE",
"364 324 CURVE SMOOTH",
"427 324 OFFCURVE",
"459 357 OFFCURVE",
"459 405 CURVE SMOOTH",
"459 470 OFFCURVE",
"402 530 OFFCURVE",
"285 530 CURVE SMOOTH",
"121 530 OFFCURVE",
"30 415 OFFCURVE",
"30 251 CURVE SMOOTH",
"30 87 OFFCURVE",
"110 -22 OFFCURVE",
"273 -22 CURVE SMOOTH",
"360 -22 OFFCURVE",
"448 23 OFFCURVE",
"448 110 CURVE SMOOTH",
"448 134 OFFCURVE",
"436 153 OFFCURVE",
"413 161 CURVE",
"395 108 OFFCURVE",
"354 77 OFFCURVE",
"298 77 CURVE SMOOTH",
"205 77 OFFCURVE",
"188 165 OFFCURVE",
"188 259 CURVE SMOOTH",
"188 338 OFFCURVE",
"202 470 OFFCURVE",
"270 470 CURVE SMOOTH"
);
}
);
width = 476;
},
{
anchors = (
{
name = bottom;
position = "{267, 0}";
},
{
name = top;
position = "{290, 510}";
}
);
background = {
paths = (
{
closed = 1;
nodes = (
"334 470 OFFCURVE",
"339 422 OFFCURVE",
"339 381 CURVE SMOOTH",
"339 364 OFFCURVE",
"337 346 OFFCURVE",
"335 330 CURVE",
"346 323 OFFCURVE",
"375 321 OFFCURVE",
"388 321 CURVE SMOOTH",
"446 321 OFFCURVE",
"501 345 OFFCURVE",
"501 404 CURVE SMOOTH",
"501 502 OFFCURVE",
"404 530 OFFCURVE",
"306 530 CURVE SMOOTH",
"130 530 OFFCURVE",
"28 436 OFFCURVE",
"28 259 CURVE SMOOTH",
"28 85 OFFCURVE",
"124 -22 OFFCURVE",
"298 -22 CURVE SMOOTH",
"396 -22 OFFCURVE",
"488 24 OFFCURVE",
"488 122 CURVE SMOOTH",
"488 147 OFFCURVE",
"475 171 OFFCURVE",
"450 177 CURVE",
"429 128 OFFCURVE",
"391 99 OFFCURVE",
"338 99 CURVE SMOOTH",
"247 99 OFFCURVE",
"228 173 OFFCURVE",
"228 264 CURVE SMOOTH",
"228 344 OFFCURVE",
"234 470 OFFCURVE",
"292 470 CURVE SMOOTH"
);
}
);
};
layerId = "7F032AFA-3553-4546-BF24-20A331365DC8";
paths = (
{
closed = 1;
nodes = (
"334 470 OFFCURVE",
"339 412 OFFCURVE",
"339 371 CURVE SMOOTH",
"339 354 OFFCURVE",
"337 336 OFFCURVE",
"335 320 CURVE",
"346 313 OFFCURVE",
"375 311 OFFCURVE",
"388 311 CURVE SMOOTH",
"463 311 OFFCURVE",
"500 347 OFFCURVE",
"500 399 CURVE SMOOTH",
"500 470 OFFCURVE",
"436 530 OFFCURVE",
"306 530 CURVE SMOOTH",
"135 530 OFFCURVE",
"28 425 OFFCURVE",
"28 253 CURVE SMOOTH",
"28 82 OFFCURVE",
"127 -22 OFFCURVE",
"298 -22 CURVE SMOOTH",
"396 -22 OFFCURVE",
"488 24 OFFCURVE",
"488 122 CURVE SMOOTH",
"488 147 OFFCURVE",
"475 171 OFFCURVE",
"450 177 CURVE",
"429 128 OFFCURVE",
"391 99 OFFCURVE",
"338 99 CURVE SMOOTH",
"247 99 OFFCURVE",
"228 173 OFFCURVE",
"228 264 CURVE SMOOTH",
"228 339 OFFCURVE",
"239 470 OFFCURVE",
"292 470 CURVE SMOOTH"
);
}
);
width = 505;
},
{
anchors = (
{
name = bottom;
position = "{290, 0}";
},
{
name = top;
position = "{303, 510}";
}
);
background = {
paths = (
{
closed = 1;
nodes = (
"356 469 OFFCURVE",
"354 411 OFFCURVE",
"354 370 CURVE SMOOTH",
"354 353 OFFCURVE",
"353 333 OFFCURVE",
"352 317 CURVE",
"364 310 OFFCURVE",
"399 309 OFFCURVE",
"412 309 CURVE SMOOTH",
"476 309 OFFCURVE",
"543 334 OFFCURVE",
"543 398 CURVE SMOOTH",
"543 504 OFFCURVE",
"434 530 OFFCURVE",
"328 530 CURVE SMOOTH",
"144 530 OFFCURVE",
"26 452 OFFCURVE",
"26 268 CURVE SMOOTH",
"26 82 OFFCURVE",
"138 -22 OFFCURVE",
"324 -22 CURVE SMOOTH",
"432 -22 OFFCURVE",
"529 25 OFFCURVE",
"529 133 CURVE SMOOTH",
"529 159 OFFCURVE",
"514 189 OFFCURVE",
"488 193 CURVE",
"463 148 OFFCURVE",
"429 122 OFFCURVE",
"379 122 CURVE SMOOTH",
"290 122 OFFCURVE",
"269 182 OFFCURVE",
"269 270 CURVE SMOOTH",
"269 346 OFFCURVE",
"272 469 OFFCURVE",
"315 469 CURVE SMOOTH"
);
}
);
};
layerId = "BF71592D-3612-466C-93C9-07DC553C6A84";
paths = (
{
closed = 1;
nodes = (
"348 469 OFFCURVE",
"354 428 OFFCURVE",
"354 375 CURVE SMOOTH",
"354 354 OFFCURVE",
"353 330 OFFCURVE",
"352 307 CURVE",
"367 297 OFFCURVE",
"389 291 OFFCURVE",
"412 291 CURVE SMOOTH",
"472 291 OFFCURVE",
"543 321 OFFCURVE",
"543 395 CURVE SMOOTH",
"543 493 OFFCURVE",
"434 530 OFFCURVE",
"328 530 CURVE SMOOTH",
"149 530 OFFCURVE",
"26 437 OFFCURVE",
"26 258 CURVE SMOOTH",
"26 75 OFFCURVE",
"141 -22 OFFCURVE",
"324 -22 CURVE SMOOTH",
"432 -22 OFFCURVE",
"529 25 OFFCURVE",
"529 133 CURVE SMOOTH",
"529 159 OFFCURVE",
"514 189 OFFCURVE",
"488 193 CURVE",
"463 148 OFFCURVE",
"429 122 OFFCURVE",
"379 122 CURVE SMOOTH",
"290 122 OFFCURVE",
"269 182 OFFCURVE",
"269 270 CURVE SMOOTH",
"269 341 OFFCURVE",
"274 469 OFFCURVE",
"319 469 CURVE SMOOTH"
);
}
);
width = 536;
},
{
anchors = (
{
name = bottom;
position = "{228, 0}";
},
{
name = top;
position = "{239, 510}";
}
);
layerId = "98CB3373-E4B4-4DFB-B394-21602E31464B";
paths = (
{
closed = 1;
nodes = (
"286 471 OFFCURVE",
"306 440 OFFCURVE",
"306 397 CURVE SMOOTH",
"306 382 OFFCURVE",
"303 368 OFFCURVE",
"297 353 CURVE",
"307 345 OFFCURVE",
"323 342 OFFCURVE",
"335 342 CURVE SMOOTH",
"381 342 OFFCURVE",
"405 376 OFFCURVE",
"405 412 CURVE SMOOTH",
"405 463 OFFCURVE",
"357 530 OFFCURVE",
"252 530 CURVE SMOOTH",
"105 530 OFFCURVE",
"38 392 OFFCURVE",
"38 239 CURVE SMOOTH",
"38 92 OFFCURVE",
"93 -22 OFFCURVE",
"241 -22 CURVE SMOOTH",
"312 -22 OFFCURVE",
"394 22 OFFCURVE",
"394 92 CURVE SMOOTH",
"394 116 OFFCURVE",
"385 127 OFFCURVE",
"364 138 CURVE",
"350 79 OFFCURVE",
"305 45 OFFCURVE",
"244 45 CURVE SMOOTH",
"147 45 OFFCURVE",
"134 153 OFFCURVE",
"134 250 CURVE SMOOTH",
"134 335 OFFCURVE",
"153 471 OFFCURVE",
"243 471 CURVE SMOOTH"
);
}
);
width = 442;
}
);
leftKerningGroup = c;
note = c;
unicode = 0063;
},
{
glyphname = d;
layers = (
{
anchors = (
{
name = center;
position = "{352, 608}";
},
{
name = topright;
position = "{346, 525}";
}
);
layerId = "67CA47D2-7D83-49C3-A4CA-636F78AAFD20";
paths = (
{
closed = 1;
nodes = (
"453 712 LINE",
"343 700 LINE",
"343 517 LINE",
"316 526 OFFCURVE",
"284 530 OFFCURVE",
"256 530 CURVE SMOOTH",
"96 530 OFFCURVE",
"32 415 OFFCURVE",
"32 256 CURVE SMOOTH",
"32 110 OFFCURVE",
"80 -22 OFFCURVE",
"226 -22 CURVE SMOOTH",
"277 -22 OFFCURVE",
"331 0 OFFCURVE",
"354 46 CURVE",
"359 8 OFFCURVE",
"387 -15 OFFCURVE",
"425 -15 CURVE SMOOTH",
"450 -15 OFFCURVE",
"473 -5 OFFCURVE",
"484 16 CURVE",
"460 29 OFFCURVE",
"453 53 OFFCURVE",
"453 82 CURVE SMOOTH"
);
},
{
closed = 1;
nodes = (
"343 162 LINE SMOOTH",
"343 100 OFFCURVE",
"317 45 OFFCURVE",
"256 45 CURVE SMOOTH",
"166 45 OFFCURVE",
"152 171 OFFCURVE",
"152 261 CURVE SMOOTH",
"152 353 OFFCURVE",
"159 470 OFFCURVE",
"251 470 CURVE SMOOTH",
"284 470 OFFCURVE",
"315 458 OFFCURVE",
"343 439 CURVE"
);
}
);
width = 527;
},
{
anchors = (
{
name = center;
position = "{391, 614}";
},
{
name = topright;
position = "{376, 525}";
}
);
layerId = "FE90535B-3AA3-425B-8C51-62A09B4DD251";
paths = (
{
closed = 1;
nodes = (
"500 716 LINE",
"347 700 LINE",
"347 522 LINE",
"326 528 OFFCURVE",
"299 530 OFFCURVE",
"278 530 CURVE SMOOTH",
"109 530 OFFCURVE",
"30 425 OFFCURVE",
"30 257 CURVE SMOOTH",
"30 109 OFFCURVE",
"78 -22 OFFCURVE",
"225 -22 CURVE SMOOTH",
"280 -22 OFFCURVE",
"332 -2 OFFCURVE",
"359 45 CURVE",
"371 6 OFFCURVE",
"406 -15 OFFCURVE",
"455 -15 CURVE SMOOTH",
"482 -15 OFFCURVE",
"515 -6 OFFCURVE",
"531 14 CURVE",
"507 36 OFFCURVE",
"500 65 OFFCURVE",
"500 100 CURVE SMOOTH"
);
},
{
closed = 1;
nodes = (
"347 160 LINE SMOOTH",
"347 106 OFFCURVE",
"329 50 OFFCURVE",
"274 50 CURVE SMOOTH",
"198 50 OFFCURVE",
"190 172 OFFCURVE",
"190 262 CURVE SMOOTH",
"190 354 OFFCURVE",
"196 470 OFFCURVE",
"276 470 CURVE SMOOTH",
"301 470 OFFCURVE",
"326 461 OFFCURVE",
"347 446 CURVE"
);
}
);
width = 564;
},
{
anchors = (
{
name = center;
position = "{423, 617}";
},
{
name = topright;
position = "{406, 525}";
}
);
layerId = "7F032AFA-3553-4546-BF24-20A331365DC8";
paths = (
{
closed = 1;
nodes = (
"547 720 LINE",
"351 700 LINE",
"351 527 LINE",
"337 529 OFFCURVE",
"314 530 OFFCURVE",
"300 530 CURVE SMOOTH",
"122 530 OFFCURVE",
"28 435 OFFCURVE",
"28 257 CURVE SMOOTH",
"28 109 OFFCURVE",
"76 -22 OFFCURVE",
"224 -22 CURVE SMOOTH",
"282 -22 OFFCURVE",
"332 -4 OFFCURVE",
"364 45 CURVE",
"384 4 OFFCURVE",
"426 -15 OFFCURVE",
"485 -15 CURVE SMOOTH",
"514 -15 OFFCURVE",
"557 -7 OFFCURVE",
"578 12 CURVE",
"554 43 OFFCURVE",
"547 78 OFFCURVE",
"547 117 CURVE SMOOTH"
);
},
{
closed = 1;
nodes = (
"351 158 LINE SMOOTH",
"351 111 OFFCURVE",
"340 54 OFFCURVE",
"293 54 CURVE SMOOTH",
"231 54 OFFCURVE",
"228 172 OFFCURVE",
"228 262 CURVE SMOOTH",
"228 354 OFFCURVE",
"234 470 OFFCURVE",
"300 470 CURVE SMOOTH",
"318 470 OFFCURVE",
"337 464 OFFCURVE",
"351 452 CURVE"
);
}
);
width = 601;
},
{
anchors = (
{
name = center;
position = "{451, 617}";
},
{
name = topright;
position = "{426, 525}";
}
);
layerId = "BF71592D-3612-466C-93C9-07DC553C6A84";
paths = (
{
closed = 1;
nodes = (
"595 724 LINE",
"355 700 LINE",
"355 530 LINE",
"323 530 LINE SMOOTH",
"135 530 OFFCURVE",
"26 446 OFFCURVE",
"26 258 CURVE SMOOTH",
"26 108 OFFCURVE",
"74 -22 OFFCURVE",
"223 -22 CURVE SMOOTH",
"285 -22 OFFCURVE",
"333 -6 OFFCURVE",
"369 44 CURVE",
"396 2 OFFCURVE",
"446 -15 OFFCURVE",
"516 -15 CURVE SMOOTH",
"546 -15 OFFCURVE",
"600 -8 OFFCURVE",
"626 10 CURVE",
"602 51 OFFCURVE",
"595 90 OFFCURVE",
"595 134 CURVE SMOOTH"
);
},
{
closed = 1;
nodes = (
"355 156 LINE SMOOTH",
"355 117 OFFCURVE",
"351 59 OFFCURVE",
"312 59 CURVE SMOOTH",
"264 59 OFFCURVE",
"267 173 OFFCURVE",
"267 263 CURVE SMOOTH",
"267 355 OFFCURVE",
"272 470 OFFCURVE",
"326 470 CURVE SMOOTH",
"335 470 OFFCURVE",
"347 467 OFFCURVE",
"355 459 CURVE"
);
}
);
width = 639;
},
{
anchors = (
{
name = center;
position = "{340, 606}";
},
{
name = topright;
position = "{337, 525}";
}
);
layerId = "98CB3373-E4B4-4DFB-B394-21602E31464B";
paths = (
{
closed = 1;
nodes = (
"436 710 LINE",
"346 700 LINE",
"346 515 LINE",
"316 525 OFFCURVE",
"282 530 OFFCURVE",
"251 530 CURVE SMOOTH",
"95 530 OFFCURVE",
"38 410 OFFCURVE",
"38 256 CURVE SMOOTH",
"38 110 OFFCURVE",
"86 -22 OFFCURVE",
"231 -22 CURVE SMOOTH",
"281 -22 OFFCURVE",
"336 1 OFFCURVE",
"357 46 CURVE",
"358 9 OFFCURVE",
"383 -15 OFFCURVE",
"416 -15 CURVE SMOOTH",
"440 -15 OFFCURVE",
"458 -5 OFFCURVE",
"467 17 CURVE",
"443 26 OFFCURVE",
"436 47 OFFCURVE",
"436 74 CURVE SMOOTH"
);
},
{
closed = 1;
nodes = (
"346 163 LINE SMOOTH",
"346 97 OFFCURVE",
"317 43 OFFCURVE",
"253 43 CURVE SMOOTH",
"156 43 OFFCURVE",
"139 171 OFFCURVE",
"139 261 CURVE SMOOTH",
"139 353 OFFCURVE",
"147 470 OFFCURVE",
"244 470 CURVE SMOOTH",
"281 470 OFFCURVE",
"315 457 OFFCURVE",
"346 436 CURVE"
);
}
);
width = 520;
}
);
leftKerningGroup = c;
note = d;
unicode = 0064;
},
{
glyphname = eth;
layers = (
{
layerId = "67CA47D2-7D83-49C3-A4CA-636F78AAFD20";
paths = (
{
closed = 1;
nodes = (
"185 720 OFFCURVE",
"149 701 OFFCURVE",
"149 665 CURVE SMOOTH",
"149 654 OFFCURVE",
"153 641 OFFCURVE",
"160 633 CURVE",
"173 642 OFFCURVE",
"195 648 OFFCURVE",
"214 648 CURVE SMOOTH",
"250 648 OFFCURVE",
"277 634 OFFCURVE",
"296 613 CURVE",
"245 594 LINE SMOOTH",
"225 587 OFFCURVE",
"215 576 OFFCURVE",
"216 563 CURVE",
"216 550 OFFCURVE",
"226 534 OFFCURVE",
"233 527 CURVE",
"326 561 LINE",
"334 537 OFFCURVE",
"339 509 OFFCURVE",
"342 480 CURVE",
"315 489 OFFCURVE",
"285 493 OFFCURVE",
"258 493 CURVE SMOOTH",
"106 493 OFFCURVE",
"32 380 OFFCURVE",
"32 227 CURVE SMOOTH",
"32 83 OFFCURVE",
"113 -20 OFFCURVE",
"258 -20 CURVE SMOOTH",
"432 -20 OFFCURVE",
"482 141 OFFCURVE",
"482 315 CURVE SMOOTH",
"482 412 OFFCURVE",
"466 517 OFFCURVE",
"424 596 CURVE",
"461 610 LINE SMOOTH",
"486 619 OFFCURVE",
"496 628 OFFCURVE",
"496 642 CURVE SMOOTH",
"496 655 OFFCURVE",
"486 671 OFFCURVE",
"478 678 CURVE",
"391 647 LINE",
"354 692 OFFCURVE",
"303 720 OFFCURVE",
"236 720 CURVE SMOOTH"
);
},
{
closed = 1;
nodes = (
"177 40 OFFCURVE",
"158 153 OFFCURVE",
"158 234 CURVE SMOOTH",
"158 302 OFFCURVE",
"163 433 OFFCURVE",
"258 433 CURVE SMOOTH",
"293 433 OFFCURVE",
"322 423 OFFCURVE",
"351 403 CURVE",
"354 376 OFFCURVE",
"356 364 OFFCURVE",
"356 301 CURVE SMOOTH",
"356 193 OFFCURVE",
"345 40 OFFCURVE",
"258 40 CURVE SMOOTH"
);
}
);
width = 532;
},
{
layerId = "FE90535B-3AA3-425B-8C51-62A09B4DD251";
paths = (
{
closed = 1;
nodes = (
"209 720 OFFCURVE",
"168 704 OFFCURVE",
"168 660 CURVE SMOOTH",
"168 646 OFFCURVE",
"172 628 OFFCURVE",
"179 617 CURVE",
"193 627 OFFCURVE",
"214 632 OFFCURVE",
"233 632 CURVE SMOOTH",
"266 632 OFFCURVE",
"289 622 OFFCURVE",
"306 606 CURVE",
"268 592 LINE SMOOTH",
"245 584 OFFCURVE",
"232 568 OFFCURVE",
"238 546 CURVE",
"239 538 OFFCURVE",
"246 526 OFFCURVE",
"253 519 CURVE",
"337 550 LINE",
"343 530 OFFCURVE",
"347 508 OFFCURVE",
"349 484 CURVE",
"328 491 OFFCURVE",
"305 493 OFFCURVE",
"282 493 CURVE SMOOTH",
"151 493 OFFCURVE",
"30 410 OFFCURVE",
"30 227 CURVE SMOOTH",
"30 78 OFFCURVE",
"128 -21 OFFCURVE",
"277 -21 CURVE SMOOTH",
"462 -21 OFFCURVE",
"524 131 OFFCURVE",
"524 315 CURVE SMOOTH",
"524 415 OFFCURVE",
"506 518 OFFCURVE",
"464 596 CURVE",
"491 606 LINE SMOOTH",
"518 616 OFFCURVE",
"530 631 OFFCURVE",
"524 653 CURVE",
"523 661 OFFCURVE",
"516 674 OFFCURVE",
"510 680 CURVE",
"425 650 LINE",
"385 693 OFFCURVE",
"331 720 OFFCURVE",
"260 720 CURVE SMOOTH"
);
},
{
closed = 1;
nodes = (
"203 39 OFFCURVE",
"193 160 OFFCURVE",
"193 234 CURVE SMOOTH",
"193 307 OFFCURVE",
"196 433 OFFCURVE",
"283 433 CURVE SMOOTH",
"310 433 OFFCURVE",
"333 424 OFFCURVE",
"355 407 CURVE",
"358 379 OFFCURVE",
"361 346 OFFCURVE",
"361 296 CURVE SMOOTH",
"361 177 OFFCURVE",
"355 39 OFFCURVE",
"277 39 CURVE SMOOTH"
);
}
);
width = 566;
},
{
layerId = "7F032AFA-3553-4546-BF24-20A331365DC8";
paths = (
{
closed = 1;
nodes = (
"234 720 OFFCURVE",
"186 706 OFFCURVE",
"186 655 CURVE SMOOTH",
"186 639 OFFCURVE",
"192 615 OFFCURVE",
"199 602 CURVE",
"214 612 OFFCURVE",
"233 617 OFFCURVE",
"253 617 CURVE SMOOTH",
"281 617 OFFCURVE",
"301 611 OFFCURVE",
"315 600 CURVE",
"291 591 LINE SMOOTH",
"264 581 OFFCURVE",
"249 560 OFFCURVE",
"261 530 CURVE SMOOTH",
"263 525 OFFCURVE",
"267 518 OFFCURVE",
"272 511 CURVE",
"348 539 LINE",
"352 523 OFFCURVE",
"354 507 OFFCURVE",
"356 488 CURVE",
"341 492 OFFCURVE",
"324 493 OFFCURVE",
"307 493 CURVE SMOOTH",
"196 493 OFFCURVE",
"28 440 OFFCURVE",
"28 227 CURVE SMOOTH",
"28 73 OFFCURVE",
"143 -22 OFFCURVE",
"297 -22 CURVE SMOOTH",
"491 -22 OFFCURVE",
"565 121 OFFCURVE",
"565 315 CURVE SMOOTH",
"565 419 OFFCURVE",
"547 520 OFFCURVE",
"503 595 CURVE",
"521 602 LINE SMOOTH",
"550 613 OFFCURVE",
"565 633 OFFCURVE",
"552 663 CURVE",
"550 666 OFFCURVE",
"546 676 OFFCURVE",
"542 682 CURVE",
"459 652 LINE",
"417 695 OFFCURVE",
"360 720 OFFCURVE",
"285 720 CURVE SMOOTH"
);
},
{
closed = 1;
nodes = (
"230 38 OFFCURVE",
"228 166 OFFCURVE",
"228 234 CURVE SMOOTH",
"228 312 OFFCURVE",
"230 433 OFFCURVE",
"308 433 CURVE SMOOTH",
"328 433 OFFCURVE",
"344 425 OFFCURVE",
"359 411 CURVE",
"363 382 OFFCURVE",
"366 329 OFFCURVE",
"366 291 CURVE SMOOTH",
"366 162 OFFCURVE",
"365 38 OFFCURVE",
"297 38 CURVE SMOOTH"
);
}
);
width = 600;
},
{
layerId = "BF71592D-3612-466C-93C9-07DC553C6A84";
paths = (
{
closed = 1;
nodes = (
"260 720 OFFCURVE",
"204 709 OFFCURVE",
"204 650 CURVE SMOOTH",
"204 631 OFFCURVE",
"212 602 OFFCURVE",
"219 587 CURVE",
"235 597 OFFCURVE",
"252 602 OFFCURVE",
"273 602 CURVE SMOOTH",
"296 602 OFFCURVE",
"312 600 OFFCURVE",
"325 593 CURVE",
"315 589 LINE",
"284 578 OFFCURVE",
"266 551 OFFCURVE",
"284 514 CURVE",
"287 513 OFFCURVE",
"288 509 OFFCURVE",
"292 502 CURVE",
"359 527 LINE",
"361 517 OFFCURVE",
"362 505 OFFCURVE",
"364 492 CURVE",
"354 494 OFFCURVE",
"344 493 OFFCURVE",
"333 493 CURVE SMOOTH",
"242 493 OFFCURVE",
"26 471 OFFCURVE",
"26 227 CURVE SMOOTH",
"26 68 OFFCURVE",
"158 -23 OFFCURVE",
"317 -23 CURVE SMOOTH",
"522 -23 OFFCURVE",
"607 110 OFFCURVE",
"607 315 CURVE SMOOTH",
"607 422 OFFCURVE",
"588 521 OFFCURVE",
"543 595 CURVE",
"552 598 LINE",
"582 610 OFFCURVE",
"600 636 OFFCURVE",
"581 674 CURVE",
"578 672 OFFCURVE",
"577 679 OFFCURVE",
"574 684 CURVE",
"494 655 LINE",
"449 696 OFFCURVE",
"389 720 OFFCURVE",
"311 720 CURVE SMOOTH"
);
},
{
closed = 1;
nodes = (
"256 37 OFFCURVE",
"263 173 OFFCURVE",
"263 234 CURVE SMOOTH",
"263 317 OFFCURVE",
"264 433 OFFCURVE",
"333 433 CURVE SMOOTH",
"346 433 OFFCURVE",
"354 426 OFFCURVE",
"362 415 CURVE",
"366 385 OFFCURVE",
"370 312 OFFCURVE",
"370 286 CURVE SMOOTH",
"370 147 OFFCURVE",
"374 37 OFFCURVE",
"317 37 CURVE SMOOTH"
);
}
);
width = 634;
},
{
layerId = "98CB3373-E4B4-4DFB-B394-21602E31464B";
paths = (
{
closed = 1;
nodes = (
"179 720 OFFCURVE",
"145 700 OFFCURVE",
"145 667 CURVE SMOOTH",
"145 658 OFFCURVE",
"149 647 OFFCURVE",
"156 640 CURVE",
"169 649 OFFCURVE",
"191 655 OFFCURVE",
"210 655 CURVE SMOOTH",
"248 655 OFFCURVE",
"276 639 OFFCURVE",
"296 616 CURVE",
"239 595 LINE SMOOTH",
"221 588 OFFCURVE",
"212 580 OFFCURVE",
"211 571 CURVE SMOOTH",
"210 556 OFFCURVE",
"222 538 OFFCURVE",
"229 531 CURVE",
"326 566 LINE",
"335 540 OFFCURVE",
"340 509 OFFCURVE",
"344 478 CURVE",
"314 488 OFFCURVE",
"281 493 OFFCURVE",
"252 493 CURVE SMOOTH",
"90 493 OFFCURVE",
"38 366 OFFCURVE",
"38 227 CURVE SMOOTH",
"38 85 OFFCURVE",
"111 -20 OFFCURVE",
"254 -20 CURVE SMOOTH",
"423 -20 OFFCURVE",
"468 146 OFFCURVE",
"468 315 CURVE SMOOTH",
"468 410 OFFCURVE",
"452 516 OFFCURVE",
"411 596 CURVE",
"452 612 LINE SMOOTH",
"476 620 OFFCURVE",
"485 627 OFFCURVE",
"488 637 CURVE",
"488 652 OFFCURVE",
"477 670 OFFCURVE",
"468 677 CURVE",
"380 646 LINE",
"344 691 OFFCURVE",
"295 720 OFFCURVE",
"230 720 CURVE SMOOTH"
);
},
{
closed = 1;
nodes = (
"170 40 OFFCURVE",
"147 150 OFFCURVE",
"147 234 CURVE SMOOTH",
"147 300 OFFCURVE",
"153 433 OFFCURVE",
"251 433 CURVE SMOOTH",
"290 433 OFFCURVE",
"322 423 OFFCURVE",
"354 401 CURVE",
"357 375 OFFCURVE",
"359 372 OFFCURVE",
"359 303 CURVE SMOOTH",
"359 200 OFFCURVE",
"345 40 OFFCURVE",
"254 40 CURVE SMOOTH"
);
}
);
width = 526;
}
);
leftKerningGroup = c;
note = eth;
unicode = 00F0;
},
